<svg width="165" height="122" viewBox="0 0 165 122" fill="none" xmlns="http://www.w3.org/2000/svg">
<path d="M150.961 107.772L153.097 121.193H138.408L141.039 107.772H150.961Z" fill="#262626"/>
<path opacity="0.2" d="M150.961 107.772L153.097 121.193H138.408L141.039 107.772H150.961Z" fill="white"/>
<path d="M146.126 107.815C146.118 107.815 146.111 107.814 146.103 107.813C146.067 107.807 146.034 107.786 146.013 107.756C145.991 107.726 145.983 107.689 145.989 107.653L150.034 83.2433C150.041 83.2076 150.061 83.176 150.091 83.1552C150.121 83.1344 150.158 83.1261 150.193 83.132C150.229 83.1379 150.261 83.1576 150.283 83.1869C150.304 83.2162 150.313 83.2527 150.308 83.2886L146.263 107.698C146.258 107.731 146.241 107.76 146.216 107.781C146.191 107.803 146.159 107.814 146.126 107.815Z" fill="#494949"/>
<path d="M147.08 102.282C147.048 102.282 147.017 102.271 146.992 102.251C146.967 102.231 146.95 102.203 146.943 102.172C146.937 102.14 146.941 102.108 146.956 102.08C146.97 102.051 146.994 102.029 147.024 102.016L156.901 97.6975C156.934 97.684 156.972 97.6842 157.005 97.6978C157.039 97.7115 157.066 97.7377 157.08 97.7708C157.095 97.804 157.096 97.8414 157.083 97.8753C157.07 97.9092 157.045 97.9368 157.012 97.9522L147.135 102.271C147.118 102.278 147.099 102.282 147.08 102.282Z" fill="#494949"/>
<path d="M147.569 98.1024C147.55 98.0983 147.533 98.0906 147.517 98.0795L140.854 93.3198C140.839 93.3096 140.825 93.2963 140.815 93.2807C140.804 93.2651 140.797 93.2476 140.793 93.2291C140.79 93.2107 140.79 93.1918 140.794 93.1734C140.798 93.1551 140.806 93.1377 140.817 93.1224C140.828 93.1071 140.841 93.0942 140.857 93.0844C140.873 93.0746 140.891 93.0682 140.91 93.0654C140.928 93.0627 140.947 93.0638 140.966 93.0686C140.984 93.0734 141.001 93.0818 141.016 93.0933L147.678 97.8532C147.704 97.8719 147.723 97.8988 147.731 97.9296C147.74 97.9604 147.737 97.9931 147.724 98.0223C147.711 98.0514 147.689 98.0753 147.66 98.0898C147.632 98.1043 147.6 98.1087 147.568 98.1021L147.569 98.1024Z" fill="#494949"/>
<path d="M159.773 105.451C162.66 104.02 163.655 100.148 161.996 96.8028C160.338 93.4578 156.653 91.9066 153.766 93.3379C150.88 94.7693 149.884 98.6413 151.543 101.986C153.201 105.331 156.886 106.883 159.773 105.451Z" fill="#0CBC8B"/>
<path opacity="0.5" d="M160.497 104.484C157.611 105.915 153.926 104.363 152.267 101.019C151.142 98.7498 151.238 96.2397 152.318 94.4116C152.733 93.9693 153.223 93.6051 153.767 93.3361C156.653 91.9048 160.338 93.4561 161.997 96.801C163.123 99.0699 163.027 101.581 161.946 103.408C161.531 103.85 161.041 104.215 160.497 104.484Z" fill="white"/>
<path d="M155.935 85.8897C157.133 82.922 155.586 79.5 152.479 78.2465C149.373 76.993 145.884 78.3826 144.686 81.3504C143.489 84.3181 145.036 87.74 148.142 88.9935C151.249 90.247 154.738 88.8574 155.935 85.8897Z" fill="#0CBC8B"/>
<path opacity="0.5" d="M155.935 85.8885C155.889 86.0006 155.841 86.1098 155.788 86.2175C154.254 88.3805 151.294 89.2623 148.619 88.1821C145.512 86.9287 143.965 83.5065 145.162 80.5388C145.208 80.4267 145.256 80.3175 145.309 80.2096C146.843 78.0466 149.803 77.1648 152.478 78.2451C155.585 79.4986 157.132 82.9207 155.935 85.8885Z" fill="white"/>
<path d="M144.215 95.2413C145.775 92.3628 145.026 88.9377 142.542 87.5912C140.058 86.2447 136.78 87.4866 135.219 90.3651C133.659 93.2436 134.408 96.6687 136.892 98.0153C139.376 99.3618 142.655 98.1199 144.215 95.2413Z" fill="#0CBC8B"/>
<path opacity="0.5" d="M136.289 97.1454C138.773 98.4921 142.051 97.2497 143.612 94.3714C144.67 92.4194 144.666 90.2162 143.778 88.5795C143.429 88.1787 143.01 87.8439 142.542 87.5908C140.059 86.2441 136.78 87.4865 135.22 90.3648C134.161 92.318 134.165 94.5212 135.053 96.1567C135.402 96.5575 135.821 96.8923 136.289 97.1454Z" fill="white"/>
<path d="M62.2865 14.1112C63.1043 11.7228 62.5048 9.35428 60.9473 8.82096C59.3899 8.28763 57.4643 9.79145 56.6464 12.1798C55.8285 14.5682 56.4281 16.9367 57.9856 17.4701C59.543 18.0034 61.4686 16.4996 62.2865 14.1112Z" fill="#F4F4F4"/>
<path d="M56.7409 12.1738C57.8502 11.6737 58.1298 9.894 57.3655 8.19863C56.6012 6.50327 55.0825 5.53426 53.9733 6.0343C52.864 6.53434 52.5844 8.31406 53.3487 10.0094C54.113 11.7048 55.6317 12.6738 56.7409 12.1738Z" fill="#F4F4F4"/>
<path d="M54.6431 16.114H60.5764C61.0982 16.114 61.5987 16.3213 61.9677 16.6903C62.3367 17.0593 62.5441 17.5598 62.5441 18.0817V20.7811C62.5441 21.303 62.3367 21.8035 61.9677 22.1725C61.5987 22.5415 61.0982 22.7488 60.5764 22.7488H54.6431V16.114Z" fill="#F4F4F4"/>
<g opacity="0.05">
<path d="M54.6431 16.114H60.5764C61.0982 16.114 61.5987 16.3213 61.9677 16.6903C62.3367 17.0593 62.5441 17.5598 62.5441 18.0817V20.7811C62.5441 21.303 62.3367 21.8035 61.9677 22.1725C61.5987 22.5415 61.0982 22.7488 60.5764 22.7488H54.6431V16.114Z" fill="#0C0C0C"/>
</g>
<g opacity="0.05">
<path d="M61.7862 11.5338H61.7788C61.7668 11.5325 61.7554 11.5284 61.7454 11.5216C61.7355 11.5149 61.7273 11.5059 61.7217 11.4953C61.6996 11.4422 61.6981 11.3828 61.7174 11.3287C61.7515 11.1853 61.743 11.035 61.693 10.8964C61.6895 10.8874 61.6878 10.8777 61.688 10.868C61.6883 10.8583 61.6904 10.8487 61.6944 10.8399C61.6984 10.831 61.704 10.8231 61.7111 10.8164C61.7182 10.8098 61.7265 10.8046 61.7356 10.8012C61.7447 10.7978 61.7544 10.7963 61.7641 10.7967C61.7738 10.7971 61.7833 10.7994 61.7921 10.8035C61.8009 10.8076 61.8088 10.8134 61.8153 10.8206C61.8219 10.8278 61.8269 10.8362 61.8301 10.8453C61.8782 10.9776 61.8947 11.1192 61.8783 11.259C61.9633 11.1817 62.0582 11.1162 62.1605 11.064C62.1692 11.0591 62.1787 11.056 62.1886 11.0549C62.1984 11.0537 62.2084 11.0546 62.2179 11.0575C62.2275 11.0604 62.2363 11.0651 62.2439 11.0715C62.2515 11.0779 62.2577 11.0858 62.2622 11.0947C62.2667 11.1035 62.2693 11.1132 62.2699 11.1232C62.2705 11.1331 62.269 11.143 62.2657 11.1523C62.2623 11.1617 62.2571 11.1703 62.2503 11.1775C62.2435 11.1848 62.2353 11.1906 62.2263 11.1946C62.0783 11.2715 61.9478 11.378 61.8427 11.5076C61.8358 11.5158 61.8272 11.5224 61.8174 11.527C61.8076 11.5315 61.797 11.5338 61.7862 11.5338Z" fill="#0C0C0C"/>
<path d="M59.5671 9.79085C59.5576 9.79089 59.5481 9.789 59.5393 9.78529C59.4886 9.75848 59.4499 9.71344 59.4311 9.65926C59.3692 9.5276 59.2692 9.41752 59.1441 9.34322C59.1272 9.33351 59.115 9.31752 59.1099 9.29875C59.1049 9.27999 59.1075 9.25999 59.1172 9.24316C59.1269 9.22633 59.1429 9.21405 59.1617 9.20901C59.1804 9.20397 59.2004 9.2066 59.2173 9.2163C59.3367 9.2866 59.4376 9.38442 59.5115 9.5016C59.5288 9.38635 59.561 9.27382 59.6072 9.16682C59.6109 9.15773 59.6163 9.14945 59.6232 9.1425C59.6301 9.13554 59.6383 9.13004 59.6474 9.12632C59.6565 9.1226 59.6662 9.12074 59.676 9.12085C59.6858 9.12097 59.6955 9.12304 59.7045 9.12697C59.7134 9.13089 59.7216 9.13657 59.7283 9.14369C59.735 9.1508 59.7403 9.15919 59.7437 9.16837C59.7472 9.17755 59.7487 9.18733 59.7483 9.19712C59.7479 9.20691 59.7455 9.21652 59.7413 9.22538C59.6752 9.38134 59.6409 9.54898 59.6406 9.71839C59.6406 9.73781 59.6329 9.75642 59.6192 9.77015C59.6054 9.78387 59.5868 9.79159 59.5674 9.79159L59.5671 9.79085Z" fill="#0C0C0C"/>
<path d="M57.6962 12.1514C57.6866 12.1515 57.6772 12.1496 57.6684 12.146C57.6179 12.1195 57.5795 12.0748 57.5608 12.021C57.4986 11.889 57.3984 11.7785 57.273 11.7038C57.2562 11.6941 57.2439 11.6781 57.2388 11.6593C57.2338 11.6406 57.2364 11.6206 57.2461 11.6038C57.2558 11.5869 57.2718 11.5746 57.2906 11.5696C57.3094 11.5646 57.3293 11.5672 57.3462 11.5769C57.4656 11.6472 57.5666 11.7451 57.6405 11.8623C57.6577 11.747 57.6898 11.6345 57.736 11.5274C57.7396 11.5183 57.7451 11.51 57.752 11.5031C57.7589 11.4961 57.7671 11.4906 57.7762 11.4869C57.7852 11.4832 57.795 11.4813 57.8048 11.4815C57.8146 11.4816 57.8242 11.4836 57.8332 11.4876C57.8422 11.4915 57.8503 11.4972 57.857 11.5043C57.8638 11.5114 57.869 11.5198 57.8725 11.529C57.8759 11.5381 57.8775 11.5479 57.8771 11.5577C57.8767 11.5675 57.8743 11.5771 57.8701 11.586C57.804 11.7419 57.7698 11.9095 57.7697 12.0788C57.7697 12.0983 57.7619 12.1169 57.7482 12.1306C57.7345 12.1443 57.7159 12.152 57.6965 12.152L57.6962 12.1514Z" fill="#0C0C0C"/>
<path d="M59.6824 11.7947C59.6729 11.7946 59.6635 11.7928 59.6547 11.7892C59.604 11.7625 59.5654 11.7175 59.5467 11.6634C59.4845 11.5316 59.3845 11.4214 59.2593 11.3469C59.2425 11.3372 59.2302 11.3212 59.2252 11.3024C59.2201 11.2837 59.2227 11.2637 59.2325 11.2468C59.2422 11.23 59.2582 11.2177 59.2769 11.2127C59.2957 11.2076 59.3157 11.2103 59.3325 11.22C59.4517 11.2904 59.5525 11.3882 59.6264 11.5053C59.6437 11.39 59.6758 11.2775 59.722 11.1705C59.7257 11.1614 59.7311 11.1531 59.738 11.1462C59.7449 11.1392 59.7531 11.1337 59.7622 11.13C59.7713 11.1263 59.781 11.1244 59.7908 11.1245C59.8006 11.1246 59.8103 11.1267 59.8193 11.1306C59.8282 11.1346 59.8363 11.1402 59.8431 11.1473C59.8498 11.1545 59.8551 11.1629 59.8585 11.172C59.862 11.1812 59.8635 11.191 59.8631 11.2008C59.8627 11.2106 59.8603 11.2202 59.8561 11.229C59.7899 11.3849 59.7557 11.5525 59.7555 11.7219C59.7555 11.7413 59.7478 11.7599 59.7341 11.7737C59.7204 11.7874 59.7018 11.7951 59.6824 11.7951V11.7947Z" fill="#0C0C0C"/>
<path d="M60.9457 13.858C60.9341 13.858 60.9227 13.8552 60.9124 13.85C60.9017 13.8445 60.8925 13.8365 60.8857 13.8266C60.8789 13.8167 60.8745 13.8054 60.8731 13.7934C60.8715 13.7363 60.8913 13.6807 60.9286 13.6374C61.0119 13.516 61.0577 13.3729 61.0604 13.2258C61.0604 13.2064 61.0681 13.1878 61.0818 13.174C61.0955 13.1603 61.1141 13.1526 61.1336 13.1526C61.153 13.1526 61.1716 13.1603 61.1853 13.174C61.199 13.1878 61.2067 13.2064 61.2067 13.2258C61.2044 13.3673 61.1687 13.5062 61.1025 13.6313C61.21 13.5908 61.3225 13.5652 61.4369 13.555C61.4562 13.5536 61.4753 13.5597 61.4901 13.5722C61.5049 13.5847 61.5142 13.6025 61.5161 13.6217C61.5169 13.6313 61.5158 13.641 61.5128 13.6501C61.5099 13.6593 61.5052 13.6678 61.499 13.6751C61.4928 13.6825 61.4852 13.6885 61.4766 13.6929C61.4681 13.6973 61.4587 13.7 61.4492 13.7008C61.2845 13.7165 61.125 13.7664 60.9807 13.8472C60.9702 13.8537 60.9582 13.8575 60.9457 13.858Z" fill="#0C0C0C"/>
<path d="M57.8643 15.1296C57.8539 15.1296 57.8437 15.1274 57.8343 15.1232C57.7845 15.0946 57.7473 15.0484 57.7302 14.9936C57.6721 14.8602 57.5755 14.7471 57.4528 14.6688C57.4363 14.6586 57.4244 14.6422 57.42 14.6233C57.4155 14.6044 57.4187 14.5845 57.4289 14.568C57.439 14.5515 57.4554 14.5396 57.4743 14.5352C57.4932 14.5307 57.5131 14.5339 57.5296 14.5441C57.6468 14.6182 57.7445 14.7192 57.8149 14.8386C57.8358 14.7239 57.8713 14.6124 57.9206 14.5069C57.9243 14.4975 57.9299 14.489 57.937 14.4819C57.9441 14.4748 57.9526 14.4692 57.9619 14.4655C57.9713 14.4619 57.9813 14.4601 57.9913 14.4605C58.0014 14.4608 58.0112 14.4633 58.0203 14.4676C58.0294 14.4719 58.0375 14.4781 58.044 14.4857C58.0506 14.4933 58.0556 14.5021 58.0586 14.5117C58.0616 14.5213 58.0626 14.5314 58.0615 14.5414C58.0605 14.5514 58.0573 14.5611 58.0524 14.5698C57.9815 14.7236 57.9422 14.8901 57.9369 15.0593C57.9361 15.0782 57.9281 15.0961 57.9144 15.1092C57.9008 15.1223 57.8826 15.1296 57.8637 15.1296H57.8643Z" fill="#0C0C0C"/>
<path d="M59.6975 15.8096C59.695 15.8098 59.6925 15.8098 59.69 15.8096C59.678 15.8084 59.6665 15.8042 59.6565 15.7975C59.6465 15.7908 59.6383 15.7816 59.6326 15.771C59.6109 15.7181 59.6094 15.6591 59.6284 15.6053C59.6626 15.4616 59.6541 15.3112 59.6041 15.1723C59.5979 15.1542 59.5989 15.1345 59.6071 15.1172C59.6152 15.1 59.6297 15.0866 59.6476 15.0799C59.6654 15.0732 59.6852 15.0737 59.7027 15.0814C59.7202 15.089 59.7339 15.1032 59.7411 15.1209C59.7893 15.2532 59.8058 15.395 59.7894 15.5348C59.8743 15.4575 59.9692 15.3919 60.0715 15.3397C60.0887 15.332 60.1082 15.3311 60.126 15.3374C60.1438 15.3437 60.1585 15.3566 60.167 15.3735C60.1755 15.3903 60.1771 15.4098 60.1716 15.4278C60.1661 15.4459 60.1538 15.4611 60.1374 15.4703C59.9894 15.5473 59.8589 15.6538 59.7539 15.7834C59.747 15.7916 59.7383 15.7983 59.7286 15.8028C59.7189 15.8073 59.7082 15.8096 59.6975 15.8096Z" fill="#0C0C0C"/>
</g>
<g opacity="0.05">
<path d="M56.4101 8.82513H56.4026C56.3907 8.82391 56.3792 8.81976 56.3692 8.81305C56.3592 8.80633 56.3511 8.79726 56.3454 8.78663C56.3234 8.73354 56.3219 8.67416 56.3413 8.62005C56.3753 8.47664 56.3668 8.32641 56.3167 8.18778C56.3103 8.16967 56.3112 8.14976 56.3194 8.13234C56.3275 8.11492 56.3421 8.1014 56.3601 8.09469C56.3782 8.08798 56.3981 8.08863 56.4156 8.09649C56.4332 8.10435 56.4469 8.11879 56.4539 8.1367C56.502 8.26893 56.5186 8.4106 56.5022 8.55037C56.5871 8.4731 56.682 8.40753 56.7843 8.35539C56.8015 8.34762 56.821 8.34679 56.8388 8.35308C56.8566 8.35936 56.8713 8.37228 56.8798 8.38912C56.8882 8.40597 56.8899 8.42545 56.8844 8.44349C56.8789 8.46153 56.8666 8.47675 56.8501 8.48596C56.7021 8.56288 56.5716 8.6694 56.4665 8.79893C56.4596 8.80716 56.451 8.81378 56.4412 8.81831C56.4315 8.82284 56.4209 8.82517 56.4101 8.82513Z" fill="#0C0C0C"/>
<path d="M54.8715 7.18651C54.8619 7.18653 54.8525 7.18469 54.8437 7.18109C54.793 7.15442 54.7544 7.10946 54.7358 7.05535C54.6736 6.92354 54.5735 6.81333 54.4483 6.73887C54.4399 6.73406 54.4326 6.72766 54.4268 6.72003C54.4209 6.7124 54.4166 6.7037 54.4141 6.69441C54.4116 6.68511 54.411 6.67542 54.4122 6.66589C54.4135 6.65635 54.4166 6.64715 54.4214 6.63882C54.4262 6.63048 54.4326 6.62318 54.4403 6.61732C54.4479 6.61146 54.4566 6.60716 54.4659 6.60466C54.4752 6.60217 54.4849 6.60153 54.4944 6.60278C54.5039 6.60403 54.5131 6.60715 54.5215 6.61195C54.6407 6.68238 54.7415 6.78017 54.8155 6.89725C54.8328 6.78201 54.8649 6.66948 54.911 6.56248C54.9148 6.55366 54.9204 6.54568 54.9273 6.53901C54.9343 6.53234 54.9424 6.5271 54.9514 6.52359C54.9604 6.52008 54.9699 6.51838 54.9795 6.51857C54.9892 6.51876 54.9986 6.52085 55.0075 6.52471C55.0252 6.53251 55.0391 6.54703 55.0462 6.56509C55.0532 6.58315 55.0528 6.60327 55.0451 6.62103C54.979 6.77695 54.9448 6.94455 54.9447 7.1139C54.9447 7.13331 54.9369 7.15193 54.9232 7.16565C54.9095 7.17938 54.8909 7.18709 54.8715 7.18709V7.18651Z" fill="#0C0C0C"/>
<path d="M54.6246 8.92943C54.6151 8.9294 54.6056 8.92751 54.5968 8.92386C54.5461 8.89699 54.5075 8.8519 54.4888 8.79768C54.4267 8.66609 54.3267 8.55604 54.2017 8.48164C54.1849 8.47194 54.1726 8.45594 54.1675 8.43718C54.1625 8.41842 54.1651 8.39842 54.1748 8.38159C54.1845 8.36476 54.2005 8.35248 54.2193 8.34744C54.2381 8.3424 54.2581 8.34502 54.2749 8.35473C54.3943 8.42503 54.4952 8.52284 54.5691 8.64003C54.5864 8.52478 54.6185 8.41225 54.6647 8.30525C54.6683 8.29615 54.6738 8.28788 54.6807 8.28092C54.6876 8.27396 54.6958 8.26846 54.7049 8.26475C54.714 8.26103 54.7237 8.25917 54.7335 8.25928C54.7433 8.25939 54.753 8.26147 54.7619 8.26539C54.7709 8.26932 54.779 8.275 54.7858 8.28211C54.7925 8.28923 54.7978 8.29762 54.8012 8.3068C54.8046 8.31598 54.8062 8.32575 54.8058 8.33555C54.8054 8.34534 54.803 8.35495 54.7988 8.36381C54.7326 8.51982 54.6984 8.6875 54.6981 8.85697C54.698 8.86892 54.6949 8.88067 54.6893 8.89118C54.6836 8.9017 54.6754 8.91065 54.6654 8.91728C54.6533 8.92521 54.6391 8.92943 54.6246 8.92943Z" fill="#0C0C0C"/>
<path d="M55.8882 10.9935C55.8766 10.9935 55.8652 10.9907 55.8549 10.9855C55.8442 10.98 55.835 10.9719 55.8281 10.9621C55.8212 10.9522 55.8169 10.9408 55.8155 10.9288C55.8142 10.8718 55.8339 10.8164 55.871 10.7731C55.9542 10.6516 56 10.5085 56.0027 10.3613C56.0029 10.342 56.0107 10.3236 56.0244 10.31C56.0381 10.2964 56.0566 10.2888 56.0759 10.2888C56.0953 10.2888 56.1139 10.2965 56.1277 10.3103C56.1414 10.324 56.1491 10.3426 56.1491 10.362C56.1467 10.5034 56.111 10.6422 56.0449 10.7672C56.1524 10.7267 56.2649 10.7011 56.3794 10.6911C56.3986 10.69 56.4175 10.6963 56.4322 10.7087C56.4469 10.7212 56.4562 10.7388 56.4583 10.758C56.4598 10.7773 56.4537 10.7965 56.4411 10.8113C56.4286 10.8261 56.4107 10.8353 56.3914 10.8369C56.2267 10.8525 56.0672 10.9023 55.9229 10.9833C55.9124 10.9896 55.9005 10.9931 55.8882 10.9935Z" fill="#0C0C0C"/>
<path d="M54.3573 10.5387C54.3056 10.5341 54.2569 10.5126 54.2187 10.4774C54.1042 10.39 53.9658 10.3397 53.8219 10.3332C53.8123 10.3329 53.8028 10.3307 53.794 10.3267C53.7853 10.3228 53.7774 10.3171 53.7708 10.3101C53.7642 10.3031 53.7591 10.2949 53.7557 10.2859C53.7523 10.2769 53.7507 10.2673 53.751 10.2577C53.7512 10.248 53.7533 10.2385 53.7572 10.2297C53.7611 10.2209 53.7667 10.2129 53.7737 10.2063C53.7808 10.1997 53.7891 10.1946 53.7981 10.1912C53.8071 10.1879 53.8168 10.1864 53.8264 10.1868C53.9643 10.1925 54.0987 10.2318 54.218 10.3013C54.1807 10.1896 54.1581 10.0735 54.1508 9.95598C54.1497 9.93661 54.1564 9.9176 54.1693 9.90314C54.1822 9.88867 54.2004 9.87993 54.2197 9.87884C54.2294 9.87777 54.2392 9.87875 54.2485 9.88173C54.2578 9.8847 54.2664 9.8896 54.2737 9.89611C54.281 9.90261 54.2868 9.91057 54.2908 9.91947C54.2948 9.92838 54.2969 9.93802 54.2969 9.94778C54.3084 10.1166 54.3537 10.2814 54.4299 10.4325C54.4352 10.443 54.4378 10.4547 54.4376 10.4665C54.4374 10.4783 54.4343 10.4899 54.4286 10.5003C54.4229 10.5106 54.4148 10.5195 54.405 10.526C54.3951 10.5325 54.3839 10.5366 54.3721 10.5378C54.3672 10.5384 54.3623 10.5387 54.3573 10.5387Z" fill="#0C0C0C"/>
</g>
<path d="M34.4953 22.5999L50.8184 22.5999V17.9156H34.4953V22.5999Z" fill="#F4F4F4"/>
<path opacity="0.05" d="M34.4953 22.5999L50.8184 22.5999V17.9156H34.4953V22.5999Z" fill="#0C0C0C"/>
<path d="M36.6872 22.5999H38.8262V17.9156H36.6872V22.5999Z" fill="white"/>
<path d="M39.8391 21.5818H48.7324V18.8059H39.8391V21.5818Z" fill="white"/>
<path d="M30.6028 17.9199L46.7017 17.9199V13.2357L30.6028 13.2357V17.9199Z" fill="#F4F4F4"/>
<path opacity="0.05" d="M42.4305 17.9199H44.54V13.2357H42.4305V17.9199Z" fill="#0C0C0C"/>
<path d="M32.6601 16.9019H41.4312V14.126H32.6601V16.9019Z" fill="white"/>
<path d="M22.742 22.5997L33.3467 10.1907L29.7857 7.14745L19.181 19.5565L22.742 22.5997Z" fill="#F4F4F4"/>
<path opacity="0.05" d="M24.1661 20.9334L25.5557 19.3074L21.9946 16.2641L20.605 17.8902L24.1661 20.9334Z" fill="#0C0C0C"/>
<path opacity="0.05" d="M25.44 17.8758L31.2178 11.115L29.1075 9.31159L23.3298 16.0724L25.44 17.8758Z" fill="#0C0C0C"/>
<path d="M64.2446 22.5142H17.1138V24.3662H64.2446V22.5142Z" fill="#F4F4F4"/>
<path d="M148.595 0H89.2979V59.2967H148.595V0Z" fill="#F4F4F4"/>
<path d="M149.274 0H148.594V59.2967H149.274V0Z" fill="#F4F4F4"/>
<path opacity="0.05" d="M149.274 0H148.594V59.2967H149.274V0Z" fill="#0C0C0C"/>
<path opacity="0.05" d="M134.229 40.8603V25.3464H121.521V34.3596H101.836V50.3188H93.4697V59.2967H101.836H103.448H145.742V40.8603H134.229Z" fill="#0C0C0C"/>
<path opacity="0.34" d="M132.407 27.0308H123.152V28.7152H132.407V27.0308Z" fill="#FFFFFA"/>
<path opacity="0.34" d="M132.407 30.5215H123.152V32.2059H132.407V30.5215Z" fill="#FFFFFA"/>
<path opacity="0.34" d="M132.407 34.012H123.152V35.6964H132.407V34.012Z" fill="#FFFFFA"/>
<path opacity="0.34" d="M144.101 42.4954H142.395V44.1798H144.101V42.4954Z" fill="#FFFFFA"/>
<path opacity="0.34" d="M144.101 45.9861H142.395V47.6705H144.101V45.9861Z" fill="#FFFFFA"/>
<path opacity="0.34" d="M144.101 49.4766H142.395V51.161H144.101V49.4766Z" fill="#FFFFFA"/>
<path opacity="0.34" d="M140.945 42.4954H139.24V44.1798H140.945V42.4954Z" fill="#FFFFFA"/>
<path opacity="0.34" d="M140.945 45.9861H139.24V47.6705H140.945V45.9861Z" fill="#FFFFFA"/>
<path opacity="0.34" d="M140.945 49.4766H139.24V51.161H140.945V49.4766Z" fill="#FFFFFA"/>
<path opacity="0.34" d="M137.875 42.4954H136.169V44.1798H137.875V42.4954Z" fill="#FFFFFA"/>
<path opacity="0.34" d="M137.875 45.9861H136.169V47.6705H137.875V45.9861Z" fill="#FFFFFA"/>
<path opacity="0.34" d="M137.875 49.4766H136.169V51.161H137.875V49.4766Z" fill="#FFFFFA"/>
<path d="M148.595 29.3157H136.663V0H135.676V29.3157H103.448V0H102.461V29.3157H89.2979V30.3025H102.461V59.2967H103.448V30.3025H135.676V59.2967H136.663V30.3025H148.595V29.3157Z" fill="white"/>
<path d="M150.957 59.2251H86.9355V61.197H150.957V59.2251Z" fill="#F4F4F4"/>
<path opacity="0.1" d="M150.957 59.2251H86.9355V61.197H150.957V59.2251Z" fill="#0C0C0C"/>
<path opacity="0.1" d="M151.881 59.2251H150.957V61.197H151.881V59.2251Z" fill="#0C0C0C"/>
<path opacity="0.1" d="M151.881 59.2251H150.957V61.197H151.881V59.2251Z" fill="#0C0C0C"/>
<path d="M123.761 96.2324H23.046C21.7969 96.2324 20.599 96.7286 19.7158 97.6118C18.8326 98.495 18.3364 99.6929 18.3364 100.942V103.843C18.3365 105.092 18.8327 106.29 19.7159 107.173C20.5991 108.056 21.7969 108.552 23.046 108.552H28.7423L25.699 121.338H28.6352L33.3015 108.552H113.475L118.04 121.338H121.107L118.063 108.552H123.76C125.009 108.552 126.207 108.056 127.09 107.173C127.973 106.29 128.469 105.092 128.469 103.843V100.942C128.469 99.6931 127.973 98.4953 127.09 97.6121C126.207 96.7289 125.01 96.2327 123.761 96.2324Z" fill="#262626"/>
<path opacity="0.2" d="M123.761 96.2324H23.046C21.7969 96.2325 20.5991 96.7287 19.7159 97.6119C18.8327 98.4951 18.3365 99.6929 18.3364 100.942V103.843C18.3365 105.092 18.8327 106.29 19.7159 107.173C20.5991 108.056 21.797 108.552 23.046 108.552H28.7423L25.699 121.338H28.6352L33.3015 108.552H113.475L118.04 121.338H121.107L118.063 108.552H123.76C124.378 108.552 124.991 108.43 125.562 108.194C126.133 107.957 126.653 107.61 127.09 107.173C127.527 106.735 127.874 106.216 128.111 105.645C128.348 105.074 128.469 104.461 128.469 103.843V100.942C128.469 99.6931 127.973 98.4953 127.09 97.6121C126.207 96.7289 125.01 96.2327 123.761 96.2324Z" fill="white"/>
<path d="M26.9452 41.0017H119.861C123.549 41.0017 127.086 42.4667 129.693 45.0744C132.301 47.6822 133.766 51.219 133.766 54.9069V91.2536C133.766 92.5848 133.237 93.8614 132.296 94.8027C131.355 95.7439 130.078 96.2728 128.747 96.2728H18.0592C16.728 96.2728 15.4514 95.7439 14.5101 94.8027C13.5688 93.8614 13.04 92.5848 13.04 91.2536V54.9069C13.04 51.219 14.505 47.6822 17.1128 45.0744C19.7205 42.4667 23.2573 41.0017 26.9452 41.0017Z" fill="#367CFF"/>
<path opacity="0.74" d="M26.9452 41.0017H119.861C123.549 41.0017 127.086 42.4667 129.693 45.0744C132.301 47.6822 133.766 51.219 133.766 54.9069V91.2536C133.766 92.5848 133.237 93.8614 132.296 94.8027C131.355 95.7439 130.078 96.2728 128.747 96.2728H18.0592C16.728 96.2728 15.4514 95.7439 14.5101 94.8027C13.5688 93.8614 13.04 92.5848 13.04 91.2536V54.9069C13.04 51.219 14.505 47.6822 17.1128 45.0744C19.7205 42.4667 23.2573 41.0017 26.9452 41.0017Z" fill="white"/>
<path d="M141.833 58.2318C140.035 57.6602 138.084 57.8261 136.409 58.6931C134.734 59.5601 133.472 61.057 132.9 62.8547L123.428 88.7283H23.3789L13.9069 62.8547C13.6292 61.9582 13.1768 61.1255 12.5758 60.4046C11.9748 59.6838 11.2371 59.089 10.4051 58.6546C9.57322 58.2201 8.66355 57.9546 7.72855 57.8734C6.79355 57.7921 5.85172 57.8967 4.95733 58.1811C4.06293 58.4655 3.23367 58.9241 2.51732 59.5305C1.80098 60.1368 1.21172 60.879 0.783505 61.7141C0.355292 62.5493 0.0965905 63.4609 0.0223118 64.3965C-0.0519668 65.332 0.0596457 66.2731 0.350717 67.1653L11.3986 97.9962C11.8561 99.4349 12.7595 100.691 13.978 101.582C15.1966 102.473 16.6672 102.954 18.1769 102.954H128.63C130.139 102.954 131.61 102.473 132.828 101.582C134.047 100.691 134.95 99.4349 135.408 97.9962L146.456 67.1653C146.739 66.2752 146.844 65.338 146.765 64.4073C146.686 63.4766 146.424 62.5706 145.995 61.741C145.566 60.9115 144.977 60.1746 144.263 59.5725C143.549 58.9703 142.723 58.5148 141.833 58.2318Z" fill="#367CFF"/>
<path opacity="0.87" d="M141.833 58.2318C140.035 57.6602 138.084 57.8261 136.409 58.6931C134.734 59.5601 133.472 61.057 132.9 62.8547L123.428 88.7283H23.3789L13.9069 62.8547C13.6292 61.9582 13.1768 61.1255 12.5758 60.4046C11.9748 59.6838 11.2371 59.089 10.4051 58.6546C9.57322 58.2201 8.66355 57.9546 7.72855 57.8734C6.79355 57.7921 5.85172 57.8967 4.95733 58.1811C4.06293 58.4655 3.23367 58.9241 2.51732 59.5305C1.80098 60.1368 1.21172 60.879 0.783505 61.7141C0.355292 62.5493 0.0965905 63.4609 0.0223118 64.3965C-0.0519668 65.332 0.0596457 66.2731 0.350717 67.1653L11.3986 97.9962C11.8561 99.4349 12.7595 100.691 13.978 101.582C15.1966 102.473 16.6672 102.954 18.1769 102.954H128.63C130.139 102.954 131.61 102.473 132.828 101.582C134.047 100.691 134.95 99.4349 135.408 97.9962L146.456 67.1653C146.739 66.2752 146.844 65.338 146.765 64.4073C146.686 63.4766 146.424 62.5706 145.995 61.741C145.566 60.9115 144.977 60.1746 144.263 59.5725C143.549 58.9703 142.723 58.5148 141.833 58.2318Z" fill="white"/>
<path d="M159.962 121.468H2.94158C2.92408 121.469 2.90664 121.466 2.89029 121.459C2.87395 121.453 2.85903 121.444 2.84644 121.431C2.83385 121.419 2.82384 121.405 2.817 121.389C2.81016 121.372 2.80664 121.355 2.80664 121.338C2.80664 121.32 2.81016 121.303 2.817 121.287C2.82384 121.27 2.83385 121.256 2.84644 121.244C2.85903 121.232 2.87395 121.222 2.89029 121.216C2.90664 121.209 2.92408 121.207 2.94158 121.207H159.962C159.979 121.207 159.997 121.209 160.013 121.216C160.03 121.222 160.045 121.232 160.057 121.244C160.07 121.256 160.08 121.27 160.087 121.287C160.093 121.303 160.097 121.32 160.097 121.338C160.097 121.355 160.093 121.372 160.087 121.389C160.08 121.405 160.07 121.419 160.057 121.431C160.045 121.444 160.03 121.453 160.013 121.459C159.997 121.466 159.979 121.469 159.962 121.468Z" fill="#0C0C0C"/>
<g opacity="0.65">
<path d="M159.962 121.468H2.94158C2.92408 121.469 2.90664 121.466 2.89029 121.459C2.87395 121.453 2.85903 121.444 2.84644 121.431C2.83385 121.419 2.82384 121.405 2.817 121.389C2.81016 121.372 2.80664 121.355 2.80664 121.338C2.80664 121.32 2.81016 121.303 2.817 121.287C2.82384 121.27 2.83385 121.256 2.84644 121.244C2.85903 121.232 2.87395 121.222 2.89029 121.216C2.90664 121.209 2.92408 121.207 2.94158 121.207H159.962C159.979 121.207 159.997 121.209 160.013 121.216C160.03 121.222 160.045 121.232 160.057 121.244C160.07 121.256 160.08 121.27 160.087 121.287C160.093 121.303 160.097 121.32 160.097 121.338C160.097 121.355 160.093 121.372 160.087 121.389C160.08 121.405 160.07 121.419 160.057 121.431C160.045 121.444 160.03 121.453 160.013 121.459C159.997 121.466 159.979 121.469 159.962 121.468Z" fill="#0C0C0C"/>
</g>
<path d="M105.821 77.5401L77.9227 57.2113C76.7725 56.3595 75.4033 55.8532 73.9756 55.7518C72.5479 55.6504 71.1209 55.9582 69.8618 56.6389L69.3334 56.9253L36.4141 73.6923L46.1876 88.5118L73.444 70.6038L99.1573 87.1834L105.821 77.5401Z" fill="#262626"/>
<path opacity="0.8" d="M105.821 77.5401L77.9227 57.2113C76.7725 56.3595 75.4033 55.8532 73.9756 55.7518C72.5479 55.6504 71.1209 55.9582 69.8618 56.6389L69.3334 56.9253L36.4141 73.6923L46.1876 88.5118L73.444 70.6038L99.1573 87.1834L105.821 77.5401Z" fill="#0A0A0A"/>
<path d="M17.6707 58.5091C17.6556 58.5121 17.64 58.5097 17.6265 58.5023C17.6131 58.4949 17.6027 58.483 17.5971 58.4687C17.5916 58.4544 17.5913 58.4386 17.5963 58.4241C17.6013 58.4096 17.6112 58.3973 17.6244 58.3894L20.8605 56.4194C20.8678 56.4145 20.876 56.4112 20.8847 56.4096C20.8933 56.4079 20.9022 56.4081 20.9108 56.41C20.9194 56.4119 20.9275 56.4155 20.9346 56.4206C20.9418 56.4257 20.9478 56.4322 20.9524 56.4397C20.957 56.4473 20.96 56.4556 20.9612 56.4643C20.9625 56.473 20.962 56.4819 20.9598 56.4904C20.9575 56.4989 20.9536 56.5068 20.9482 56.5138C20.9428 56.5207 20.9361 56.5265 20.9284 56.5308L17.6923 58.5009C17.6857 58.505 17.6783 58.5077 17.6707 58.5091Z" fill="#0C0C0C"/>
<path d="M111.505 80.0743C111.505 80.0743 115.95 79.8189 116.735 75.794C117.52 71.769 120.635 73.0818 120.635 73.0818L118.558 88.5866L110.811 87.5488L111.505 80.0743Z" fill="#367CFF"/>
<path d="M41.5463 70.3188L20.7439 71.8591C20.7439 71.8591 19.7697 75.8468 21.2179 80.3744C22.4182 84.1267 25.1995 88.4771 31.5888 88.5986H112.56L113.099 77.9713L41.5463 70.3188Z" fill="#262626"/>
<path d="M33.534 25.9183C33.534 25.9183 35.2064 24.0605 35.033 20.5636C34.8986 17.8555 32.7986 20.0336 32.7986 20.0336C32.7986 20.0336 32.6828 18.0848 31.3357 18.5412C29.9885 18.9976 29.5991 21.1436 29.5991 21.1436" fill="#0C0C0C"/>
<path d="M24.2236 20.1487C24.2236 20.1487 17.498 22.2147 21.7825 31.0407L22.3982 30.9638L23.6478 30.8077" fill="#0C0C0C"/>
<path d="M34.7968 38.6051C34.7657 38.607 35.507 44.2319 28.954 44.9976C24.4175 45.5284 21.9047 41.0927 21.8022 41.1126C22.2645 40.9167 22.8301 40.6459 23.0566 40.5467C23.5495 40.327 23.9638 39.9625 24.2444 39.5016C24.525 39.0407 24.6587 38.5053 24.6276 37.9665C24.6058 37.1531 23.6029 33.164 23.5173 32.3535L30.6778 32.5567C30.908 34.2593 30.9926 38.2934 33.479 38.5291C33.8927 38.5674 34.3346 38.5909 34.7968 38.6051Z" fill="#E98862"/>
<path opacity="0.52" d="M31.6806 37.2217C31.506 36.8962 31.3676 36.5526 31.2678 36.197C31.0326 35.3866 30.8868 34.5528 30.833 33.7106C29.4015 33.7924 27.9757 33.471 26.7176 32.783C26.6813 33.2783 26.3785 35.4708 26.6591 35.8806C27.1897 36.654 29.1817 37.7055 31.6806 37.2217Z" fill="#0C0C0C"/>
<path d="M30.0513 36.3956C27.2964 36.6769 23.7241 35.5934 22.9664 31.9267L22.2822 28.6184C21.5238 24.9517 22.8348 21.581 26.2874 20.8669C29.7398 20.1529 32.9351 22.5916 33.6935 26.2583L33.9965 27.723C34.0917 28.2278 34.1524 28.7384 34.1781 29.2514C34.2565 30.6068 34.3701 32.6684 33.7365 34.2006C33.1371 35.6467 31.8108 36.2158 30.0513 36.3956Z" fill="#E98862"/>
<path opacity="0.52" d="M30.6571 32.7925C31.2209 32.7096 31.7575 32.4954 32.2234 32.1671C32.2423 32.1537 32.2552 32.1333 32.2593 32.1104C32.2635 32.0876 32.2585 32.064 32.2455 32.0448C32.2325 32.0255 32.2124 32.0121 32.1897 32.0074C32.1669 32.0028 32.1432 32.0072 32.1237 32.0197C31.1152 32.7013 30.1036 32.8258 29.1991 32.3801C29.1808 32.3705 29.162 32.362 29.1427 32.3545C29.1207 32.3478 29.0968 32.3499 29.0763 32.3604C29.0557 32.3709 29.0401 32.389 29.0326 32.4109C29.0251 32.4327 29.0265 32.4566 29.0363 32.4775C29.0461 32.4984 29.0636 32.5146 29.0852 32.5228C29.0922 32.5256 29.1041 32.5316 29.1205 32.5398C29.5961 32.775 30.1311 32.863 30.6571 32.7925Z" fill="#0C0C0C"/>
<path opacity="0.52" d="M30.791 33.6257C30.8932 33.6123 30.994 33.5903 31.0924 33.5599C31.1143 33.5523 31.1323 33.5367 31.1428 33.5161C31.1533 33.4955 31.1554 33.4717 31.1486 33.4496C31.1418 33.4275 31.1268 33.409 31.1066 33.3978C31.0864 33.3866 31.0626 33.3837 31.0403 33.3898C30.4479 33.5711 30.1055 33.3499 30.0912 33.3403C30.0716 33.3277 30.0479 33.3233 30.0252 33.328C30.0024 33.3327 29.9824 33.3461 29.9694 33.3653C29.9564 33.3846 29.9514 33.4081 29.9555 33.431C29.9597 33.4539 29.9726 33.4742 29.9915 33.4877C30.2341 33.6246 30.5166 33.6734 30.791 33.6257Z" fill="#0C0C0C"/>
<path d="M32.7613 28.0336C33.0011 28.0336 33.1955 27.8392 33.1955 27.5995C33.1955 27.3597 33.0011 27.1653 32.7613 27.1653C32.5215 27.1653 32.3271 27.3597 32.3271 27.5995C32.3271 27.8392 32.5215 28.0336 32.7613 28.0336Z" fill="#0C0C0C"/>
<path d="M28.9635 28.7004C29.2033 28.7004 29.3976 28.506 29.3976 28.2662C29.3976 28.0264 29.2033 27.832 28.9635 27.832C28.7237 27.832 28.5293 28.0264 28.5293 28.2662C28.5293 28.506 28.7237 28.7004 28.9635 28.7004Z" fill="#0C0C0C"/>
<path d="M23.411 32.9996C22.3618 33.2165 21.2791 32.27 21.0622 31.2208C20.8452 30.1715 21.576 29.4172 22.6251 29.2007L23.3112 29.7919L24.3135 32.813L23.411 32.9996Z" fill="#E98862"/>
<path d="M45.1915 49.2923C45.4508 51.7223 46.8953 66.9132 47.2702 69.8952L20.7637 75.0268C20.0974 72.4008 17.1656 60.9222 15.5828 55.8416C14.0723 50.9934 12.863 48.8884 13.1998 47.2254C13.794 44.2928 17.1239 42.39 19.4744 41.5958C20.9098 41.1109 23.0989 40.5387 23.0989 40.5387C23.0989 40.5387 24.0211 44.2997 28.5386 43.6445C34.6867 42.7515 33.4486 38.535 33.4788 38.5291C34.4658 38.3381 39.9781 38.0158 41.4907 38.6316C43.6279 39.5009 44.5148 41.0778 44.8367 42.6221C45.2074 44.3998 44.8979 46.5367 45.1915 49.2923Z" fill="#367CFF"/>
<path d="M24.1299 31.1063C24.1299 31.1063 23.4781 25.8365 24.9936 25.2097C26.0026 24.7925 28.8383 25.7892 31.1106 24.8825C32.1047 24.4858 33.134 24.5516 33.3281 25.0198C33.405 25.2053 33.511 22.3065 31.4869 20.5141C29.8754 19.0868 25.5722 19.4288 23.7625 20.3495C18.7517 22.8986 22.453 29.4706 22.453 29.4706L23.0367 31.218L24.1299 31.1063Z" fill="#0C0C0C"/>
<g opacity="0.52">
<path d="M31.055 31.442L31.0617 31.4409C31.4 31.3718 31.9596 31.2183 31.9084 30.9652C31.8654 30.7556 30.8296 28.6093 30.7114 28.3653C30.7013 28.3443 30.6832 28.3282 30.6612 28.3206C30.6392 28.3129 30.615 28.3143 30.594 28.3244C30.5731 28.3346 30.557 28.3527 30.5493 28.3747C30.5417 28.3967 30.5431 28.4209 30.5532 28.4418C31.0127 29.3922 31.7068 30.8572 31.736 31.0003C31.7149 31.0669 31.3769 31.1971 31.0268 31.2685C31.0038 31.2722 30.9832 31.285 30.9696 31.3039C30.9559 31.3228 30.9504 31.3463 30.9541 31.3693C30.9579 31.3923 30.9706 31.4129 30.9895 31.4265C31.0085 31.4402 31.032 31.4457 31.055 31.442Z" fill="#0C0C0C"/>
</g>
<path d="M31.2299 26.3273C31.3749 26.2062 31.5363 26.1062 31.7093 26.0303C31.8804 25.9539 32.0626 25.9052 32.249 25.8859C32.343 25.8769 32.4375 25.8758 32.5317 25.8825C32.6253 25.8925 32.7178 25.9109 32.808 25.9377C32.9854 25.9909 33.1528 26.0729 33.3035 26.1805C33.3172 26.1888 33.3291 26.1997 33.3385 26.2126C33.348 26.2255 33.3548 26.2401 33.3586 26.2556C33.3624 26.2711 33.3631 26.2872 33.3607 26.303C33.3582 26.3188 33.3527 26.334 33.3444 26.3476C33.3362 26.3613 33.3253 26.3732 33.3124 26.3826C33.2995 26.3921 33.2849 26.3989 33.2694 26.4027C33.2538 26.4065 33.2377 26.4072 33.2219 26.4048C33.2062 26.4023 33.191 26.3968 33.1773 26.3885L33.1664 26.3824C33.0345 26.2997 32.89 26.2392 32.7386 26.2032C32.6646 26.186 32.5892 26.1755 32.5134 26.1717C32.4375 26.1712 32.3618 26.1768 32.2869 26.1886C32.1356 26.2135 31.9892 26.2624 31.8533 26.3333C31.7182 26.4028 31.5932 26.4901 31.4815 26.593L31.474 26.6002C31.4566 26.6168 31.4361 26.6298 31.4137 26.6384C31.3912 26.6471 31.3673 26.6513 31.3433 26.6507C31.3192 26.6501 31.2955 26.6448 31.2735 26.635C31.2515 26.6253 31.2317 26.6113 31.2151 26.5939C31.1985 26.5765 31.1855 26.556 31.1768 26.5335C31.1682 26.5111 31.164 26.4872 31.1646 26.4631C31.1652 26.4391 31.1705 26.4154 31.1802 26.3934C31.19 26.3714 31.204 26.3515 31.2214 26.335C31.224 26.3325 31.2271 26.3297 31.2299 26.3273Z" fill="#0C0C0C"/>
<path d="M29.0769 26.9344C28.9147 26.8989 28.7489 26.8819 28.5829 26.8839C28.4137 26.8851 28.2453 26.9062 28.0811 26.9469C27.9172 26.9859 27.76 27.0491 27.6147 27.1343C27.4684 27.2195 27.3348 27.3246 27.2176 27.4468L27.2097 27.4545C27.1872 27.4777 27.1564 27.491 27.1241 27.4915C27.0918 27.492 27.0606 27.4796 27.0375 27.4571C27.0143 27.4346 27.001 27.4038 27.0005 27.3715C27 27.3392 27.0124 27.3081 27.0349 27.2849C27.1613 27.1371 27.3079 27.0078 27.4704 26.9008C27.6332 26.7928 27.8112 26.7094 27.9984 26.6534C28.1842 26.5961 28.3761 26.5609 28.5701 26.5486C28.7673 26.5351 28.9654 26.5449 29.1602 26.5779C29.2081 26.5862 29.2506 26.6132 29.2786 26.653C29.3065 26.6927 29.3175 26.7419 29.3092 26.7897C29.3008 26.8376 29.2738 26.8802 29.2341 26.9081C29.1943 26.936 29.1451 26.947 29.0973 26.9387L29.0876 26.9368L29.0769 26.9344Z" fill="#0C0C0C"/>
<path d="M30.0303 22.6683C30.7773 22.355 31.0089 21.2096 30.5476 20.11C30.0864 19.0105 29.1069 18.3731 28.3599 18.6865C27.6129 18.9999 27.3812 20.1453 27.8425 21.2448C28.3038 22.3444 29.2833 22.9817 30.0303 22.6683Z" fill="#0C0C0C"/>
<path d="M64.0962 34.6717C64.0133 34.6077 63.9172 34.5628 63.8149 34.5404C63.7125 34.518 63.6065 34.5186 63.5044 34.5422C63.4024 34.5657 63.3068 34.6116 63.2246 34.6766C63.1424 34.7415 63.0757 34.8239 63.0292 34.9178L63.436 34.0954C63.5221 33.9303 63.5422 33.7387 63.4922 33.5593C63.4423 33.3799 63.3261 33.2262 63.1671 33.1293C63.0834 33.0822 62.991 33.0526 62.8955 33.0423C62.8 33.0321 62.7035 33.0414 62.6117 33.0697C62.5199 33.098 62.4349 33.1447 62.3618 33.2069C62.2886 33.2692 62.2289 33.3457 62.1863 33.4317L62.3705 33.0596C62.4472 32.9112 62.4703 32.7409 62.4358 32.5775C62.4013 32.414 62.3114 32.2675 62.1813 32.1627C62.0984 32.0987 62.0023 32.0539 61.9 32.0315C61.7977 32.0091 61.6916 32.0097 61.5896 32.0332C61.4875 32.0568 61.3919 32.1027 61.3097 32.1676C61.2275 32.2326 61.1607 32.3149 61.1142 32.4088L60.7922 33.0606C60.8753 32.8925 60.8883 32.6983 60.8282 32.5206C60.7682 32.343 60.64 32.1964 60.4719 32.1133C60.1133 31.9052 59.701 32.2064 59.5375 32.5369L58.0152 35.4834L58.0591 34.5293C58.0715 34.3437 58.013 34.1602 57.8954 34.016C57.7778 33.8719 57.6098 33.7778 57.4254 33.7527C57.3298 33.7431 57.2332 33.7531 57.1416 33.782C57.05 33.8109 56.9652 33.8582 56.8925 33.9209C56.8197 33.9837 56.7605 34.0606 56.7185 34.147C56.6764 34.2334 56.6524 34.3275 56.648 34.4235L56.2988 41.9147L58.5768 42.086C59.2842 42.1391 59.9914 41.9798 60.6076 41.6286C61.2239 41.2773 61.7213 40.75 62.036 40.1142L64.2852 35.5686C64.3619 35.4202 64.385 35.2499 64.3505 35.0865C64.3161 34.923 64.2262 34.7765 64.0962 34.6717Z" fill="#E98862"/>
<path d="M59.3526 35.8344C59.368 35.8418 59.3857 35.8428 59.4019 35.8373C59.4181 35.8319 59.4315 35.8203 59.4393 35.8051L60.8833 33.0012C60.8875 32.9935 60.89 32.9851 60.8909 32.9765C60.8917 32.9678 60.8909 32.9591 60.8883 32.9508C60.8857 32.9425 60.8815 32.9348 60.8759 32.9281C60.8704 32.9215 60.8635 32.916 60.8558 32.912C60.8481 32.908 60.8396 32.9057 60.8309 32.905C60.8223 32.9043 60.8136 32.9054 60.8053 32.9081C60.7971 32.9109 60.7895 32.9152 60.7829 32.9209C60.7764 32.9267 60.7711 32.9336 60.7672 32.9414L59.3232 35.7466C59.3193 35.7542 59.3169 35.7625 59.3161 35.771C59.3154 35.7795 59.3164 35.7881 59.319 35.7963C59.3216 35.8045 59.3258 35.812 59.3314 35.8186C59.3369 35.8251 59.3437 35.8305 59.3513 35.8344H59.3526Z" fill="#E98862"/>
<path d="M60.5721 36.5057C60.5875 36.513 60.6052 36.5141 60.6213 36.5086C60.6375 36.5032 60.6509 36.4916 60.6586 36.4764L62.2703 33.3472C62.2782 33.3318 62.2797 33.3139 62.2744 33.2975C62.2691 33.281 62.2575 33.2673 62.2422 33.2594C62.2267 33.2521 62.209 33.2509 62.1927 33.2562C62.1764 33.2614 62.1627 33.2727 62.1544 33.2876L60.5428 36.4171C60.5349 36.4325 60.5335 36.4504 60.5388 36.4669C60.5441 36.4833 60.5557 36.497 60.5711 36.5049L60.5721 36.5057Z" fill="#E98862"/>
<path d="M61.8879 37.2397C61.9033 37.247 61.921 37.2481 61.9371 37.2426C61.9533 37.2372 61.9667 37.2256 61.9744 37.2104L63.2599 34.7143C63.2641 34.7066 63.2667 34.6983 63.2675 34.6896C63.2684 34.681 63.2675 34.6722 63.2649 34.6639C63.2623 34.6556 63.2581 34.6479 63.2526 34.6413C63.247 34.6346 63.2401 34.6291 63.2324 34.6252C63.2247 34.6212 63.2162 34.6188 63.2076 34.6181C63.1989 34.6174 63.1902 34.6185 63.182 34.6212C63.1737 34.624 63.1661 34.6283 63.1596 34.6341C63.153 34.6398 63.1477 34.6468 63.1439 34.6546L61.8583 37.1518C61.8544 37.1595 61.852 37.1678 61.8513 37.1763C61.8506 37.1848 61.8516 37.1934 61.8542 37.2016C61.8568 37.2097 61.861 37.2173 61.8665 37.2238C61.8721 37.2304 61.8788 37.2358 61.8864 37.2397H61.8879Z" fill="#E98862"/>
<g opacity="0.1">
<path d="M59.3526 35.8344C59.368 35.8418 59.3857 35.8428 59.4019 35.8373C59.4181 35.8319 59.4315 35.8203 59.4393 35.8051L60.8833 33.0012C60.8875 32.9935 60.89 32.9851 60.8909 32.9765C60.8917 32.9678 60.8909 32.9591 60.8883 32.9508C60.8857 32.9425 60.8815 32.9348 60.8759 32.9281C60.8704 32.9215 60.8635 32.916 60.8558 32.912C60.8481 32.908 60.8396 32.9057 60.8309 32.905C60.8223 32.9043 60.8136 32.9054 60.8053 32.9081C60.7971 32.9109 60.7895 32.9152 60.7829 32.9209C60.7764 32.9267 60.7711 32.9336 60.7672 32.9414L59.3232 35.7466C59.3193 35.7542 59.3169 35.7625 59.3161 35.771C59.3154 35.7795 59.3164 35.7881 59.319 35.7963C59.3216 35.8045 59.3258 35.812 59.3314 35.8186C59.3369 35.8251 59.3437 35.8305 59.3513 35.8344H59.3526Z" fill="#0C0C0C"/>
</g>
<g opacity="0.1">
<path d="M60.5721 36.5057C60.5875 36.513 60.6052 36.5141 60.6213 36.5086C60.6375 36.5032 60.6509 36.4916 60.6586 36.4764L62.2703 33.3472C62.2782 33.3318 62.2797 33.3139 62.2744 33.2975C62.2691 33.281 62.2575 33.2673 62.2422 33.2594C62.2267 33.2521 62.209 33.2509 62.1927 33.2562C62.1764 33.2614 62.1627 33.2727 62.1544 33.2876L60.5428 36.4171C60.5349 36.4325 60.5335 36.4504 60.5388 36.4669C60.5441 36.4833 60.5557 36.497 60.5711 36.5049L60.5721 36.5057Z" fill="#0C0C0C"/>
</g>
<g opacity="0.1">
<path d="M61.8879 37.2397C61.9033 37.247 61.921 37.2481 61.9371 37.2426C61.9533 37.2372 61.9667 37.2256 61.9744 37.2104L63.2599 34.7143C63.2641 34.7066 63.2667 34.6983 63.2675 34.6896C63.2684 34.681 63.2675 34.6722 63.2649 34.6639C63.2623 34.6556 63.2581 34.6479 63.2526 34.6413C63.247 34.6346 63.2401 34.6291 63.2324 34.6252C63.2247 34.6212 63.2162 34.6188 63.2076 34.6181C63.1989 34.6174 63.1902 34.6185 63.182 34.6212C63.1737 34.624 63.1661 34.6283 63.1596 34.6341C63.153 34.6398 63.1477 34.6468 63.1439 34.6546L61.8583 37.1518C61.8544 37.1595 61.852 37.1678 61.8513 37.1763C61.8506 37.1848 61.8516 37.1934 61.8542 37.2016C61.8568 37.2097 61.861 37.2173 61.8665 37.2238C61.8721 37.2304 61.8788 37.2358 61.8864 37.2397H61.8879Z" fill="#0C0C0C"/>
</g>
<path d="M55.1129 38.2986L52.0308 49.9784L43.8126 40.3181L36.1753 46.4402L50.554 63.342L50.6228 63.428C51.1953 64.1408 51.9579 64.6769 52.8223 64.9745C53.6867 65.272 54.6177 65.3188 55.5077 65.1095C56.3976 64.9001 57.2101 64.4432 57.8512 63.7915C58.4923 63.1398 58.9359 62.3199 59.1307 61.4267L63.7206 40.3715L55.1129 38.2986Z" fill="#367CFF"/>
<path d="M46.0235 60.5504C46.0197 60.5512 46.0158 60.5516 46.0119 60.5516C46.0034 60.5517 45.9949 60.5501 45.9869 60.547C45.9789 60.5438 45.9717 60.5391 45.9655 60.5331C45.9594 60.5271 45.9545 60.52 45.9511 60.5121C45.9477 60.5042 45.9459 60.4958 45.9458 60.4872L45.835 52.5376C45.8347 52.5203 45.8414 52.5036 45.8535 52.4912C45.8655 52.4788 45.8821 52.4717 45.8994 52.4714C45.9167 52.4712 45.9334 52.4779 45.9458 52.4899C45.9582 52.502 45.9653 52.5185 45.9655 52.5359L46.0762 60.4854C46.0764 60.5007 46.0713 60.5156 46.0616 60.5275C46.052 60.5394 46.0385 60.5475 46.0235 60.5504Z" fill="#0C0C0C"/>
<path d="M47.0199 46.8164L40.229 48.1311L41.8414 56.4595L48.6323 55.1447L47.0199 46.8164Z" fill="#FFFAFA"/>
<path d="M41.5503 54.9553C41.0243 55.0571 40.4798 55.0007 39.9858 54.7931C39.4918 54.5855 39.0705 54.2361 38.7751 53.789C38.4797 53.342 38.3235 52.8174 38.3262 52.2816C38.3289 51.7457 38.4905 51.2228 38.7905 50.7788C39.0904 50.3348 39.5153 49.9897 40.0114 49.7872C40.5075 49.5846 41.0525 49.5338 41.5775 49.641C42.1025 49.7482 42.5839 50.0087 42.9609 50.3895C43.3378 50.7703 43.5934 51.2543 43.6953 51.7804C43.831 52.4858 43.6814 53.2162 43.2792 53.8114C42.8771 54.4065 42.2554 54.8179 41.5503 54.9553ZM40.694 50.5324C40.3453 50.5999 40.0245 50.7692 39.7721 51.0191C39.5197 51.2689 39.347 51.588 39.2759 51.936C39.2049 52.2839 39.2386 52.6451 39.3728 52.974C39.507 53.3028 39.7357 53.5844 40.03 53.7832C40.3243 53.982 40.6709 54.0891 41.0261 54.0909C41.3812 54.0928 41.7289 53.9892 42.0252 53.7934C42.3215 53.5976 42.5531 53.3184 42.6907 52.991C42.8283 52.6636 42.8657 52.3027 42.7982 51.954C42.7072 51.4866 42.4344 51.0744 42.0398 50.8078C41.6451 50.5413 41.1609 50.4422 40.6932 50.5324H40.694Z" fill="#FFFAFA"/>
<path d="M44.5447 45.2173C44.5163 45.2228 44.4869 45.2187 44.4611 45.2056C44.4353 45.1925 44.4145 45.1713 44.4021 45.1451C44.3897 45.119 44.3863 45.0895 44.3925 45.0612C44.3987 45.033 44.4141 45.0076 44.4362 44.989C44.99 44.5273 44.8786 43.5678 44.4509 42.907C44.247 42.6096 44.021 42.3279 43.7749 42.0643C43.4521 41.7278 43.1702 41.3544 42.9351 40.9518C42.68 40.4576 42.5628 39.9039 42.5958 39.3489C42.6287 38.7938 42.8106 38.2578 43.1223 37.7974C43.1421 37.769 43.1723 37.7496 43.2064 37.7435C43.2405 37.7374 43.2756 37.7451 43.304 37.7649C43.3324 37.7847 43.3518 37.8149 43.3578 37.849C43.3639 37.883 43.3562 37.9181 43.3365 37.9465C43.0516 38.3673 42.8854 38.857 42.8553 39.3643C42.8252 39.8715 42.9323 40.3774 43.1653 40.8289C43.3907 41.2136 43.661 41.5701 43.9704 41.8909C44.2254 42.1643 44.4594 42.4565 44.6703 42.7651C45.1534 43.5117 45.2937 44.6141 44.6037 45.1895C44.5867 45.2036 44.5664 45.2132 44.5447 45.2173Z" fill="#FFFAFA"/>
<path d="M41.4398 43.1827C41.4162 43.1873 41.3918 43.1853 41.3693 43.1769C41.3467 43.1685 41.327 43.154 41.3121 43.1352C40.8045 42.4877 40.1727 41.6822 40.0434 40.7389C39.9409 39.9888 40.1621 39.2591 40.3763 38.5532C40.521 38.1201 40.6297 37.6757 40.7013 37.2247C40.7064 37.191 40.7245 37.1606 40.7517 37.1401C40.779 37.1196 40.8131 37.1105 40.847 37.1148C40.8808 37.1192 40.9116 37.1366 40.9327 37.1633C40.9539 37.19 40.9637 37.224 40.9602 37.2579C40.887 37.7234 40.7752 38.182 40.626 38.6289C40.4105 39.3392 40.2071 40.01 40.3021 40.7035C40.4217 41.5766 41.0038 42.3191 41.517 42.9741C41.5276 42.9876 41.5354 43.003 41.54 43.0195C41.5447 43.036 41.546 43.0533 41.5439 43.0703C41.5419 43.0873 41.5365 43.1037 41.5281 43.1186C41.5197 43.1336 41.5084 43.1467 41.4949 43.1573C41.4788 43.17 41.4599 43.1788 41.4398 43.1827Z" fill="#FFFAFA"/>
<path d="M41.4086 54.6311C41.3673 54.5369 41.3057 54.453 41.2281 54.3855C41.1505 54.318 41.0588 54.2685 40.9598 54.2407C40.8608 54.2129 40.7568 54.2074 40.6554 54.2247C40.554 54.2419 40.4576 54.2814 40.3734 54.3404L41.1113 53.8235C41.2631 53.7218 41.3706 53.5662 41.412 53.3883C41.4535 53.2103 41.4258 53.0232 41.3345 52.8649C41.2846 52.7848 41.2189 52.7158 41.1415 52.6619C41.064 52.6081 40.9764 52.5706 40.884 52.5517C40.7915 52.5328 40.6962 52.533 40.6039 52.5522C40.5115 52.5714 40.424 52.6092 40.3467 52.6633L40.6806 52.4291C40.8166 52.3374 40.9168 52.2015 40.9641 52.0444C41.0114 51.8874 41.003 51.7188 40.9403 51.5672C40.899 51.473 40.8373 51.3891 40.7597 51.3216C40.6821 51.2541 40.5905 51.2047 40.4914 51.1768C40.3924 51.149 40.2884 51.1436 40.187 51.1608C40.0856 51.178 39.9892 51.2175 39.9049 51.2765L39.3194 51.6864C39.4703 51.5807 39.573 51.4194 39.605 51.238C39.637 51.0566 39.5956 50.87 39.4899 50.7191C39.2789 50.371 38.7819 50.4363 38.4853 50.644L37.2831 51.4235L37.5994 50.948C37.6976 50.7939 37.7337 50.6083 37.7003 50.4286C37.6668 50.249 37.5664 50.0887 37.4194 49.9803C37.3415 49.9269 37.2536 49.89 37.1611 49.8718C37.0685 49.8535 36.9732 49.8543 36.8809 49.8741C36.7887 49.8939 36.7014 49.9323 36.6245 49.987C36.5476 50.0416 36.4826 50.1114 36.4335 50.1919L32.7739 56.1561L34.656 57.377C35.2405 57.7561 35.9249 57.952 36.6216 57.9397C37.3182 57.9273 37.9952 57.7073 38.566 57.3077L41.1479 55.4926C41.284 55.4011 41.3843 55.2653 41.4318 55.1083C41.4793 54.9514 41.4711 54.7828 41.4086 54.6311Z" fill="#E98862"/>
<path d="M38.5886 52.2076C38.5737 52.2106 38.5582 52.2082 38.5448 52.201C38.5314 52.1937 38.521 52.182 38.5154 52.1678C38.5097 52.1537 38.5092 52.138 38.5139 52.1236C38.5187 52.1091 38.5283 52.0967 38.5412 52.0886L39.3564 51.5707C39.371 51.5617 39.3885 51.5589 39.4053 51.5627C39.422 51.5666 39.4365 51.5769 39.4457 51.5913C39.4549 51.6058 39.458 51.6233 39.4544 51.6401C39.4508 51.6569 39.4407 51.6715 39.4263 51.6809L38.6111 52.1987C38.6043 52.2031 38.5966 52.2061 38.5886 52.2076Z" fill="#E98862"/>
<path d="M39.3227 53.3602C39.3078 53.363 39.2924 53.3606 39.2791 53.3534C39.2659 53.3461 39.2555 53.3345 39.2498 53.3204C39.2442 53.3064 39.2436 53.2908 39.2481 53.2764C39.2527 53.262 39.2621 53.2496 39.2748 53.2413L40.3873 52.5221C40.4019 52.5128 40.4195 52.5095 40.4364 52.5132C40.4533 52.5168 40.4681 52.527 40.4774 52.5415C40.4868 52.5561 40.49 52.5737 40.4864 52.5906C40.4828 52.6075 40.4726 52.6223 40.458 52.6316L39.3455 53.351C39.3385 53.3554 39.3308 53.3585 39.3227 53.3602Z" fill="#E98862"/>
<path d="M40.1107 54.6129C40.0957 54.6157 40.0802 54.6132 40.0668 54.6058C40.0535 54.5984 40.0431 54.5866 40.0376 54.5724C40.0321 54.5581 40.0317 54.5424 40.0366 54.5279C40.0415 54.5135 40.0513 54.5012 40.0643 54.4932L40.5978 54.1658C40.6051 54.161 40.6134 54.1577 40.622 54.1561C40.6306 54.1545 40.6394 54.1547 40.648 54.1566C40.6565 54.1585 40.6646 54.1621 40.6717 54.1672C40.6789 54.1723 40.6849 54.1787 40.6895 54.1862C40.6941 54.1937 40.6971 54.202 40.6984 54.2106C40.6997 54.2193 40.6992 54.2281 40.697 54.2366C40.6949 54.2451 40.691 54.2531 40.6857 54.26C40.6803 54.267 40.6737 54.2728 40.6661 54.2771L40.1325 54.6044C40.1258 54.6085 40.1184 54.6114 40.1107 54.6129Z" fill="#E98862"/>
<path opacity="0.17" d="M38.5886 52.2076C38.5737 52.2106 38.5582 52.2082 38.5448 52.201C38.5314 52.1937 38.521 52.182 38.5154 52.1678C38.5097 52.1537 38.5092 52.138 38.5139 52.1236C38.5187 52.1091 38.5283 52.0967 38.5412 52.0886L39.3564 51.5707C39.371 51.5617 39.3885 51.5589 39.4053 51.5627C39.422 51.5666 39.4365 51.5769 39.4457 51.5913C39.4549 51.6058 39.458 51.6233 39.4544 51.6401C39.4508 51.6569 39.4407 51.6715 39.4263 51.6809L38.6111 52.1987C38.6043 52.2031 38.5966 52.2061 38.5886 52.2076Z" fill="#0C0C0C"/>
<path opacity="0.17" d="M39.3227 53.3602C39.3078 53.363 39.2924 53.3606 39.2791 53.3534C39.2659 53.3461 39.2555 53.3345 39.2498 53.3204C39.2442 53.3064 39.2436 53.2908 39.2481 53.2764C39.2527 53.262 39.2621 53.2496 39.2748 53.2413L40.3873 52.5221C40.4019 52.5128 40.4195 52.5095 40.4364 52.5132C40.4533 52.5168 40.4681 52.527 40.4774 52.5415C40.4868 52.5561 40.49 52.5737 40.4864 52.5906C40.4828 52.6075 40.4726 52.6223 40.458 52.6316L39.3455 53.351C39.3385 53.3554 39.3308 53.3585 39.3227 53.3602Z" fill="#0C0C0C"/>
<path opacity="0.17" d="M40.1107 54.6129C40.0957 54.6157 40.0802 54.6132 40.0668 54.6058C40.0535 54.5984 40.0431 54.5866 40.0376 54.5724C40.0321 54.5581 40.0317 54.5424 40.0366 54.5279C40.0415 54.5135 40.0513 54.5012 40.0643 54.4932L40.5978 54.1658C40.6051 54.161 40.6134 54.1577 40.622 54.1561C40.6306 54.1545 40.6394 54.1547 40.648 54.1566C40.6565 54.1585 40.6646 54.1621 40.6717 54.1672C40.6789 54.1723 40.6849 54.1787 40.6895 54.1862C40.6941 54.1937 40.6971 54.202 40.6984 54.2106C40.6997 54.2193 40.6992 54.2281 40.697 54.2366C40.6949 54.2451 40.691 54.2531 40.6857 54.26C40.6803 54.267 40.6737 54.2728 40.6661 54.2771L40.1325 54.6044C40.1258 54.6085 40.1184 54.6114 40.1107 54.6129Z" fill="#0C0C0C"/>
<path d="M15.3594 74.815C14.5843 74.9652 13.7843 74.9256 13.0278 74.6997C12.2712 74.4738 11.5806 74.0681 11.0148 73.5174C10.449 72.9668 10.0248 72.2874 9.77849 71.5372C9.53215 70.7871 9.47095 69.9885 9.60011 69.2096L13.0987 48.1135C13.3167 46.8383 14.0308 45.7012 15.0849 44.951C16.139 44.2008 17.4472 43.8985 18.7236 44.1102C19.9999 44.3219 21.1405 45.0303 21.896 46.0807C22.6514 47.131 22.9603 48.4377 22.7549 49.7151L21.0818 59.8033L33.9559 51.5134L39.0956 59.5861L17.1089 74.1047C16.5775 74.453 15.9832 74.6942 15.3594 74.815Z" fill="#367CFF"/>
<path d="M19.8671 72.3569C19.8523 72.3597 19.837 72.3574 19.8237 72.3502C19.8104 72.343 19.8001 72.3314 19.7944 72.3174C19.7887 72.3034 19.788 72.2879 19.7925 72.2735C19.7969 72.2591 19.8062 72.2467 19.8188 72.2383L39.0057 59.5669L33.8787 51.6393L20.929 59.7505C20.9183 59.7572 20.9058 59.7607 20.8931 59.7605C20.8805 59.7603 20.8681 59.7564 20.8576 59.7493C20.8471 59.7422 20.839 59.7321 20.8341 59.7204C20.8292 59.7087 20.8278 59.6959 20.8302 59.6834L21.9185 53.7101C21.9221 53.6936 21.932 53.6791 21.9461 53.6697C21.9602 53.6603 21.9774 53.6568 21.994 53.6598C22.0107 53.6629 22.0255 53.6722 22.0354 53.686C22.0452 53.6998 22.0494 53.7168 22.0469 53.7336L20.985 59.5613L33.8639 51.4957C33.8785 51.4866 33.896 51.4837 33.9127 51.4874C33.9294 51.4911 33.944 51.5012 33.9533 51.5156L39.1499 59.552C39.1593 59.5664 39.1625 59.5839 39.159 59.6007C39.1555 59.6176 39.1455 59.6323 39.1312 59.6418L19.8907 72.3477C19.8835 72.3523 19.8755 72.3554 19.8671 72.3569Z" fill="#0C0C0C"/>
<path d="M51.2954 54.949C51.288 54.9503 51.2805 54.9503 51.2731 54.949C51.256 54.9463 51.2407 54.937 51.2304 54.923C51.2202 54.9091 51.2159 54.8916 51.2185 54.8745L52.0484 49.4876C52.0516 49.4711 52.0611 49.4564 52.0749 49.4467C52.0887 49.437 52.1057 49.433 52.1223 49.4356C52.139 49.4381 52.154 49.447 52.1643 49.4604C52.1745 49.4738 52.1792 49.4906 52.1773 49.5074L51.3475 54.8943C51.3455 54.9077 51.3395 54.9201 51.3302 54.9299C51.3208 54.9398 51.3087 54.9464 51.2954 54.949Z" fill="#0C0C0C"/>
<path d="M56.8887 35.5634L56.9367 34.2581C56.9492 34.0725 56.8907 33.8891 56.773 33.7449C56.6554 33.6007 56.4874 33.5066 56.303 33.4816C56.2074 33.472 56.1109 33.4819 56.0193 33.5108C55.9276 33.5397 55.8429 33.587 55.7701 33.6498C55.6974 33.7126 55.6382 33.7895 55.5961 33.8759C55.5541 33.9623 55.5301 34.0563 55.5256 34.1523L55.4009 36.8311" fill="#E98862"/>
<path d="M61.6489 37.2037L58.1367 34.203L60.058 20.4802L64.0308 23.7488L61.6489 37.2037Z" fill="#0CBC8B"/>
<path d="M59.7736 23.5252L60.2404 20.884C60.2404 20.884 60.7586 22.898 63.4876 23.9597L63.39 26.1206L59.6484 24.7528L59.7736 23.5252Z" fill="#0CBC8B"/>
<path opacity="0.49" d="M59.7736 23.5252L60.2404 20.884C60.2404 20.884 60.7586 22.898 63.4876 23.9597L63.39 26.1206L59.6484 24.7528L59.7736 23.5252Z" fill="white"/>
<path d="M62.8504 24.2068C62.8504 24.2068 58.103 22.2172 54.3115 23.0047L62.5394 24.8052L62.8504 24.2068Z" fill="#0CBC8B"/>
<path opacity="0.81" d="M62.8504 24.2068C62.8504 24.2068 58.103 22.2172 54.3115 23.0047L62.5394 24.8052L62.8504 24.2068Z" fill="white"/>
<path d="M64.0307 23.7488L62.6275 24.2935L60.3438 37.6087L61.6487 37.2037L64.0307 23.7488Z" fill="#0CBC8B"/>
<path opacity="0.25" d="M64.0307 23.7488L62.6275 24.2935L60.3438 37.6087L61.6487 37.2037L64.0307 23.7488Z" fill="white"/>
<path d="M53.8514 22.6838L62.6274 24.2935L60.3437 37.6087L51.752 36.1272L53.8514 22.6838Z" fill="#0CBC8B"/>
</svg>
