<svg width="168" height="157" viewBox="0 0 168 157" fill="none" xmlns="http://www.w3.org/2000/svg">
<g clip-path="url(#clip0_245_189)">
<path d="M144.026 28.8639H141.91C141.868 28.8638 141.826 28.8721 141.788 28.8882C141.749 28.9043 141.713 28.9279 141.684 28.9576C141.654 28.9874 141.631 29.0227 141.614 29.0616C141.598 29.1004 141.59 29.1421 141.59 29.1842V42.8653H115.147V0.320294C115.147 0.278222 115.139 0.236556 115.123 0.197679C115.107 0.158802 115.083 0.123479 115.053 0.0937295C115.024 0.0639801 114.988 0.0403888 114.95 0.0243056C114.911 0.00822248 114.869 -3.6895e-05 114.827 1.2389e-07H112.711C112.626 1.2389e-07 112.545 0.0337453 112.485 0.093812C112.425 0.153879 112.392 0.235347 112.392 0.320294V12.8582H81.5715V0.320294C81.5716 0.278222 81.5633 0.236556 81.5473 0.197679C81.5312 0.158802 81.5077 0.123479 81.478 0.0937295C81.4483 0.0639801 81.4131 0.0403888 81.3743 0.0243056C81.3355 0.00822248 81.2939 -3.6895e-05 81.2519 1.2389e-07H79.1358C79.0938 1.07628e-07 79.0523 0.00828679 79.0135 0.0243865C78.9748 0.0404862 78.9395 0.0640834 78.9099 0.0938291C78.8802 0.123575 78.8567 0.158886 78.8407 0.197744C78.8246 0.236602 78.8164 0.278246 78.8164 0.320294V37.2807H48.507V19.0631C48.507 19.0211 48.4987 18.9794 48.4827 18.9405C48.4666 18.9017 48.443 18.8664 48.4134 18.8366C48.3837 18.8069 48.3484 18.7833 48.3097 18.7672C48.2709 18.7511 48.2293 18.7428 48.1873 18.7428H46.0713C45.9865 18.7429 45.9053 18.7767 45.8454 18.8367C45.7855 18.8968 45.7519 18.9782 45.7519 19.0631V58.3351H22.7417V52.6366C22.7418 52.5945 22.7335 52.5529 22.7175 52.514C22.7015 52.4751 22.678 52.4398 22.6483 52.4101C22.6186 52.3803 22.5834 52.3567 22.5447 52.3406C22.5059 52.3245 22.4644 52.3163 22.4224 52.3163H20.3074C20.2654 52.3162 20.2239 52.3245 20.1851 52.3406C20.1463 52.3567 20.111 52.3802 20.0813 52.41C20.0516 52.4397 20.0281 52.4751 20.012 52.5139C19.996 52.5528 19.9878 52.5945 19.9878 52.6366V67.1148H22.7429V61.0959H45.7539V67.1148H48.507V40.0418H78.8164V67.1148H81.5715V15.6207H112.392V67.1148H115.147V45.6267H141.59V67.1148H144.345V29.1842C144.345 29.1421 144.337 29.1005 144.321 29.0616C144.305 29.0228 144.282 28.9875 144.252 28.9577C144.222 28.928 144.187 28.9044 144.148 28.8883C144.109 28.8722 144.068 28.8639 144.026 28.8639Z" fill="#DEE8F5"/>
<path d="M14.8735 66.8838H149.458V156.039C149.458 156.294 149.357 156.539 149.177 156.719C148.998 156.899 148.754 157 148.5 157H15.8322C15.5779 157 15.3341 156.899 15.1543 156.719C14.9745 156.539 14.8735 156.294 14.8735 156.039V66.8838Z" fill="#F3F5FD"/>
<path d="M39.5078 101.041H25.1923C24.9275 101.041 24.7129 101.256 24.7129 101.521V115.866C24.7129 116.131 24.9275 116.347 25.1923 116.347H39.5078C39.7726 116.347 39.9873 116.131 39.9873 115.866V101.521C39.9873 101.256 39.7726 101.041 39.5078 101.041Z" fill="#DEE8F5"/>
<path d="M64.4155 101.041H50.1001C49.8353 101.041 49.6206 101.256 49.6206 101.521V115.866C49.6206 116.131 49.8353 116.347 50.1001 116.347H64.4155C64.6803 116.347 64.895 116.131 64.895 115.866V101.521C64.895 101.256 64.6803 101.041 64.4155 101.041Z" fill="#DEE8F5"/>
<path d="M89.3233 101.041H75.0078C74.743 101.041 74.5283 101.256 74.5283 101.521V115.866C74.5283 116.131 74.743 116.347 75.0078 116.347H89.3233C89.588 116.347 89.8027 116.131 89.8027 115.866V101.521C89.8027 101.256 89.588 101.041 89.3233 101.041Z" fill="#DEE8F5"/>
<path d="M114.231 101.041H99.916C99.6512 101.041 99.4365 101.256 99.4365 101.521V115.866C99.4365 116.131 99.6512 116.347 99.916 116.347H114.231C114.496 116.347 114.711 116.131 114.711 115.866V101.521C114.711 101.256 114.496 101.041 114.231 101.041Z" fill="#DEE8F5"/>
<path d="M139.14 101.041H124.824C124.559 101.041 124.345 101.256 124.345 101.521V115.866C124.345 116.131 124.559 116.347 124.824 116.347H139.14C139.404 116.347 139.619 116.131 139.619 115.866V101.521C139.619 101.256 139.404 101.041 139.14 101.041Z" fill="#DEE8F5"/>
<path d="M39.5078 76.7612H25.1923C24.9275 76.7612 24.7129 76.9763 24.7129 77.2417V91.5868C24.7129 91.8521 24.9275 92.0672 25.1923 92.0672H39.5078C39.7726 92.0672 39.9873 91.8521 39.9873 91.5868V77.2417C39.9873 76.9763 39.7726 76.7612 39.5078 76.7612Z" fill="#DEE8F5"/>
<path d="M64.4155 76.7612H50.1001C49.8353 76.7612 49.6206 76.9763 49.6206 77.2417V91.5868C49.6206 91.8521 49.8353 92.0672 50.1001 92.0672H64.4155C64.6803 92.0672 64.895 91.8521 64.895 91.5868V77.2417C64.895 76.9763 64.6803 76.7612 64.4155 76.7612Z" fill="#DEE8F5"/>
<path d="M89.3233 76.7612H75.0078C74.743 76.7612 74.5283 76.9763 74.5283 77.2417V91.5868C74.5283 91.8521 74.743 92.0672 75.0078 92.0672H89.3233C89.588 92.0672 89.8027 91.8521 89.8027 91.5868V77.2417C89.8027 76.9763 89.588 76.7612 89.3233 76.7612Z" fill="#DEE8F5"/>
<path d="M114.231 76.7612H99.916C99.6512 76.7612 99.4365 76.9763 99.4365 77.2417V91.5868C99.4365 91.8521 99.6512 92.0672 99.916 92.0672H114.231C114.496 92.0672 114.711 91.8521 114.711 91.5868V77.2417C114.711 76.9763 114.496 76.7612 114.231 76.7612Z" fill="#DEE8F5"/>
<path d="M139.14 76.7612H124.824C124.559 76.7612 124.345 76.9763 124.345 77.2417V91.5868C124.345 91.8521 124.559 92.0672 124.824 92.0672H139.14C139.404 92.0672 139.619 91.8521 139.619 91.5868V77.2417C139.619 76.9763 139.404 76.7612 139.14 76.7612Z" fill="#DEE8F5"/>
<path d="M66.3835 125.32H85.3013V157H65.9043V125.8C65.9044 125.673 65.9549 125.551 66.0447 125.461C66.1346 125.371 66.2564 125.32 66.3835 125.32Z" fill="#FAFAFA"/>
<path d="M68.0229 126.963H83.6619V157H67.5435V127.442C67.544 127.315 67.5947 127.193 67.6846 127.103C67.7744 127.014 67.8961 126.963 68.0229 126.963Z" fill="#D7E8F4"/>
<path d="M81.6803 140.781C82.1498 140.781 82.5305 140.4 82.5305 139.929C82.5305 139.459 82.1498 139.077 81.6803 139.077C81.2107 139.077 80.8301 139.459 80.8301 139.929C80.8301 140.4 81.2107 140.781 81.6803 140.781Z" fill="#FAFAFA"/>
<path d="M103.059 157H83.6621V125.32H102.58C102.707 125.32 102.829 125.371 102.919 125.461C103.009 125.551 103.059 125.673 103.059 125.801V157Z" fill="#FAFAFA"/>
<path d="M101.419 156.999H85.301V126.963H100.94C101.067 126.963 101.189 127.013 101.279 127.103C101.369 127.193 101.419 127.316 101.419 127.443V156.999H101.419Z" fill="#D7E8F4"/>
<path d="M87.2828 140.781C87.7524 140.781 88.133 140.4 88.133 139.929C88.133 139.459 87.7524 139.077 87.2828 139.077C86.8133 139.077 86.4326 139.459 86.4326 139.929C86.4326 140.4 86.8133 140.781 87.2828 140.781Z" fill="#FAFAFA"/>
<path d="M134.719 153.955L140.576 153.257C140.313 151.036 140.014 148.367 139.994 147.929C139.995 147.958 139.995 147.981 139.995 147.999H134.097C134.097 148.176 134.097 148.715 134.719 153.955Z" fill="#E98862"/>
<path d="M158.222 154.661L164.12 154.642C164.12 154.642 164.1 148.539 164.1 147.999H158.202C158.202 148.541 158.222 154.661 158.222 154.661Z" fill="#E98862"/>
<path d="M151.051 156.948C150.893 156.947 150.736 156.913 150.591 156.849C150.446 156.785 150.315 156.691 150.208 156.574C150.1 156.458 150.018 156.32 149.966 156.169C149.914 156.019 149.894 155.86 149.906 155.702C149.923 155.482 150.003 155.272 150.135 155.096C150.267 154.92 150.447 154.785 150.653 154.708L157.518 152.404C157.651 152.36 157.792 152.345 157.932 152.361C158.071 152.376 158.205 152.422 158.325 152.494C159.269 153.15 160.398 153.486 161.546 153.451C162.44 153.387 163.299 153.073 164.024 152.544C164.087 152.492 164.164 152.459 164.246 152.449C164.328 152.439 164.411 152.452 164.485 152.487C164.56 152.523 164.623 152.579 164.666 152.649C164.71 152.718 164.734 152.799 164.733 152.882V156.246C164.733 156.345 164.714 156.443 164.676 156.535C164.638 156.627 164.582 156.71 164.512 156.78C164.442 156.85 164.358 156.905 164.267 156.943C164.175 156.981 164.077 157 163.978 157L151.051 156.948Z" fill="#C1D8ED"/>
<path d="M127.533 156.948C127.374 156.947 127.218 156.913 127.073 156.849C126.927 156.785 126.797 156.691 126.69 156.575C126.582 156.458 126.5 156.32 126.448 156.17C126.396 156.019 126.376 155.86 126.388 155.702C126.405 155.482 126.485 155.272 126.617 155.096C126.749 154.92 126.929 154.785 127.135 154.708L134 152.404C134.133 152.36 134.274 152.345 134.413 152.361C134.553 152.376 134.687 152.422 134.807 152.494C135.751 153.15 136.88 153.486 138.028 153.451C138.922 153.387 139.781 153.073 140.505 152.544C140.569 152.492 140.646 152.459 140.728 152.449C140.81 152.439 140.893 152.452 140.967 152.488C141.041 152.523 141.104 152.579 141.148 152.649C141.192 152.718 141.215 152.799 141.215 152.882V156.246C141.215 156.345 141.196 156.443 141.158 156.535C141.12 156.627 141.064 156.71 140.994 156.78C140.924 156.85 140.84 156.905 140.749 156.943C140.657 156.981 140.559 157 140.46 157L127.533 156.948Z" fill="#C1D8ED"/>
<path d="M142.936 152.089L132.543 151.911C133.032 139.518 133.061 126.519 133.214 114.096C135.242 100.706 136.31 86.0026 138.813 72.7087L138.888 72.7309L139.107 71.2308L160.475 69.908L161.307 83.8976H161.241C162.357 103.991 164.371 132.293 165.64 151.752L155.285 152.629C153.419 133.551 150.532 105.752 148.756 85.709C146.716 95.467 145.329 105.571 143.556 115.245C143.201 127.355 142.901 140.015 142.936 152.089Z" fill="#262626"/>
<path d="M151.727 35.9777C151.724 35.8989 151.724 35.8229 151.724 35.7413C151.722 35.229 151.744 34.6718 151.795 34.0638L151.368 33.985H151.365L147.306 33.2307C147.384 34.23 147.369 35.2345 147.261 36.231C147.247 36.3436 147.233 36.459 147.216 36.5744C147.214 36.5856 147.214 36.5941 147.211 36.6053C147.194 36.7292 147.174 36.8558 147.152 36.9797C147.129 37.1035 147.11 37.2217 147.082 37.3427C147.079 37.354 147.079 37.3624 147.076 37.3709C147.051 37.4947 147.023 37.6129 146.989 37.7312C146.958 37.855 146.924 37.976 146.885 38.097C146.854 38.2012 146.82 38.3025 146.781 38.4038C146.77 38.4348 146.759 38.4686 146.745 38.4995C146.708 38.6008 146.666 38.6993 146.621 38.795C146.573 38.9048 146.52 39.0118 146.464 39.1159C146.463 39.1159 146.462 39.1162 146.462 39.1167C146.461 39.1173 146.461 39.118 146.461 39.1187C146.249 39.5343 145.951 39.8999 145.587 40.1911H152.646C152.211 39.4368 151.761 38.1421 151.727 35.9805V35.9777Z" fill="#E98862"/>
<path opacity="0.15" d="M146.46 39.1202L150.188 36.2623L147.26 36.2319C147.175 37.2362 146.904 38.2157 146.46 39.1202Z" fill="black"/>
<path d="M154.339 31.7663C154.029 33.5642 153.049 35.267 151.467 35.8473C149.588 36.5369 148.196 36.5836 146.03 36.5836C143.073 36.5836 143.171 33.4941 143.088 30.3809C143.004 27.2551 143.253 23.9022 144.421 22.8129C146.752 20.639 153.598 22.0159 154.431 25.652C154.863 27.5332 154.636 30.0547 154.339 31.7663Z" fill="#E98862"/>
<path d="M151.585 35.6774C151.678 35.9763 151.743 36.1066 152.012 35.9465C153.067 35.3186 155.441 33.9516 156.25 28.8308C156.975 24.2431 154.15 22.3501 151.896 21.6748C149.955 21.0928 147.525 20.7973 145.399 22.0818C143.566 23.1888 143.296 25.9377 143.296 25.9377C144.106 25.9752 144.27 26.6729 146.181 26.6729C147.658 26.6729 148.619 26.0112 150.002 26.0695C151.268 26.1229 151.528 26.8964 151.483 27.3923C151.212 30.4002 151.255 34.6203 151.585 35.6774Z" fill="#0F1011"/>
<path d="M147.314 30.3811C147.538 30.3811 147.721 30.1985 147.721 29.9733C147.721 29.748 147.538 29.5654 147.314 29.5654C147.089 29.5654 146.907 29.748 146.907 29.9733C146.907 30.1985 147.089 30.3811 147.314 30.3811Z" fill="#0F1011"/>
<path d="M144.103 30.1172C144.328 30.1172 144.51 29.9346 144.51 29.7093C144.51 29.4841 144.328 29.3015 144.103 29.3015C143.878 29.3015 143.696 29.4841 143.696 29.7093C143.696 29.9346 143.878 30.1172 144.103 30.1172Z" fill="#0F1011"/>
<path d="M143.398 28.8405H143.4L144.478 28.827C144.503 28.8267 144.528 28.8214 144.551 28.8115C144.574 28.8015 144.595 28.7871 144.613 28.7691C144.63 28.7511 144.644 28.7297 144.653 28.7064C144.663 28.683 144.667 28.658 144.667 28.6328C144.668 28.6073 144.663 28.5819 144.654 28.5583C144.644 28.5346 144.63 28.5132 144.612 28.4954C144.594 28.4776 144.572 28.4638 144.548 28.455C144.524 28.4461 144.499 28.4424 144.473 28.444L143.395 28.4572C143.344 28.4575 143.296 28.478 143.26 28.5142C143.225 28.5504 143.205 28.5993 143.205 28.6501C143.205 28.701 143.226 28.7496 143.262 28.7853C143.298 28.821 143.347 28.8409 143.398 28.8405Z" fill="#0F1011"/>
<path d="M148.192 29.2343C148.239 29.2341 148.284 29.2168 148.319 29.1857C148.354 29.1545 148.376 29.1115 148.382 29.065C148.387 29.0184 148.375 28.9715 148.349 28.933C148.322 28.8946 148.282 28.8673 148.237 28.8563L147.174 28.5999C147.149 28.5933 147.123 28.5918 147.098 28.5954C147.073 28.5989 147.049 28.6075 147.027 28.6206C147.005 28.6337 146.986 28.6511 146.971 28.6716C146.956 28.6922 146.945 28.7156 146.939 28.7404C146.933 28.7652 146.932 28.791 146.936 28.8162C146.94 28.8414 146.949 28.8655 146.963 28.8871C146.976 28.9088 146.994 28.9275 147.015 28.9421C147.036 28.9568 147.06 28.9671 147.084 28.9725L148.147 29.2292C148.162 29.2325 148.177 29.2342 148.192 29.2343Z" fill="#0F1011"/>
<path d="M149.431 30.9712C149.409 31.1993 149.433 31.4294 149.5 31.6483C149.568 31.8671 149.678 32.0703 149.825 32.246C149.972 32.4217 150.152 32.5664 150.355 32.6718C150.558 32.7771 150.78 32.8409 151.008 32.8596C151.236 32.8782 151.465 32.8513 151.682 32.7804C151.9 32.7095 152.101 32.596 152.274 32.4464C152.447 32.2969 152.589 32.1144 152.692 31.9095C152.794 31.7045 152.854 31.4813 152.87 31.2527C152.892 31.0257 152.869 30.7964 152.801 30.5787C152.733 30.3609 152.622 30.159 152.475 29.985C152.328 29.8111 152.147 29.6686 151.944 29.5661C151.74 29.4636 151.518 29.4031 151.291 29.3883C150.062 29.3492 149.509 30.0196 149.431 30.9712Z" fill="#E98862"/>
<g opacity="0.15">
<path d="M145.507 32.2355C145.54 32.2356 145.573 32.2235 145.599 32.2015C145.624 32.1795 145.641 32.1491 145.646 32.1157C145.651 32.0824 145.644 32.0484 145.626 32.0198C145.608 31.9913 145.58 31.9702 145.548 31.9603L144.72 31.7056L145.299 30.4137C145.307 30.3968 145.311 30.3787 145.312 30.3602C145.312 30.3417 145.309 30.3233 145.303 30.306C145.296 30.2887 145.286 30.2729 145.274 30.2594C145.261 30.246 145.246 30.2351 145.229 30.2275C145.212 30.2199 145.194 30.2157 145.176 30.2152C145.157 30.2146 145.139 30.2177 145.121 30.2242C145.104 30.2308 145.088 30.2406 145.075 30.2533C145.062 30.266 145.051 30.2812 145.043 30.298L144.399 31.7354C144.391 31.7536 144.387 31.7733 144.387 31.7933C144.387 31.8132 144.391 31.833 144.399 31.8511C144.407 31.8693 144.419 31.8855 144.434 31.8987C144.449 31.9119 144.467 31.9218 144.486 31.9276L145.466 32.2294C145.479 32.2335 145.493 32.2356 145.507 32.2355Z" fill="black"/>
</g>
<path d="M147.125 33.1851C147.125 33.1851 145.623 33.3441 144.569 32.9751C144.569 32.9751 144.578 33.9667 145.766 34.0643C146.955 34.162 147.125 33.1851 147.125 33.1851Z" fill="#F8FCFF"/>
<path d="M156.595 28.2457C156.691 27.2933 156.597 26.3313 156.318 25.4158C156.039 24.5003 155.581 23.6496 154.97 22.9135C154.36 22.1774 153.609 21.5705 152.762 21.1285C151.915 20.6864 150.988 20.4179 150.036 20.3387C149.084 20.2595 148.126 20.3711 147.217 20.6671C146.309 20.9631 145.468 21.4376 144.745 22.0627C144.022 22.6878 143.43 23.4511 143.004 24.308C142.578 25.1649 142.327 26.0982 142.266 27.0534" fill="#0CBC8B"/>
<path opacity="0.22" d="M145.489 27.3909C145.489 27.3909 145.373 22.3852 150.891 20.5963C150.891 20.5963 150.279 20.4913 150.073 20.4742C149.765 20.4419 149.455 20.4342 149.146 20.4511C149.146 20.4511 143.699 21.712 143.318 27.141L145.489 27.3909Z" fill="white"/>
<path d="M141.809 27.4498L156.979 28.7119L157.039 27.9888L141.869 26.7267L141.809 27.4498Z" fill="#0CBC8B"/>
<path opacity="0.09" d="M141.809 27.4498L156.979 28.7119L157.039 27.9888L141.869 26.7267L141.809 27.4498Z" fill="black"/>
<path opacity="0.63" d="M151.677 21.426C150.846 21.3637 150.016 21.5521 149.292 21.9669C147.463 23.0393 147.354 24.3621 147.354 24.3621C147.354 24.3621 149.189 21.525 151.677 21.426Z" fill="white"/>
<path d="M144.472 26.2703C145.063 26.2703 145.542 25.7904 145.542 25.1983C145.542 24.6062 145.063 24.1262 144.472 24.1262C143.881 24.1262 143.402 24.6062 143.402 25.1983C143.402 25.7904 143.881 26.2703 144.472 26.2703Z" fill="#0CBC8B"/>
<path opacity="0.09" d="M144.472 26.2703C145.063 26.2703 145.542 25.7904 145.542 25.1983C145.542 24.6062 145.063 24.1262 144.472 24.1262C143.881 24.1262 143.402 24.6062 143.402 25.1983C143.402 25.7904 143.881 26.2703 144.472 26.2703Z" fill="black"/>
<path d="M143.945 26.2264C144.536 26.2264 145.015 25.7464 145.015 25.1543C145.015 24.5623 144.536 24.0823 143.945 24.0823C143.354 24.0823 142.875 24.5623 142.875 25.1543C142.875 25.7464 143.354 26.2264 143.945 26.2264Z" fill="#0CBC8B"/>
<path opacity="0.13" d="M143.945 26.2264C144.536 26.2264 145.015 25.7464 145.015 25.1543C145.015 24.5623 144.536 24.0823 143.945 24.0823C143.354 24.0823 142.875 24.5623 142.875 25.1543C142.875 25.7464 143.354 26.2264 143.945 26.2264Z" fill="white"/>
<path opacity="0.36" d="M143.945 25.7164C144.255 25.7164 144.506 25.4648 144.506 25.1543C144.506 24.8439 144.255 24.5923 143.945 24.5923C143.635 24.5923 143.384 24.8439 143.384 25.1543C143.384 25.4648 143.635 25.7164 143.945 25.7164Z" fill="white"/>
<path d="M119.205 47.8636C118.585 47.3007 116.811 45.0871 116.185 45.4797C115.809 45.715 116.784 47.6531 116.784 47.6531" fill="#E5A5A0"/>
<path d="M113.212 46.147C112.398 47.0462 113.416 48.498 114.295 49.3161C116.83 51.6759 119.131 53.127 119.946 52.2278C120.761 51.3285 119.149 48.7614 116.421 46.6297C115.292 45.7479 114.027 45.248 113.212 46.147Z" fill="#E5A5A0"/>
<path d="M130.149 63.2812C130.652 63.2814 131.148 63.1572 131.591 62.9197C132.035 62.6823 132.414 62.3389 132.694 61.9198L143.714 45.4174L139.144 41.4514L129.52 55.6384L118.893 46.5423L114.916 51.2086L128.161 62.5458C128.715 63.0203 129.42 63.281 130.149 63.2812Z" fill="#367CFF"/>
<path d="M137.402 72.1729C138.579 74.8833 161.704 76.0091 162.012 71.2413C162.209 68.2072 159.541 65.5587 159.541 59.6454C159.541 53.732 164.97 46.1807 160.546 41.7478C159.263 40.4615 157.047 39.6312 154.345 39.6284C154.142 41.2074 151.463 43.8896 148.008 43.6616C145.416 43.49 144.576 41.213 144.503 39.665C144.138 39.6706 143.854 39.6763 143.677 39.6847C134.358 40.0872 138.453 50.7149 138.543 58.5224C138.653 67.6584 136.19 69.3808 137.402 72.1729Z" fill="#367CFF"/>
<path d="M144.503 39.665C144.576 41.213 145.416 43.49 148.009 43.6616C151.463 43.8896 154.143 41.2074 154.345 39.6284H154.337C150.935 39.6287 146.486 39.634 144.503 39.665Z" fill="#E98862"/>
<path d="M145.278 39.6287L144.569 75.7842C144.569 75.7842 137.032 75.8554 135.691 74.5123L137.739 55.9969C137.739 55.9969 141.922 52.0504 141.348 39.9597C141.348 39.9594 143.586 39.336 145.278 39.6287Z" fill="#0CBC8B"/>
<path d="M152.806 39.6287L151.677 75.6139C151.677 75.6139 162.157 76.3263 163.498 74.9829L160.345 55.8263C160.345 55.8263 156.155 51.8455 156.728 39.7553C155.43 39.5636 154.114 39.5211 152.806 39.6287Z" fill="#0CBC8B"/>
<path d="M137.234 60.5723L144.862 60.803L144.885 59.6772L142.834 59.6153L143.857 39.5618C143.479 39.5809 143.102 39.6194 142.728 39.6772L141.714 59.5815L137.357 59.4493L137.234 60.5723Z" fill="white"/>
<path d="M136.749 64.9517L144.776 65.2219L144.799 64.0961L136.873 63.8315L136.749 64.9517Z" fill="white"/>
<path d="M152.148 60.5778L160.895 60.8115L160.771 59.6828L155.114 59.5308L155.589 39.6236C155.269 39.6011 154.893 39.5814 154.466 39.5786L153.991 59.4999L152.185 59.452L152.148 60.5778Z" fill="white"/>
<path d="M151.989 65.7059H161.438L161.314 64.5801H152.023L151.989 65.7059Z" fill="white"/>
<path d="M166.616 68.2808C166.616 68.2808 153.581 52.5402 151.302 48.948L147.325 52.5295C147.325 52.5295 159.437 66.813 163.259 71.5391C163.259 71.5386 166.493 71.4826 166.616 68.2808Z" fill="#DEE8F5"/>
<path d="M150.4 51.8238C151.484 50.7889 151.865 49.4263 151.251 48.7804C150.636 48.1346 149.26 48.4501 148.176 49.4851C147.092 50.5201 146.711 51.8827 147.325 52.5285C147.939 53.1743 149.316 52.8588 150.4 51.8238Z" fill="#C1D8ED"/>
<path d="M147.492 52.6655C147.492 52.6655 147.623 51.137 148.95 50.7041L150.096 52.0877C150.096 52.0877 148.655 53.4162 147.492 52.6655Z" fill="#F3F5FD"/>
<path d="M165.703 66.6017C165.703 66.6017 149.497 55.3404 146.337 52.4963L143.47 57.019C143.47 57.019 158.394 67.1268 163.346 70.645C163.346 70.645 166.445 69.719 165.703 66.6017Z" fill="#DEE8F5"/>
<path opacity="0.23" d="M165.703 66.6017C165.703 66.6017 149.497 55.3404 146.337 52.4963L143.47 57.019C143.47 57.019 158.394 67.1268 163.346 70.645C163.346 70.645 166.445 69.719 165.703 66.6017Z" fill="white"/>
<path d="M146.241 55.5102C147.007 54.2208 147.007 52.8058 146.242 52.3497C145.477 51.8935 144.236 52.5689 143.471 53.8583C142.705 55.1476 142.705 56.5627 143.47 57.0188C144.235 57.475 145.476 56.7995 146.241 55.5102Z" fill="#C1D8ED"/>
<path d="M143.666 57.107C143.666 57.107 143.381 55.5996 144.542 54.8245L146.019 55.8475C146.019 55.8475 144.988 57.5146 143.666 57.107Z" fill="#F3F5FD"/>
<path d="M148.817 59.821C146.775 59.821 145.278 56.5905 145.278 59.8945C145.278 63.1984 150.635 63.4408 150.635 63.4408L150.455 59.7853C150.455 59.7853 149.283 58.4078 148.806 58.4078C148.33 58.4078 148.817 59.821 148.817 59.821Z" fill="#E98862"/>
<path d="M150.676 65.072L165.072 64.4404C165.551 64.4196 166.018 64.2862 166.437 64.0511C166.855 63.816 167.212 63.4857 167.48 63.0869C167.747 62.6881 167.918 62.2319 167.977 61.755C168.036 61.2782 167.983 60.7941 167.821 60.3416L161.788 43.5828L157.828 50.5673L160.656 58.4913L150.407 58.9417L150.676 65.072Z" fill="#367CFF"/>
<path d="M117.894 55.2015C117.703 55.254 117.499 55.2283 117.327 55.13C117.155 55.0318 117.029 54.869 116.977 54.6776L113.305 41.2552L114.745 40.8597L118.416 54.2821C118.469 54.4734 118.443 54.6777 118.345 54.8501C118.247 55.0225 118.085 55.1489 117.894 55.2015Z" fill="#9EBCEA"/>
<path d="M109.705 39.3573L110.28 39.1994C110.337 39.1839 110.396 39.1797 110.454 39.187C110.512 39.1943 110.569 39.2131 110.62 39.2422C110.671 39.2713 110.715 39.3102 110.751 39.3567C110.787 39.4031 110.814 39.4562 110.829 39.513L110.872 39.6678L111.744 39.428L111.585 38.8468L114.832 37.9551C114.832 37.9551 116.576 37.746 118.006 39.5946C118.006 39.5946 116.377 39.3514 115.368 39.9177L115.677 41.0477L112.431 41.9397L112.272 41.3584L111.399 41.598L111.441 41.753C111.457 41.8097 111.461 41.869 111.454 41.9273C111.446 41.9857 111.428 42.042 111.399 42.0931C111.37 42.1442 111.331 42.1891 111.284 42.2251C111.238 42.2612 111.185 42.2877 111.128 42.3033L110.553 42.4612C110.497 42.4767 110.438 42.4809 110.379 42.4736C110.321 42.4663 110.265 42.4475 110.214 42.4184C110.163 42.3893 110.118 42.3504 110.082 42.3039C110.046 42.2575 110.02 42.2044 110.004 42.1476L109.391 39.9076C109.376 39.8508 109.372 39.7915 109.379 39.7331C109.386 39.6748 109.405 39.6184 109.434 39.5673C109.464 39.5162 109.502 39.4714 109.549 39.4353C109.595 39.3993 109.648 39.3728 109.705 39.3573Z" fill="#367CFF"/>
<path d="M11.6432 29.5923C11.6 25.5019 13.495 22.9666 15.6824 21.5753C17.8407 20.2021 22.7427 19.2266 25.3088 24.2117C26.9831 27.4648 27.0648 28.4076 27.5392 33.6176C28.0136 38.8276 29.8359 39.3745 31.6834 45.6894C33.133 50.643 25.0139 53.2729 17.9817 53.0455C10.9495 52.8181 6.494 51.2585 6.08477 46.777C5.49915 40.3455 11.7258 37.6081 11.6432 29.5923Z" fill="#0F1011"/>
<path d="M15.7793 40.1686C16.3009 39.2221 16.8278 37.4368 16.5343 34.2128L20.9128 33.3572C20.9128 33.3572 20.471 38.5264 22.6823 40.1683L15.7793 40.1686Z" fill="#E98862"/>
<path opacity="0.15" d="M21.7918 39.1063L18.123 36.348L20.9843 36.2917C21.0763 37.2721 21.3501 38.2267 21.7918 39.1063Z" fill="black"/>
<path d="M14.0247 31.9897C14.3446 33.7443 15.3167 35.3995 16.8688 35.9529C18.561 36.6081 20.3876 36.8384 22.189 36.6236C26.9866 36.1851 25.9367 25.2543 23.6378 23.1504C21.3388 21.0466 14.6617 22.4535 13.8806 26.0151C13.4767 27.8572 13.7205 30.3196 14.0247 31.9897Z" fill="#E98862"/>
<path d="M20.8762 30.5727C21.0959 30.5727 21.2739 30.3943 21.2739 30.1742C21.2739 29.9541 21.0959 29.7756 20.8762 29.7756C20.6566 29.7756 20.4785 29.9541 20.4785 30.1742C20.4785 30.3943 20.6566 30.5727 20.8762 30.5727Z" fill="#0F1011"/>
<path d="M24.012 30.2858C24.2316 30.2858 24.4097 30.1074 24.4097 29.8873C24.4097 29.6672 24.2316 29.4888 24.012 29.4888C23.7923 29.4888 23.6143 29.6672 23.6143 29.8873C23.6143 30.1074 23.7923 30.2858 24.012 30.2858Z" fill="#0F1011"/>
<path d="M24.6918 29.0318L23.638 29.0281C23.5884 29.0281 23.5409 29.0084 23.5059 28.9733C23.4708 28.9382 23.4512 28.8906 23.4512 28.841C23.4512 28.7913 23.4708 28.7437 23.5059 28.7086C23.5409 28.6735 23.5884 28.6538 23.638 28.6538L24.6921 28.6572C24.7404 28.6591 24.7861 28.6796 24.8196 28.7145C24.8532 28.7495 24.8719 28.796 24.8719 28.8445C24.8719 28.8929 24.8532 28.9395 24.8196 28.9744C24.7861 29.0094 24.7404 29.0299 24.6921 29.0318H24.6918Z" fill="#0F1011"/>
<path d="M20.0092 29.4598C19.9634 29.46 19.9193 29.4433 19.885 29.413C19.8507 29.3827 19.8287 29.3408 19.8232 29.2954C19.8176 29.2499 19.8289 29.2039 19.8549 29.1662C19.8809 29.1286 19.9198 29.1017 19.9642 29.0909L21.0009 28.8308C21.049 28.8187 21.0999 28.8263 21.1424 28.8519C21.1849 28.8774 21.2156 28.9188 21.2276 28.967C21.2396 29.0152 21.2321 29.0662 21.2066 29.1088C21.1811 29.1514 21.1397 29.1821 21.0917 29.1942L20.055 29.4542C20.04 29.4579 20.0246 29.4598 20.0092 29.4598Z" fill="#0F1011"/>
<path d="M21.0894 33.3115C21.0894 33.3115 22.5592 33.4522 23.5849 33.0833C23.5849 33.0833 23.5849 34.0526 22.4246 34.1587C21.2643 34.2648 21.0894 33.3115 21.0894 33.3115Z" fill="#F8FCFF"/>
<path d="M17.2137 27.4068C17.1092 35.3438 16.3458 38.4274 16.3458 38.4274C16.3458 38.4274 12.5953 33.887 12.0291 29.0759C11.4985 24.5667 14.7934 21.8707 17.0314 21.348C25.5365 19.3598 25.5385 25.7812 25.5385 25.7812C24.9885 27.9016 16.2925 29.0117 16.2925 29.0117" fill="#0F1011"/>
<path d="M18.8841 31.9105C18.9042 32.1315 18.8807 32.3543 18.8149 32.5662C18.7491 32.7781 18.6423 32.9749 18.5005 33.1454C18.3588 33.3159 18.185 33.4568 17.9889 33.56C17.7929 33.6632 17.5785 33.7267 17.3579 33.7469C17.1374 33.767 16.9151 33.7435 16.7036 33.6775C16.4922 33.6116 16.2958 33.5046 16.1256 33.3626C15.9554 33.2206 15.8148 33.0463 15.7119 32.8499C15.6089 32.6534 15.5455 32.4386 15.5254 32.2176C15.5013 31.9959 15.5219 31.7716 15.5862 31.5581C15.6504 31.3446 15.7569 31.1462 15.8994 30.9749C16.0418 30.8035 16.2172 30.6626 16.4151 30.5607C16.613 30.4587 16.8294 30.3977 17.0514 30.3814C18.2529 30.331 18.7992 30.9812 18.8841 31.9105Z" fill="#E98862"/>
<g opacity="0.15">
<path d="M22.6614 32.3689C22.6285 32.3691 22.5967 32.3575 22.5717 32.3361C22.5466 32.3148 22.5301 32.2851 22.5251 32.2526C22.52 32.22 22.5268 32.1868 22.5442 32.1588C22.5616 32.1309 22.5884 32.1102 22.6198 32.1004L23.4265 31.844L22.849 30.5864C22.8349 30.5535 22.8342 30.5163 22.847 30.4828C22.8599 30.4493 22.8853 30.4222 22.9178 30.4072C22.9503 30.3921 22.9874 30.3905 23.0211 30.4024C23.0549 30.4144 23.0826 30.4391 23.0984 30.4713L23.7408 31.8704C23.7489 31.8882 23.7531 31.9075 23.7532 31.9271C23.7532 31.9466 23.7492 31.966 23.7412 31.9838C23.7332 32.0016 23.7215 32.0176 23.7069 32.0305C23.6923 32.0435 23.6752 32.0532 23.6565 32.059L22.7016 32.3624C22.6886 32.3666 22.675 32.3688 22.6614 32.3689Z" fill="black"/>
</g>
<path d="M11.592 28.5515C11.4451 27.5823 11.4908 26.5935 11.7264 25.6419C11.962 24.6904 12.3829 23.7949 12.9649 23.0069C13.5469 22.2188 14.2785 21.5538 15.1178 21.05C15.9571 20.5461 16.8874 20.2134 17.8554 20.0709C18.8233 19.9285 19.8099 19.9791 20.7583 20.2198C21.7067 20.4605 22.5982 20.8866 23.3818 21.4737C24.1654 22.0607 24.8255 22.7971 25.3242 23.6406C25.8229 24.484 26.1503 25.4179 26.2878 26.3886" fill="#0CBC8B"/>
<path opacity="0.22" d="M22.9862 26.9465C22.9862 26.9465 22.7812 21.7782 16.9756 20.2935C16.9756 20.2935 17.5994 20.1452 17.8106 20.1142C18.1262 20.0608 18.4455 20.0325 18.7656 20.0298C18.7656 20.0298 24.4639 20.9752 25.2079 26.5474L22.9862 26.9465Z" fill="white"/>
<path d="M26.675 26.0247L11.1162 28.3147L11.2249 29.0563L26.7837 26.7662L26.675 26.0247Z" fill="#0CBC8B"/>
<path opacity="0.09" d="M26.675 26.0247L11.1162 28.3147L11.2249 29.0563L26.7837 26.7662L26.675 26.0247Z" fill="black"/>
<path opacity="0.63" d="M16.2188 21.2C17.0715 21.0817 17.94 21.2219 18.7126 21.6024C20.6683 22.5875 20.8672 23.9455 20.8672 23.9455C20.8672 23.9455 18.7899 21.14 16.2188 21.2Z" fill="white"/>
<path d="M23.8923 25.727C24.5027 25.727 24.9976 25.2311 24.9976 24.6195C24.9976 24.0078 24.5027 23.512 23.8923 23.512C23.2819 23.512 22.7871 24.0078 22.7871 24.6195C22.7871 25.2311 23.2819 25.727 23.8923 25.727Z" fill="#0CBC8B"/>
<path opacity="0.09" d="M23.8923 25.727C24.5027 25.727 24.9976 25.2311 24.9976 24.6195C24.9976 24.0078 24.5027 23.512 23.8923 23.512C23.2819 23.512 22.7871 24.0078 22.7871 24.6195C22.7871 25.2311 23.2819 25.727 23.8923 25.727Z" fill="black"/>
<path d="M24.4329 25.6474C25.0433 25.6474 25.5381 25.1516 25.5381 24.5399C25.5381 23.9282 25.0433 23.4324 24.4329 23.4324C23.8225 23.4324 23.3276 23.9282 23.3276 24.5399C23.3276 25.1516 23.8225 25.6474 24.4329 25.6474Z" fill="#0CBC8B"/>
<path opacity="0.13" d="M24.4329 25.6474C25.0433 25.6474 25.5381 25.1516 25.5381 24.5399C25.5381 23.9282 25.0433 23.4324 24.4329 23.4324C23.8225 23.4324 23.3276 23.9282 23.3276 24.5399C23.3276 25.1516 23.8225 25.6474 24.4329 25.6474Z" fill="white"/>
<path opacity="0.36" d="M24.433 25.1205C24.753 25.1205 25.0124 24.8605 25.0124 24.5399C25.0124 24.2192 24.753 23.9592 24.433 23.9592C24.1129 23.9592 23.8535 24.2192 23.8535 24.5399C23.8535 24.8605 24.1129 25.1205 24.433 25.1205Z" fill="white"/>
<path d="M35.1631 75.5771C35.1631 76.4159 34.7213 79.2197 35.4319 79.4201C35.8582 79.5403 36.3616 77.4499 36.3616 77.4499" fill="#E98862"/>
<path d="M21.7036 84.7904V96.0429C21.7038 96.7155 21.9705 97.3605 22.4451 97.836C22.9197 98.3116 23.5634 98.5788 24.2345 98.5788H50.4652C50.7976 98.5792 51.1269 98.5139 51.4341 98.3866C51.7413 98.2592 52.0204 98.0725 52.2555 97.8369C52.4905 97.6014 52.6769 97.3217 52.804 97.0138C52.931 96.706 52.9962 96.3761 52.9959 96.0429V84.7904C52.9962 84.4573 52.931 84.1274 52.804 83.8196C52.6769 83.5117 52.4905 83.232 52.2555 82.9965C52.0204 82.7609 51.7413 82.5741 51.4341 82.4468C51.1269 82.3195 50.7976 82.2542 50.4652 82.2545H43.5333V80.4926C43.5323 79.8644 43.2828 79.2622 42.8395 78.818C42.3962 78.3738 41.7953 78.1238 41.1683 78.1228H33.5314C32.9045 78.1238 32.3035 78.3738 31.8602 78.818C31.4169 79.2622 31.1674 79.8644 31.1665 80.4926V82.2545H24.2345C23.5634 82.2546 22.9197 82.5218 22.4451 82.9974C21.9705 83.4729 21.7038 84.1179 21.7036 84.7904ZM41.9941 82.2545H32.7057V80.4926C32.706 80.2733 32.7931 80.063 32.9479 79.9079C33.1027 79.7528 33.3125 79.6655 33.5314 79.6652H41.1683C41.3872 79.6655 41.597 79.7528 41.7518 79.9079C41.9066 80.063 41.9937 80.2733 41.9941 80.4926V82.2545Z" fill="#9EBCEA"/>
<path d="M38.4264 75.1365C38.4264 75.1365 40.916 77.4185 39.1962 79.9671C38.5261 80.9597 36.7605 80.3631 36.7605 79.8398C36.7605 77.6445 36.5903 77.0484 35.1475 77.5747L35.1632 75.2949" fill="#E98862"/>
<path opacity="0.21" d="M21.7036 88.3508V96.043C21.7038 96.7155 21.9705 97.3605 22.4451 97.836C22.9197 98.3116 23.5634 98.5788 24.2345 98.5788H50.4652C50.7976 98.5792 51.1269 98.5139 51.4341 98.3866C51.7413 98.2593 52.0204 98.0725 52.2555 97.8369C52.4905 97.6014 52.6769 97.3217 52.804 97.0138C52.931 96.706 52.9962 96.3761 52.9959 96.043V88.3508H21.7036Z" fill="white"/>
<path d="M45.9042 89.9421H45.9045C46.4305 89.9421 46.8569 89.5148 46.8569 88.9877V88.4369C46.8569 87.9098 46.4305 87.4825 45.9045 87.4825H45.9042C45.3782 87.4825 44.9518 87.9098 44.9518 88.4369V88.9877C44.9518 89.5148 45.3782 89.9421 45.9042 89.9421Z" fill="white"/>
<path d="M28.7953 89.9421H28.7956C29.3216 89.9421 29.748 89.5148 29.748 88.9877V88.4369C29.748 87.9098 29.3216 87.4825 28.7956 87.4825H28.7953C28.2693 87.4825 27.8429 87.9098 27.8429 88.4369V88.9877C27.8429 89.5148 28.2693 89.9421 28.7953 89.9421Z" fill="white"/>
<path d="M27.2261 44.478L30.6415 59.4491L36.9285 75.8021" stroke="#367CFF" stroke-width="20" stroke-miterlimit="10"/>
<path d="M33.2804 153.955L27.4233 153.257C27.6868 151.036 27.9851 148.367 28.0053 147.929C28.0053 147.958 28.0053 147.981 28.0053 147.999H33.9036C33.9014 148.176 33.9014 148.715 33.2804 153.955Z" fill="#E98862"/>
<path d="M9.7782 154.661L3.87988 154.642C3.87988 154.642 3.89954 148.539 3.89954 147.999H9.79786C9.79786 148.541 9.7782 154.661 9.7782 154.661Z" fill="#E98862"/>
<path d="M16.9482 156.947C17.1068 156.947 17.2636 156.913 17.4087 156.849C17.5538 156.785 17.6841 156.691 17.7916 156.574C17.899 156.457 17.9812 156.319 18.0331 156.169C18.085 156.019 18.1054 155.86 18.0931 155.701C18.076 155.482 17.9966 155.271 17.8643 155.095C17.732 154.919 17.5522 154.785 17.3462 154.708L10.4812 152.404C10.3481 152.36 10.2072 152.345 10.0679 152.36C9.92859 152.376 9.7943 152.421 9.67421 152.494C8.73048 153.15 7.60157 153.485 6.45345 153.451C5.55912 153.387 4.70063 153.073 3.97588 152.544C3.91221 152.492 3.83497 152.458 3.7532 152.448C3.67143 152.438 3.58849 152.452 3.51407 152.487C3.43965 152.523 3.37682 152.578 3.33292 152.648C3.28901 152.718 3.26584 152.799 3.26612 152.882V156.246C3.26611 156.345 3.28567 156.443 3.32367 156.535C3.36166 156.626 3.41734 156.71 3.48751 156.78C3.55769 156.85 3.64097 156.905 3.73259 156.943C3.8242 156.981 3.92234 157 4.02138 156.999L16.9482 156.947Z" fill="#C1D8ED"/>
<path d="M40.4668 156.947C40.6254 156.947 40.7822 156.913 40.9273 156.849C41.0724 156.785 41.2028 156.691 41.3102 156.574C41.4177 156.457 41.4999 156.319 41.5517 156.169C41.6036 156.019 41.624 155.86 41.6116 155.701C41.5945 155.482 41.5152 155.271 41.3829 155.096C41.2507 154.92 41.071 154.785 40.8651 154.708L33.9997 152.404C33.8668 152.36 33.7258 152.345 33.5866 152.36C33.4473 152.376 33.3131 152.421 33.193 152.494C32.2492 153.15 31.1202 153.485 29.972 153.451C29.0778 153.387 28.2194 153.073 27.4947 152.544C27.431 152.492 27.3538 152.458 27.272 152.448C27.1902 152.438 27.1073 152.452 27.0328 152.487C26.9584 152.523 26.8956 152.579 26.8516 152.648C26.8077 152.718 26.7845 152.799 26.7847 152.882V156.246C26.7847 156.345 26.8042 156.443 26.8422 156.535C26.8802 156.626 26.9359 156.71 27.0061 156.78C27.0762 156.85 27.1595 156.905 27.2511 156.943C27.3428 156.981 27.4409 157 27.5399 156.999L40.4668 156.947Z" fill="#C1D8ED"/>
<path d="M25.0656 152.089L35.4562 151.911C34.9681 139.518 34.9383 126.519 34.7861 114.096C32.7579 100.706 31.69 86.0026 29.1869 72.7087L29.1119 72.7309L28.8922 71.2308L7.52433 69.908L6.69295 83.8976H6.75867C5.64277 103.992 3.62892 132.294 2.35938 151.753L12.7148 152.63C14.5804 133.551 17.4678 105.752 19.2437 85.7096C21.2831 95.4676 22.6704 105.571 24.4441 115.245C24.7988 127.355 25.0988 140.015 25.0656 152.089Z" fill="#262626"/>
<path d="M30.5971 72.1729C29.4205 74.8833 6.29604 76.0091 5.98708 71.2413C5.79047 68.2072 8.45876 65.5587 8.45876 59.6454C8.45876 53.732 3.0295 46.1807 7.45324 41.7478C8.73682 40.4615 10.9532 39.6312 13.6549 39.6284C13.8571 41.2074 16.5366 43.8896 19.9914 43.6616C22.5838 43.49 23.4236 41.213 23.4966 39.665C23.8618 39.6706 24.1455 39.6763 24.3224 39.6847C33.6417 40.0872 29.5466 50.7149 29.4568 58.5224C29.3472 67.6584 31.8105 69.3808 30.5971 72.1729Z" fill="#367CFF"/>
<path d="M23.4965 39.665C23.4235 41.213 22.5837 43.49 19.9913 43.6616C16.5365 43.8896 13.857 41.2074 13.6548 39.6284H13.6632C17.0646 39.6287 21.515 39.634 23.4965 39.665Z" fill="#E98862"/>
<path d="M22.7227 39.6287L23.4316 75.7842C23.4316 75.7842 30.9693 75.8554 32.3097 74.5123L30.2621 55.9969C30.2621 55.9969 26.0794 52.0504 26.6526 39.9597C26.6515 39.9594 24.4135 39.336 22.7227 39.6287Z" fill="#0CBC8B"/>
<path d="M15.1954 39.6287L16.3239 75.614C16.3239 75.614 5.84402 76.3263 4.50342 74.9829L7.65508 55.8264C7.65508 55.8264 11.8454 51.8455 11.2722 39.7554C12.5708 39.5636 13.8871 39.5211 15.1954 39.6287Z" fill="#0CBC8B"/>
<path d="M30.7652 60.5723L23.1367 60.803L23.1143 59.6772L25.1646 59.6153L24.1423 39.5618C24.5203 39.5809 24.8972 39.6194 25.2714 39.6772L26.2853 59.5815L30.6416 59.4493L30.7652 60.5723Z" fill="white"/>
<path d="M31.251 64.9517L23.2236 65.2219L23.2012 64.0961L31.1274 63.8315L31.251 64.9517Z" fill="white"/>
<path d="M15.8508 60.5778L7.10449 60.8115L7.22808 59.6828L12.8848 59.5308L12.4102 39.6236C12.7304 39.6011 13.1067 39.5814 13.5337 39.5786L14.0083 59.4999L15.8143 59.452L15.8508 60.5778Z" fill="white"/>
<path d="M16.011 65.7059H6.5625L6.68608 64.5801H15.9773L16.011 65.7059Z" fill="white"/>
<path d="M11.1005 49.8126L15.8178 49.3831L18.5757 52.3014L23.9962 51.8058L19.1276 68.7113L13.6548 69.4825L11.2867 66.552L6.30127 67.7203L11.1005 49.8126Z" fill="#F3F5FD"/>
<path opacity="0.07" d="M15.8177 49.3831L18.5755 52.3014L13.6547 69.4825L11.2866 66.552L15.8177 49.3831Z" fill="black"/>
<path d="M19.1839 59.821C21.2258 59.821 22.7229 56.5905 22.7229 59.8945C22.7229 63.1984 17.3652 63.4408 17.3652 63.4408L17.5458 59.7853C17.5458 59.7853 18.7182 58.4078 19.1946 58.4078C19.6709 58.4078 19.1839 59.821 19.1839 59.821Z" fill="#E98862"/>
<path d="M17.3245 65.0722L2.92845 64.4406C2.44922 64.4198 1.98157 64.2864 1.56322 64.0512C1.14486 63.8161 0.787508 63.4857 0.519962 63.0867C0.252415 62.6878 0.0821649 62.2314 0.0229383 61.7544C-0.0362883 61.2774 0.0171658 60.7931 0.178991 60.3406L6.21184 43.5818L10.1721 50.5663L7.34348 58.4904L17.5922 58.9407L17.3245 65.0722Z" fill="#367CFF"/>
</g>
<defs>
<clipPath id="clip0_245_189">
<rect width="168" height="157" fill="white"/>
</clipPath>
</defs>
</svg>
