<svg width="156" height="147" viewBox="0 0 156 147" fill="none" xmlns="http://www.w3.org/2000/svg">
<path d="M40.3461 98.1689H27.7715V101.828H40.3461V98.1689Z" fill="#F4F4F4"/>
<path opacity="0.05" d="M31.1076 98.1689H29.46V101.828H31.1076V98.1689Z" fill="#0C0C0C"/>
<path d="M38.7392 98.9644H31.8882V101.132H38.7392V98.9644Z" fill="white"/>
<path d="M50.3758 98.6463L38.6919 93.5432L37.2275 96.8961L48.9114 101.999L50.3758 98.6463Z" fill="#F4F4F4"/>
<path opacity="0.05" d="M50.3758 98.6463L38.6919 93.5432L37.2275 96.8961L48.9114 101.999L50.3758 98.6463Z" fill="#0C0C0C"/>
<path d="M48.8069 97.9612L47.2759 97.2925L45.8114 100.645L47.3424 101.314L48.8069 97.9612Z" fill="white"/>
<path d="M46.2324 97.7041L39.8667 94.9238L38.9989 96.9107L45.3646 99.691L46.2324 97.7041Z" fill="white"/>
<path opacity="0.05" d="M50.3983 144.518H47.2383V146.628H50.3983V144.518Z" fill="#0C0C0C"/>
<path opacity="0.05" d="M18.0907 144.518H14.9307V146.628H18.0907V144.518Z" fill="#0C0C0C"/>
<path d="M53.2948 101.999H12.0337V144.447H53.2948V101.999Z" fill="#F4F4F4"/>
<path opacity="0.03" d="M53.2948 101.999H12.0337V144.447H53.2948V101.999Z" fill="#0C0C0C"/>
<path d="M60.9412 101.999H19.6802V144.447H60.9412V101.999Z" fill="#F4F4F4"/>
<path opacity="0.05" d="M58.0443 144.518H54.8843V146.628H58.0443V144.518Z" fill="#0C0C0C"/>
<path opacity="0.05" d="M25.7367 144.518H22.5767V146.628H25.7367V144.518Z" fill="#0C0C0C"/>
<path opacity="0.7" d="M59.3924 103.987H21.229V112.142H59.3924V103.987Z" fill="white"/>
<path opacity="0.7" d="M59.3924 114.138H21.229V122.293H59.3924V114.138Z" fill="white"/>
<path opacity="0.7" d="M59.3924 124.289H21.229V132.444H59.3924V124.289Z" fill="white"/>
<path opacity="0.05" d="M40.3105 109.206C40.9407 109.206 41.4515 108.695 41.4515 108.065C41.4515 107.435 40.9407 106.924 40.3105 106.924C39.6803 106.924 39.1694 107.435 39.1694 108.065C39.1694 108.695 39.6803 109.206 40.3105 109.206Z" fill="#0C0C0C"/>
<path opacity="0.05" d="M40.3105 119.357C40.9407 119.357 41.4515 118.846 41.4515 118.216C41.4515 117.586 40.9407 117.075 40.3105 117.075C39.6803 117.075 39.1694 117.586 39.1694 118.216C39.1694 118.846 39.6803 119.357 40.3105 119.357Z" fill="#0C0C0C"/>
<path opacity="0.05" d="M40.3105 129.508C40.9407 129.508 41.4515 128.997 41.4515 128.367C41.4515 127.737 40.9407 127.226 40.3105 127.226C39.6803 127.226 39.1694 127.737 39.1694 128.367C39.1694 128.997 39.6803 129.508 40.3105 129.508Z" fill="#0C0C0C"/>
<path opacity="0.7" d="M59.3924 134.669H21.229V142.824H59.3924V134.669Z" fill="white"/>
<path opacity="0.05" d="M40.3105 139.888C40.9407 139.888 41.4515 139.377 41.4515 138.747C41.4515 138.116 40.9407 137.605 40.3105 137.605C39.6803 137.605 39.1694 138.116 39.1694 138.747C39.1694 139.377 39.6803 139.888 40.3105 139.888Z" fill="#0C0C0C"/>
<path d="M0.109581 146.921H155.154C155.183 146.921 155.211 146.909 155.232 146.888C155.252 146.868 155.264 146.84 155.264 146.811C155.264 146.782 155.252 146.754 155.232 146.734C155.211 146.713 155.183 146.701 155.154 146.701H0.109581C0.0805184 146.701 0.052646 146.713 0.0320956 146.734C0.0115451 146.754 0 146.782 0 146.811C0 146.84 0.0115451 146.868 0.0320956 146.888C0.052646 146.909 0.0805184 146.921 0.109581 146.921Z" fill="#0C0C0C"/>
<g opacity="0.65">
<path d="M0.109581 146.921H155.154C155.183 146.921 155.211 146.909 155.232 146.888C155.252 146.868 155.264 146.84 155.264 146.811C155.264 146.782 155.252 146.754 155.232 146.734C155.211 146.713 155.183 146.701 155.154 146.701H0.109581C0.0805184 146.701 0.052646 146.713 0.0320956 146.734C0.0115451 146.754 0 146.782 0 146.811C0 146.84 0.0115451 146.868 0.0320956 146.888C0.052646 146.909 0.0805184 146.921 0.109581 146.921Z" fill="#0C0C0C"/>
</g>
<path d="M144.663 146.857L144.97 146.798L140.165 99.0466L139.857 99.1058L144.663 146.857Z" fill="#494949"/>
<path d="M126.77 146.857L127.077 146.798L122.272 99.0466L121.965 99.1058L126.77 146.857Z" fill="#494949"/>
<path d="M87.2196 146.857L86.9121 146.798L91.7174 99.0466L92.0249 99.1058L87.2196 146.857Z" fill="#494949"/>
<path d="M105.112 146.857L104.805 146.798L109.61 99.0466L109.917 99.1058L105.112 146.857Z" fill="#494949"/>
<path d="M111.483 78.0299L108.676 99.0544L108.987 99.0959L111.794 78.0713L111.483 78.0299Z" fill="#494949"/>
<path d="M143.704 78.0299L140.896 99.0544L141.207 99.0959L144.014 78.0713L143.704 78.0299Z" fill="#494949"/>
<path d="M108.705 100.616H140.22C141.07 100.616 141.76 99.9264 141.76 99.0761V99.076C141.76 98.2256 141.07 97.5363 140.22 97.5363H108.705C107.854 97.5363 107.165 98.2256 107.165 99.076V99.0761C107.165 99.9264 107.854 100.616 108.705 100.616Z" fill="#0C0C0C"/>
<path opacity="0.8" d="M108.705 100.616H140.22C141.07 100.616 141.76 99.9264 141.76 99.0761V99.076C141.76 98.2256 141.07 97.5363 140.22 97.5363H108.705C107.854 97.5363 107.165 98.2256 107.165 99.076V99.0761C107.165 99.9264 107.854 100.616 108.705 100.616Z" fill="white"/>
<path d="M107.008 99.0767C107.009 98.6269 107.187 98.1956 107.505 97.8775C107.823 97.5593 108.255 97.3804 108.704 97.3799H140.22C140.67 97.3799 141.101 97.5586 141.419 97.8767C141.737 98.1948 141.916 98.6262 141.916 99.076C141.916 99.5259 141.737 99.9573 141.419 100.275C141.101 100.594 140.67 100.772 140.22 100.772H108.704C108.255 100.772 107.824 100.593 107.506 100.275C107.188 99.9572 107.009 99.5263 107.008 99.0767ZM108.704 97.6936C108.338 97.6936 107.986 97.8393 107.726 98.0987C107.467 98.3581 107.321 98.7099 107.321 99.0767C107.321 99.4435 107.467 99.7953 107.726 100.055C107.986 100.314 108.338 100.46 108.704 100.46H140.22C140.587 100.46 140.939 100.314 141.198 100.055C141.457 99.7953 141.603 99.4435 141.603 99.0767C141.603 98.7099 141.457 98.3581 141.198 98.0987C140.939 97.8393 140.587 97.6936 140.22 97.6936H108.704Z" fill="#0C0C0C"/>
<path d="M91.4073 100.616H122.923C123.773 100.616 124.462 99.9264 124.462 99.0761V99.076C124.462 98.2256 123.773 97.5363 122.923 97.5363H91.4073C90.5569 97.5363 89.8676 98.2256 89.8676 99.076V99.0761C89.8676 99.9264 90.5569 100.616 91.4073 100.616Z" fill="white"/>
<path d="M89.7109 99.0768C89.7115 98.6271 89.8904 98.1959 90.2084 97.8779C90.5264 97.56 90.9576 97.3811 91.4073 97.3806H122.923C123.373 97.3806 123.804 97.5593 124.122 97.8774C124.44 98.1955 124.619 98.6269 124.619 99.0768C124.619 99.5266 124.44 99.9581 124.122 100.276C123.804 100.594 123.373 100.773 122.923 100.773H91.4073C90.9576 100.772 90.5264 100.594 90.2084 100.276C89.8904 99.9576 89.7115 99.5265 89.7109 99.0768ZM91.4073 97.6937C91.0404 97.6937 90.6887 97.8394 90.4293 98.0988C90.1699 98.3582 90.0242 98.71 90.0242 99.0768C90.0242 99.4436 90.1699 99.7954 90.4293 100.055C90.6887 100.314 91.0404 100.46 91.4073 100.46H122.923C123.29 100.46 123.641 100.314 123.901 100.055C124.16 99.7954 124.306 99.4436 124.306 99.0768C124.306 98.71 124.16 98.3582 123.901 98.0988C123.641 97.8394 123.29 97.6937 122.923 97.6937H91.4073Z" fill="#0C0C0C"/>
<path d="M113.211 78.0514H143.776C144.276 78.0514 144.758 77.8696 145.134 77.5398C145.509 77.2101 145.752 76.755 145.817 76.2594L147.838 60.7333C147.876 60.4431 147.852 60.1482 147.766 59.8682C147.681 59.5883 147.537 59.3297 147.344 59.1098C147.151 58.8899 146.913 58.7137 146.646 58.593C146.38 58.4723 146.091 58.4099 145.798 58.4099H115.232C114.733 58.4099 114.25 58.5918 113.875 58.9216C113.499 59.2514 113.256 59.7065 113.192 60.202L111.17 75.728C111.132 76.0182 111.157 76.3132 111.242 76.5932C111.327 76.8732 111.471 77.1318 111.665 77.3517C111.858 77.5717 112.096 77.7478 112.362 77.8685C112.629 77.9891 112.919 78.0515 113.211 78.0514Z" fill="#0C0C0C"/>
<path opacity="0.8" d="M113.211 78.0514H143.776C144.276 78.0514 144.758 77.8696 145.134 77.5398C145.509 77.2101 145.752 76.755 145.817 76.2594L147.838 60.7333C147.876 60.4431 147.852 60.1482 147.766 59.8682C147.681 59.5883 147.537 59.3297 147.344 59.1098C147.151 58.8899 146.913 58.7137 146.646 58.593C146.38 58.4723 146.091 58.4099 145.798 58.4099H115.232C114.733 58.4099 114.25 58.5918 113.875 58.9216C113.499 59.2514 113.256 59.7065 113.192 60.202L111.17 75.728C111.132 76.0182 111.157 76.3132 111.242 76.5932C111.327 76.8732 111.471 77.1318 111.665 77.3517C111.858 77.5717 112.096 77.7478 112.362 77.8685C112.629 77.9891 112.919 78.0515 113.211 78.0514Z" fill="white"/>
<path d="M111.547 77.4549C111.339 77.2183 111.184 76.9401 111.093 76.6388C111.001 76.3376 110.974 76.0203 111.015 75.708L113.037 60.1819C113.107 59.6492 113.369 59.1601 113.772 58.8055C114.176 58.4508 114.695 58.2547 115.232 58.2534H145.798C146.113 58.2534 146.424 58.3206 146.711 58.4504C146.998 58.5803 147.254 58.7699 147.461 59.0065C147.669 59.2431 147.824 59.5214 147.916 59.8227C148.008 60.1239 148.034 60.4413 147.993 60.7536L145.972 76.2797C145.901 76.8124 145.64 77.3015 145.236 77.6561C144.832 78.0108 144.313 78.2068 143.776 78.208H113.211C112.896 78.208 112.585 78.1408 112.298 78.0109C112.011 77.8811 111.755 77.6915 111.547 77.4549ZM115.232 58.5665C114.771 58.5677 114.326 58.7361 113.979 59.0407C113.632 59.3452 113.408 59.7651 113.348 60.2224L111.326 75.7485C111.291 76.0166 111.314 76.2891 111.392 76.5478C111.471 76.8065 111.604 77.0453 111.783 77.2485C111.961 77.4517 112.181 77.6144 112.427 77.7259C112.673 77.8374 112.941 77.8951 113.211 77.8951H143.776C144.237 77.8941 144.683 77.7257 145.029 77.4213C145.376 77.1168 145.601 76.6969 145.661 76.2394L147.683 60.7134C147.718 60.4452 147.695 60.1727 147.616 59.9141C147.538 59.6554 147.405 59.4165 147.226 59.2133C147.048 59.0102 146.828 58.8474 146.582 58.7359C146.335 58.6244 146.068 58.5667 145.798 58.5667L115.232 58.5665Z" fill="#0C0C0C"/>
<path d="M111.483 78.0514H142.049C142.548 78.0514 143.031 77.8696 143.406 77.5398C143.782 77.2101 144.025 76.755 144.089 76.2594L146.111 60.7333C146.149 60.4431 146.124 60.1482 146.039 59.8682C145.954 59.5882 145.81 59.3297 145.616 59.1098C145.423 58.8899 145.186 58.7137 144.919 58.593C144.652 58.4723 144.363 58.4099 144.07 58.4099H113.505C113.005 58.41 112.522 58.5918 112.147 58.9216C111.771 59.2514 111.529 59.7065 111.464 60.202L109.443 75.728C109.405 76.0182 109.429 76.3131 109.515 76.5931C109.6 76.873 109.744 77.1316 109.937 77.3515C110.13 77.5714 110.368 77.7476 110.634 77.8683C110.901 77.989 111.19 78.0514 111.483 78.0514Z" fill="white"/>
<path d="M109.819 77.4549C109.611 77.2183 109.456 76.9401 109.365 76.6388C109.273 76.3376 109.246 76.0203 109.287 75.708L111.309 60.1819C111.379 59.6491 111.641 59.1601 112.045 58.8054C112.448 58.4508 112.967 58.2546 113.504 58.2534H144.07C144.385 58.2534 144.696 58.3206 144.983 58.4504C145.27 58.5803 145.526 58.7699 145.733 59.0065C145.941 59.2431 146.096 59.5214 146.188 59.8227C146.28 60.1239 146.306 60.4413 146.265 60.7536L144.244 76.2797C144.173 76.8123 143.912 77.3013 143.508 77.6558C143.104 78.0104 142.586 78.2066 142.049 78.208H111.483C111.168 78.208 110.857 78.1408 110.57 78.0109C110.283 77.881 110.027 77.6915 109.819 77.4549ZM113.505 58.5665C113.043 58.5676 112.598 58.736 112.251 59.0405C111.905 59.345 111.68 59.765 111.62 60.2224L109.598 75.7485C109.563 76.0166 109.586 76.2891 109.664 76.5478C109.743 76.8065 109.876 77.0453 110.055 77.2485C110.233 77.4517 110.453 77.6144 110.699 77.7259C110.945 77.8374 111.213 77.8951 111.483 77.8951H142.049C142.51 77.8941 142.955 77.7257 143.302 77.4213C143.649 77.1168 143.873 76.6969 143.934 76.2394L145.956 60.7135C145.991 60.4454 145.968 60.1729 145.889 59.9142C145.81 59.6555 145.677 59.4166 145.499 59.2134C145.32 59.0102 145.101 58.8475 144.854 58.7359C144.608 58.6244 144.341 58.5667 144.07 58.5667L113.505 58.5665Z" fill="#0C0C0C"/>
<path d="M115.823 33.4146C115.823 33.4146 114.019 31.6202 113.999 28.0558C113.983 25.2959 116.241 27.3916 116.241 27.3916C116.241 27.3916 116.249 25.4042 117.644 25.7928C119.039 26.1813 119.555 28.3407 119.555 28.3407" fill="#0C0C0C"/>
<path d="M124.963 27.0281C124.963 27.0281 131.916 28.751 128.055 37.963L127.425 37.9193L126.146 37.8306" fill="#0C0C0C"/>
<path d="M116.04 47.537C116.071 47.5327 116.418 53.2978 123.116 52.7956C127.753 52.4482 129.406 47.5287 129.513 47.5287C129.013 47.4225 128.395 47.2613 128.149 47.2059C127.614 47.0815 127.13 46.7973 126.76 46.3909C126.391 45.9846 126.154 45.4753 126.081 44.931C125.945 44.1138 126.175 39.9328 126.104 39.106L118.987 40.6947C119.086 42.441 119.782 46.4894 117.343 47.2059C116.936 47.3244 116.499 47.4329 116.04 47.537Z" fill="#E98862"/>
<path opacity="0.52" d="M118.886 45.5513C118.998 45.192 119.07 44.8215 119.1 44.4466C119.179 43.591 119.163 42.7295 119.053 41.8774C120.5 41.6821 121.863 41.085 122.987 40.1538C123.119 40.6419 123.846 42.7747 123.645 43.2377C123.265 44.1155 121.478 45.5513 118.886 45.5513Z" fill="#0C0C0C"/>
<path d="M119.951 43.8696C122.767 44.0013 126.338 42.6996 126.903 38.9299L127.413 35.5283C127.978 31.7586 126.457 28.4055 122.907 27.8733C119.358 27.341 116.247 29.9993 115.681 33.7691L115.455 35.2749C115.387 35.7933 115.354 36.3158 115.356 36.8387C115.353 38.2207 115.353 40.3228 116.083 41.8447C116.772 43.2815 118.152 43.7852 119.951 43.8696Z" fill="#E98862"/>
<path d="M119.133 40.2413C118.555 40.1886 117.998 40.0009 117.506 39.6934C117.495 39.6875 117.486 39.6796 117.478 39.67C117.471 39.6604 117.465 39.6494 117.462 39.6377C117.459 39.6259 117.458 39.6136 117.46 39.6015C117.461 39.5894 117.466 39.5778 117.472 39.5673C117.478 39.5568 117.486 39.5477 117.496 39.5405C117.506 39.5334 117.517 39.5283 117.529 39.5255C117.541 39.5228 117.553 39.5225 117.565 39.5246C117.578 39.5267 117.589 39.5313 117.599 39.5379C118.662 40.1743 119.697 40.2441 120.592 39.7404C120.61 39.7296 120.629 39.7198 120.648 39.7111C120.67 39.7029 120.695 39.7037 120.716 39.7132C120.738 39.7228 120.755 39.7403 120.763 39.7621C120.772 39.784 120.772 39.8084 120.763 39.8302C120.755 39.852 120.738 39.8695 120.716 39.8791C120.709 39.8822 120.697 39.8891 120.681 39.8981C120.211 40.1641 119.672 40.2836 119.133 40.2413Z" fill="#0C0C0C"/>
<path d="M119.043 41.0956C118.938 41.0877 118.835 41.071 118.733 41.0455C118.721 41.0427 118.711 41.0376 118.701 41.0305C118.691 41.0235 118.683 41.0146 118.677 41.0045C118.671 40.9943 118.667 40.983 118.665 40.9712C118.663 40.9595 118.664 40.9475 118.667 40.936C118.67 40.9244 118.675 40.9135 118.682 40.904C118.689 40.8944 118.698 40.8863 118.708 40.8801C118.718 40.874 118.729 40.8699 118.741 40.8681C118.753 40.8663 118.765 40.8669 118.776 40.8697C119.389 41.0208 119.724 40.7768 119.738 40.7663C119.758 40.7517 119.782 40.7454 119.805 40.7486C119.829 40.7519 119.851 40.7644 119.865 40.7836C119.88 40.8027 119.886 40.8268 119.883 40.8506C119.88 40.8744 119.867 40.8959 119.848 40.9104C119.609 41.0633 119.325 41.1287 119.043 41.0956Z" fill="#0C0C0C"/>
<path d="M116.694 35.4147C116.938 35.4147 117.136 35.2168 117.136 34.9726C117.136 34.7284 116.938 34.5305 116.694 34.5305C116.449 34.5305 116.251 34.7284 116.251 34.9726C116.251 35.2168 116.449 35.4147 116.694 35.4147Z" fill="#0C0C0C"/>
<path d="M120.804 35.6889C121.048 35.6889 121.246 35.4909 121.246 35.2468C121.246 35.0026 121.048 34.8047 120.804 34.8047C120.56 34.8047 120.362 35.0026 120.362 35.2468C120.362 35.4909 120.56 35.6889 120.804 35.6889Z" fill="#0C0C0C"/>
<path d="M126.51 40.0453C127.589 40.207 128.637 39.1843 128.798 38.1055C128.96 37.0268 128.175 36.3009 127.096 36.1392L126.432 36.7785L125.583 39.9062L126.51 40.0453Z" fill="#E98862"/>
<path d="M125.673 38.1619C125.673 38.1619 126.04 32.7683 124.465 32.2163C123.416 31.8487 120.59 33.0211 118.229 32.2268C117.196 31.8793 116.154 32.0039 115.982 32.4907C115.915 32.6834 115.644 29.7429 117.601 27.8072C119.16 26.266 123.553 26.3725 125.444 27.2069C130.681 29.5172 127.287 36.4051 127.287 36.4051L126.791 38.214L125.673 38.1619Z" fill="#0C0C0C"/>
<path d="M118.653 38.8906H118.646C118.298 38.8394 117.721 38.7148 117.759 38.4546C117.79 38.2391 118.723 35.9992 118.83 35.7447C118.834 35.7334 118.84 35.723 118.848 35.7143C118.857 35.7055 118.867 35.6985 118.878 35.6937C118.889 35.6889 118.901 35.6864 118.913 35.6863C118.925 35.6862 118.937 35.6885 118.948 35.6932C118.959 35.6978 118.969 35.7047 118.978 35.7133C118.986 35.7219 118.993 35.7322 118.997 35.7434C119.001 35.7547 119.003 35.7667 119.003 35.7787C119.003 35.7908 119 35.8026 118.995 35.8136C118.581 36.8054 117.957 38.3339 117.936 38.4806C117.961 38.5472 118.312 38.6603 118.672 38.7136C118.694 38.7172 118.715 38.7294 118.729 38.7476C118.743 38.7658 118.749 38.7887 118.747 38.8116C118.744 38.8344 118.733 38.8554 118.715 38.8703C118.698 38.8851 118.675 38.8927 118.652 38.8914L118.653 38.8906Z" fill="#0C0C0C"/>
<path d="M118.178 33.5222C117.826 33.3716 117.439 33.3188 117.059 33.3696C116.873 33.3933 116.691 33.4449 116.52 33.5225C116.351 33.5985 116.193 33.6955 116.048 33.8112C116.021 33.8317 116.004 33.8616 115.999 33.8948C115.994 33.928 116.001 33.9618 116.021 33.9893C116.04 34.0168 116.069 34.0358 116.102 34.0424C116.135 34.0489 116.169 34.0426 116.197 34.0246L116.206 34.0188C116.338 33.9264 116.481 33.851 116.631 33.7943C116.779 33.7377 116.935 33.7039 117.093 33.694C117.405 33.672 117.717 33.7326 117.998 33.8698L118.01 33.8759C118.056 33.8996 118.11 33.9041 118.159 33.8883C118.209 33.8724 118.25 33.8376 118.274 33.7914C118.297 33.7452 118.302 33.6915 118.286 33.642C118.27 33.5925 118.235 33.5513 118.189 33.5275L118.178 33.5222Z" fill="#0C0C0C"/>
<path d="M120.739 34.0968C121.036 33.9996 121.353 33.9826 121.659 34.0476C121.814 34.0792 121.964 34.1342 122.103 34.2107C122.244 34.2877 122.375 34.3821 122.493 34.4917L122.501 34.4984C122.526 34.5205 122.559 34.5318 122.593 34.53C122.626 34.5283 122.658 34.5135 122.681 34.4889C122.704 34.4643 122.717 34.4317 122.716 34.398C122.716 34.3643 122.702 34.332 122.679 34.3081C122.551 34.1735 122.407 34.0555 122.251 33.957C122.092 33.8564 121.919 33.7802 121.738 33.7309C121.369 33.6283 120.979 33.6271 120.609 33.7276C120.559 33.7416 120.516 33.7749 120.491 33.8202C120.465 33.8655 120.459 33.9191 120.473 33.9691C120.487 34.0191 120.52 34.0615 120.566 34.087C120.611 34.1125 120.665 34.1189 120.715 34.1049L120.726 34.1013L120.739 34.0968Z" fill="#0C0C0C"/>
<path d="M121.346 28.3452C121.753 27.2017 121.454 26.0504 120.677 25.7737C119.9 25.4971 118.94 26.1998 118.533 27.3433C118.126 28.4868 118.425 29.6381 119.202 29.9148C119.979 30.1914 120.939 29.4887 121.346 28.3452Z" fill="#0C0C0C"/>
<path d="M72.6954 138.742C72.6954 138.742 71.856 143.093 67.7824 143.335C63.7088 143.578 64.592 146.823 64.592 146.823H80.1594V139.045L72.6954 138.742Z" fill="#367CFF"/>
<path d="M102.312 135.995C102.312 135.995 103.479 140.269 99.9305 142.285C96.3821 144.301 98.6073 146.823 98.6073 146.823L112.576 139.951L109.143 132.972L102.312 135.995Z" fill="#367CFF"/>
<path d="M110.964 134.787L99.1838 97.6251H120.536C124.826 97.6251 126.614 93.9878 126.614 89.6988C126.614 85.4098 122.397 81.6499 118.108 81.6499H89.2898C86.6738 81.6499 83.7405 83.2498 82.3048 85.4367C80.8692 87.6236 81.2571 91.0124 82.2973 93.4128L101.161 139.228" fill="#262626"/>
<path opacity="0.8" d="M110.964 134.787L99.1838 97.6251H120.536C124.826 97.6251 126.614 93.9878 126.614 89.6988C126.614 85.4098 122.397 81.6499 118.108 81.6499H89.2898C86.6738 81.6499 83.7405 83.2498 82.3048 85.4367C80.8692 87.6236 81.2571 91.0124 82.2973 93.4128L101.161 139.228" fill="#0A0A0A"/>
<path d="M81.0548 142.782L100.751 97.625L126.614 97.6233C132.674 97.1482 135.449 93.8271 135.361 89.5391C135.274 85.3053 133.13 81.1235 128.915 81.1235H94.0577C90.9394 81.1876 88.486 84.6337 87.3291 87.5301L70.9546 140.018" fill="#262626"/>
<path d="M137.125 81.1754C137.125 81.1754 138.274 88.6655 136.453 92.8297C134.18 98.0285 125.66 97.6236 125.66 97.6236L126.14 81.1238L137.125 81.1754Z" fill="#262626"/>
<path d="M86.5878 81.0282L104.857 77.2426C105.618 77.0849 106.327 76.7377 106.918 76.2332C107.51 75.7286 107.965 75.0831 108.24 74.3563L115.426 55.4217C115.645 54.8535 115.749 54.2476 115.733 53.6389C115.717 53.0302 115.581 52.4306 115.332 51.8747C115.084 51.3188 114.728 50.8174 114.285 50.3994C113.842 49.9814 113.321 49.655 112.752 49.4389C112.183 49.2229 111.576 49.1214 110.968 49.1404C110.359 49.1594 109.76 49.2985 109.205 49.5496C108.651 49.8007 108.151 50.159 107.735 50.6038C107.319 51.0486 106.995 51.5712 106.782 52.1415L100.497 68.7039L84.7119 71.9752C84.7119 71.9752 86.2716 81.0938 86.5878 81.0282Z" fill="#367CFF"/>
<path d="M107.718 60.2298C107.929 62.7084 109.425 78.1714 109.628 81.2243H137.113C137.271 78.4709 137.784 66.7806 138.382 61.3962C138.954 56.2581 139.161 53.3261 138.503 51.7295C137.342 48.9132 134.436 47.8999 131.933 47.561C130.404 47.3542 128.106 47.2058 128.106 47.2058C128.106 47.2058 127.911 51.1429 123.27 51.3621C116.952 51.6595 117.373 47.2053 117.342 47.2053C116.319 47.2053 110.747 47.9497 109.354 48.8576C107.387 50.1402 106.805 51.8879 106.782 53.4936C106.756 55.343 107.478 57.4189 107.718 60.2298Z" fill="#367CFF"/>
<path d="M108.799 72.8649H108.805C108.826 72.8632 108.845 72.8533 108.858 72.8374C108.872 72.8216 108.878 72.8011 108.877 72.7804L108.163 64.209C108.162 64.1986 108.16 64.1885 108.155 64.1792C108.151 64.17 108.144 64.1617 108.136 64.155C108.128 64.1484 108.119 64.1433 108.109 64.1403C108.099 64.1373 108.089 64.1363 108.079 64.1374C108.068 64.1383 108.058 64.1411 108.049 64.1458C108.04 64.1505 108.032 64.157 108.025 64.1649C108.019 64.1727 108.014 64.1818 108.011 64.1916C108.007 64.2014 108.006 64.2117 108.007 64.2219L108.72 72.7931C108.722 72.8127 108.731 72.831 108.745 72.8443C108.76 72.8576 108.779 72.865 108.799 72.8649Z" fill="#0C0C0C"/>
<path d="M95.7078 78.0093L89.6771 59.4711C89.5712 59.1454 89.365 58.8615 89.0879 58.6601C88.8109 58.4588 88.4772 58.3502 88.1347 58.3501H63.5641C63.308 58.3501 63.0555 58.4107 62.8273 58.527C62.5991 58.6433 62.4016 58.8119 62.2511 59.0192C62.1006 59.2264 62.0013 59.4663 61.9613 59.7193C61.9213 59.9723 61.9418 60.2312 62.021 60.4747L68.0519 79.0132C68.1578 79.339 68.3642 79.6229 68.6414 79.8242C68.9186 80.0255 69.2524 80.1339 69.595 80.1339H94.1648C94.4209 80.1339 94.6734 80.0733 94.9016 79.957C95.1298 79.8407 95.3272 79.672 95.4777 79.4648C95.6283 79.2576 95.7276 79.0176 95.7676 78.7647C95.8075 78.5117 95.7871 78.2528 95.7078 78.0093Z" fill="#0C0C0C"/>
<path d="M95.7078 78.0093L89.6771 59.4711C89.5712 59.1454 89.365 58.8615 89.0879 58.6601C88.8109 58.4588 88.4772 58.3502 88.1347 58.3501H63.5641C63.308 58.3501 63.0555 58.4107 62.8273 58.527C62.5991 58.6433 62.4016 58.8119 62.2511 59.0192C62.1006 59.2264 62.0013 59.4663 61.9613 59.7193C61.9213 59.9723 61.9418 60.2312 62.021 60.4747L68.0519 79.0132C68.1578 79.339 68.3642 79.6229 68.6414 79.8242C68.9186 80.0255 69.2524 80.1339 69.595 80.1339H94.1648C94.4209 80.1339 94.6734 80.0733 94.9016 79.957C95.1298 79.8407 95.3272 79.672 95.4777 79.4648C95.6283 79.2576 95.7276 79.0176 95.7676 78.7647C95.8075 78.5117 95.7871 78.2528 95.7078 78.0093Z" fill="#0C0C0C"/>
<path d="M107.236 78.6306H90.7884C90.3786 78.6306 90.0464 78.9628 90.0464 79.3726V79.3917C90.0464 79.8015 90.3786 80.1338 90.7884 80.1338H107.236C107.645 80.1338 107.978 79.8015 107.978 79.3917V79.3726C107.978 78.9628 107.645 78.6306 107.236 78.6306Z" fill="#0C0C0C"/>
<path d="M107.236 78.6306H90.7884C90.3786 78.6306 90.0464 78.9628 90.0464 79.3726V79.3917C90.0464 79.8015 90.3786 80.1338 90.7884 80.1338H107.236C107.645 80.1338 107.978 79.8015 107.978 79.3917V79.3726C107.978 78.9628 107.645 78.6306 107.236 78.6306Z" fill="#0C0C0C"/>
<path d="M78.8645 72.7233C80.2876 72.7233 81.4414 71.5696 81.4414 70.1465C81.4414 68.7233 80.2876 67.5696 78.8645 67.5696C77.4413 67.5696 76.2876 68.7233 76.2876 70.1465C76.2876 71.5696 77.4413 72.7233 78.8645 72.7233Z" fill="white"/>
<path d="M97.0825 73.6665L101.187 72.2277L100.598 72.187C100.408 72.1701 100.232 72.0817 100.104 71.9397C99.977 71.7976 99.9084 71.6125 99.9124 71.4218C99.9179 71.3235 99.9433 71.2274 99.9872 71.1392C100.031 71.051 100.092 70.9727 100.167 70.9091C100.243 70.8454 100.33 70.7977 100.424 70.7688C100.518 70.74 100.617 70.7307 100.715 70.7414L107.977 71.5131L107.789 73.8469C107.73 74.5717 107.456 75.2625 107.003 75.8308C106.549 76.399 105.936 76.8188 105.242 77.0363L102.097 78.016C101.934 78.0701 101.758 78.0664 101.598 78.0055C101.438 77.9447 101.304 77.8304 101.219 77.6821C101.144 77.5465 101.115 77.3907 101.136 77.2375C101.156 77.0843 101.225 76.9416 101.333 76.8303C101.323 76.8233 101.316 76.8138 101.311 76.8029C101.307 76.7925 101.306 76.7814 101.308 76.7705C101.309 76.7595 101.313 76.7492 101.32 76.7403L100.741 76.922C100.56 76.9828 100.363 76.9726 100.189 76.8935C100.016 76.8145 99.8786 76.6725 99.8058 76.4962C99.7462 76.3364 99.7449 76.1607 99.8022 76C99.8595 75.8393 99.9716 75.704 100.119 75.6179C100.112 75.6142 100.106 75.6094 100.101 75.6035L99.8628 75.6781C99.7002 75.7327 99.5237 75.7293 99.3634 75.6685C99.203 75.6077 99.0687 75.4933 98.9831 75.3447C98.8931 75.1803 98.8702 74.9874 98.9192 74.8065C98.9683 74.6255 99.0854 74.4706 99.2461 74.3741C99.2448 74.3693 99.244 74.3644 99.2439 74.3594L97.5345 74.9587C97.4497 74.9884 97.36 75.0011 97.2703 74.9961C97.1806 74.9911 97.0928 74.9685 97.0119 74.9295C96.8485 74.8509 96.723 74.7106 96.663 74.5394C96.603 74.3683 96.6135 74.1803 96.6921 74.0169C96.7707 73.8534 96.911 73.7279 97.0822 73.6679L97.0825 73.6665Z" fill="#E98862"/>
<path opacity="0.2" d="M99.3119 74.4248C99.3198 74.4248 99.3277 74.4235 99.3352 74.4208L100.989 73.8195C100.997 73.8164 101.005 73.8117 101.011 73.8056C101.018 73.7996 101.023 73.7922 101.027 73.7841C101.031 73.776 101.033 73.7672 101.033 73.7583C101.034 73.7493 101.032 73.7404 101.029 73.732C101.026 73.7236 101.021 73.7158 101.015 73.7093C101.009 73.7027 101.002 73.6973 100.994 73.6936C100.986 73.6898 100.977 73.6877 100.968 73.6873C100.959 73.6869 100.95 73.6883 100.942 73.6914L99.2881 74.2927C99.273 74.2982 99.2603 74.3088 99.2523 74.3226C99.2443 74.3365 99.2414 74.3528 99.2442 74.3686C99.247 74.3844 99.2553 74.3987 99.2675 74.409C99.2798 74.4192 99.2954 74.4249 99.3114 74.4248H99.3119Z" fill="#0A0A0A"/>
<path opacity="0.2" d="M100.148 75.6264C100.155 75.6264 100.163 75.6251 100.17 75.6225L101.474 75.1599C101.482 75.1571 101.49 75.1526 101.497 75.1466C101.504 75.1406 101.51 75.1334 101.514 75.1252C101.518 75.1171 101.52 75.1082 101.52 75.0992C101.521 75.0901 101.52 75.081 101.517 75.0725C101.514 75.0639 101.509 75.0561 101.503 75.0494C101.497 75.0427 101.489 75.0372 101.481 75.0334C101.473 75.0296 101.464 75.0275 101.455 75.0271C101.446 75.0268 101.437 75.0283 101.428 75.0315L100.125 75.4941C100.11 75.4995 100.097 75.51 100.089 75.5239C100.081 75.5377 100.078 75.554 100.081 75.5698C100.083 75.5856 100.092 75.6 100.104 75.6104C100.116 75.6207 100.132 75.6264 100.148 75.6264Z" fill="#0A0A0A"/>
<path opacity="0.2" d="M101.375 76.8476C101.383 76.8475 101.391 76.846 101.399 76.8431L102.01 76.6103C102.026 76.6038 102.04 76.5909 102.047 76.5744C102.055 76.5579 102.055 76.5392 102.049 76.5223C102.042 76.5054 102.029 76.4918 102.013 76.4844C101.996 76.4771 101.978 76.4766 101.961 76.483L101.35 76.7159C101.335 76.7217 101.323 76.7324 101.315 76.7462C101.308 76.7601 101.305 76.7762 101.308 76.7919C101.311 76.8075 101.319 76.8216 101.331 76.8318C101.343 76.842 101.359 76.8476 101.375 76.8476H101.375Z" fill="#0A0A0A"/>
<path d="M104.763 70.1317L121.983 70.1201L128.498 54.229L138.215 58.3148L130.087 77.1753L130.008 77.3631C129.61 78.2799 128.94 79.0522 128.089 79.5756C127.238 80.099 126.246 80.3481 125.249 80.2893L104.502 79.0635L104.763 70.1317Z" fill="#367CFF"/>
<path d="M125.535 80.3757C126.5 80.374 127.444 80.0912 128.251 79.5617C129.058 79.0322 129.694 78.279 130.08 77.3942L130.16 77.2063L137.085 61.1361L136.941 61.0735L129.936 77.3328C129.543 78.2334 128.883 78.9919 128.046 79.5065C127.209 80.0211 126.235 80.267 125.254 80.2112L104.583 78.9902L104.839 70.2107L122.036 70.1991L127.045 57.9805L126.9 57.9211L121.931 70.0425L104.687 70.0543L104.422 79.1375L104.498 79.142L125.245 80.3676C125.341 80.3729 125.439 80.3757 125.535 80.3757Z" fill="#0C0C0C"/>
<path d="M37.7001 81.6348L31.1006 146.969L31.4121 147L38.0116 81.6663L37.7001 81.6348Z" fill="#494949"/>
<path d="M144.688 81.634L144.376 81.6655L150.981 146.999L151.292 146.967L144.688 81.634Z" fill="#494949"/>
<path d="M117.403 81.6338L117.091 81.6653L123.695 146.999L124.007 146.967L117.403 81.6338Z" fill="#494949"/>
<path d="M10.4149 81.6345L3.81543 146.968L4.12693 147L10.7264 81.666L10.4149 81.6345Z" fill="#494949"/>
<path d="M4.46313 82.9326L150.207 82.9326C150.915 82.9326 151.489 82.3584 151.489 81.65C151.489 80.9416 150.915 80.3673 150.207 80.3673L4.46313 80.3673C3.7547 80.3673 3.1804 80.9416 3.1804 81.65C3.1804 82.3584 3.7547 82.9326 4.46313 82.9326Z" fill="#0C0C0C"/>
<path opacity="0.8" d="M4.46313 82.9326L150.207 82.9326C150.915 82.9326 151.489 82.3584 151.489 81.65C151.489 80.9416 150.915 80.3673 150.207 80.3673L4.46313 80.3673C3.7547 80.3673 3.1804 80.9416 3.1804 81.65C3.1804 82.3584 3.7547 82.9326 4.46313 82.9326Z" fill="white"/>
<path d="M3.02393 81.65C3.02417 81.2683 3.17589 80.9024 3.44575 80.6325C3.71561 80.3627 4.08155 80.2109 4.4632 80.2107H150.206C150.588 80.2107 150.954 80.3623 151.224 80.6322C151.494 80.9022 151.645 81.2683 151.645 81.65C151.645 82.0317 151.494 82.3978 151.224 82.6677C150.954 82.9376 150.588 83.0892 150.206 83.0892H4.4632C4.08155 83.089 3.71561 82.9373 3.44575 82.6674C3.17589 82.3975 3.02417 82.0316 3.02393 81.65ZM4.4632 80.5238C4.16451 80.5238 3.87807 80.6424 3.66687 80.8536C3.45567 81.0648 3.33701 81.3513 3.33701 81.65C3.33701 81.9487 3.45567 82.2351 3.66687 82.4463C3.87807 82.6575 4.16451 82.7761 4.4632 82.7761H150.206C150.505 82.7761 150.791 82.6575 151.002 82.4463C151.214 82.2351 151.332 81.9487 151.332 81.65C151.332 81.3513 151.214 81.0648 151.002 80.8536C150.791 80.6424 150.505 80.5238 150.206 80.5238H4.4632Z" fill="#0C0C0C"/>
<path d="M4.46345 82.9326L121.878 82.9326C122.587 82.9326 123.161 82.3584 123.161 81.65C123.161 80.9416 122.587 80.3673 121.878 80.3673L4.46345 80.3673C3.75502 80.3673 3.18072 80.9416 3.18072 81.65C3.18072 82.3584 3.75502 82.9326 4.46345 82.9326Z" fill="white"/>
<path d="M3.02393 81.65C3.02417 81.2683 3.17589 80.9024 3.44575 80.6325C3.71561 80.3627 4.08155 80.2109 4.4632 80.2107H121.878C122.26 80.2107 122.626 80.3623 122.896 80.6322C123.166 80.9022 123.318 81.2683 123.318 81.65C123.318 82.0317 123.166 82.3978 122.896 82.6677C122.626 82.9376 122.26 83.0892 121.878 83.0892H4.4632C4.08155 83.089 3.71561 82.9373 3.44575 82.6674C3.17589 82.3975 3.02417 82.0316 3.02393 81.65ZM4.4632 80.5238C4.16451 80.5238 3.87807 80.6424 3.66687 80.8536C3.45567 81.0648 3.33701 81.3513 3.33701 81.65C3.33701 81.9487 3.45567 82.2351 3.66687 82.4463C3.87807 82.6575 4.16451 82.7761 4.4632 82.7761H121.878C122.177 82.7761 122.463 82.6575 122.675 82.4463C122.886 82.2351 123.004 81.9487 123.004 81.65C123.004 81.3513 122.886 81.0648 122.675 80.8536C122.463 80.6424 122.177 80.5238 121.878 80.5238H4.4632Z" fill="#0C0C0C"/>
<path d="M21.295 134.44C21.295 134.44 18.3306 138.803 20.958 141.945C23.5855 145.086 20.608 146.675 20.608 146.675L9.89062 135.308L15.5691 129.954L21.295 134.44Z" fill="#367CFF"/>
<path d="M36.8528 64.289C36.8528 64.289 46.8596 98.7071 44.5011 103.738C42.1824 108.685 21.0194 137.582 21.0194 137.582L13.4087 130.949L32.2314 100.424C32.2314 100.424 26.6596 82.7963 23.6472 73.5516C21.8313 67.9786 18.7758 68.1561 18.4856 62.302L36.8528 64.289Z" fill="#262626"/>
<path d="M25.7726 103.088L28.248 100.27L27.6037 116.817L24.8447 119.439L25.7726 103.088Z" fill="#0A0A0A"/>
<path d="M25.3626 78.8498C25.3626 78.8498 24.1774 71.8146 25.4449 73.3215C29.5666 78.2213 29.9769 93.2994 29.9769 93.2994L25.3626 78.8498Z" fill="#0A0A0A"/>
<path d="M32.2872 138.376C32.2872 138.376 33.1296 142.742 37.2184 142.986C41.3072 143.229 40.4199 146.486 40.4199 146.486H24.7969V138.681L32.2872 138.376Z" fill="#367CFF"/>
<path d="M8.96211 63.4267C8.96211 63.4267 8.89292 63.105 8.85253 64.986C8.82357 66.3143 8.28412 71.0158 10.1492 78.4313C13.6429 92.3248 24.1079 141.163 24.1079 141.163L34.3734 141.077L24.6926 62.9998L8.96211 63.4267Z" fill="#262626"/>
<path d="M8.80352 63.4831L8.77002 63.485C8.77002 63.485 8.79413 62.8383 8.80352 63.4831Z" fill="#333333"/>
<path d="M64.9959 32.7077C64.9341 32.5854 64.8359 32.4852 64.7148 32.4211C64.5937 32.357 64.4556 32.332 64.3198 32.3497C64.321 32.3376 64.3183 32.3254 64.3122 32.3149C64.3059 32.3068 64.2976 32.3005 64.288 32.2966C64.2785 32.2927 64.2681 32.2914 64.2579 32.2929L64.7166 31.9641C64.8537 31.8701 64.9522 31.7298 64.9939 31.5689C65.0356 31.408 65.0177 31.2375 64.9436 31.0887C64.8654 30.9441 64.7364 30.8337 64.5814 30.7789C64.4264 30.7241 64.2566 30.7289 64.105 30.7922C64.1061 30.7858 64.1017 30.7795 64.1007 30.773L64.2886 30.6379C64.4175 30.5488 64.5117 30.418 64.5552 30.2675C64.5987 30.1171 64.5888 29.9562 64.5273 29.8121C64.4869 29.7226 64.4271 29.6432 64.3522 29.5796C64.2774 29.5159 64.1893 29.4697 64.0945 29.4443C63.9996 29.4188 63.9003 29.4147 63.8036 29.4323C63.707 29.4499 63.6154 29.4887 63.5356 29.546L63.1009 29.8577C63.0996 29.855 63.1009 29.852 63.0992 29.8497C63.0975 29.8473 63.0928 29.8464 63.0903 29.8437C63.1901 29.7314 63.2488 29.5885 63.2567 29.4385C63.2646 29.2884 63.2213 29.1402 63.1339 29.0179C62.9287 28.6876 62.4548 28.7551 62.1737 28.9566L59.6145 30.7244L60.0719 29.9542C60.164 29.8061 60.1964 29.6284 60.1627 29.4573C60.1289 29.2861 60.0314 29.1341 59.8899 29.032C59.815 28.9819 59.7307 28.9476 59.6421 28.9311C59.5535 28.9146 59.4624 28.9164 59.3745 28.9363C59.2866 28.9561 59.2037 28.9937 59.1308 29.0467C59.0579 29.0997 58.9966 29.167 58.9506 29.2445L56.4542 33.4488C56.1612 33.942 56.072 34.5301 56.2057 35.0881C56.3394 35.646 56.6853 36.1298 57.1701 36.4368C57.7322 36.7927 58.3879 36.9727 59.0531 36.9536C59.7182 36.9345 60.3625 36.7172 60.9033 36.3295L64.7681 33.5595C64.8965 33.4639 64.9888 33.3278 65.0302 33.1732C65.0715 33.0186 65.0594 32.8546 64.9959 32.7077Z" fill="#E98862"/>
<g opacity="0.25">
<path d="M60.569 31.6042C60.5784 31.6171 60.5925 31.6259 60.6083 31.6286C60.6241 31.6313 60.6403 31.6277 60.6534 31.6186L63.085 29.9343C63.0916 29.9297 63.0973 29.9239 63.1016 29.9171C63.106 29.9104 63.109 29.9028 63.1104 29.8949C63.1118 29.887 63.1117 29.8789 63.11 29.871C63.1083 29.8632 63.105 29.8557 63.1005 29.8491C63.0959 29.8425 63.09 29.8368 63.0833 29.8325C63.0765 29.8281 63.0689 29.8252 63.061 29.8237C63.0531 29.8223 63.045 29.8224 63.0371 29.8241C63.0293 29.8259 63.0218 29.8291 63.0152 29.8337L60.5836 31.5179C60.577 31.5225 60.5713 31.5283 60.567 31.5351C60.5626 31.5418 60.5596 31.5494 60.5581 31.5573C60.5567 31.5652 60.5568 31.5733 60.5585 31.5812C60.5602 31.589 60.5634 31.5965 60.568 31.6031L60.569 31.6042Z" fill="#0C0C0C"/>
</g>
<g opacity="0.25">
<path d="M61.2821 32.6971C61.2916 32.71 61.3057 32.7187 61.3214 32.7214C61.3372 32.724 61.3533 32.7204 61.3665 32.7114L64.0802 30.8317C64.0868 30.8272 64.0925 30.8213 64.0968 30.8146C64.1012 30.8078 64.1042 30.8003 64.1057 30.7924C64.1071 30.7845 64.107 30.7764 64.1053 30.7685C64.1036 30.7606 64.1004 30.7532 64.0958 30.7466C64.0863 30.7337 64.0721 30.7249 64.0563 30.722C64.0405 30.7191 64.0242 30.7223 64.0107 30.7309L61.297 32.6105C61.2904 32.6151 61.2847 32.6209 61.2803 32.6277C61.276 32.6344 61.273 32.642 61.2715 32.6499C61.2701 32.6578 61.2702 32.6659 61.2719 32.6738C61.2735 32.6816 61.2768 32.6891 61.2813 32.6957L61.2821 32.6971Z" fill="#0C0C0C"/>
</g>
<g opacity="0.25">
<path d="M62.0481 33.8851C62.0575 33.898 62.0716 33.9067 62.0873 33.9094C62.1031 33.9121 62.1193 33.9085 62.1324 33.8994L64.2971 32.4002C64.3105 32.3909 64.3196 32.3767 64.3225 32.3607C64.3254 32.3447 64.3218 32.3283 64.3125 32.3149C64.3033 32.3016 64.2891 32.2924 64.2731 32.2896C64.2571 32.2867 64.2407 32.2902 64.2273 32.2995L62.0626 33.7987C62.056 33.8033 62.0503 33.8091 62.046 33.8159C62.0416 33.8226 62.0386 33.8302 62.0371 33.8381C62.0357 33.846 62.0358 33.8541 62.0375 33.8619C62.0392 33.8698 62.0424 33.8773 62.047 33.8839L62.0481 33.8851Z" fill="#0C0C0C"/>
</g>
<path d="M54.9806 32.4912L47.6457 44.9835L38.6956 33.2442L31.2622 39.9452L43.9561 56.3843L44.0394 56.5012C44.5474 57.1971 45.2243 57.7522 46.0062 58.1142C46.7881 58.4762 47.6493 58.6331 48.5086 58.5702C49.3679 58.5073 50.1971 58.2267 50.918 57.7547C51.6388 57.2827 52.2277 56.635 52.629 55.8725L63.0594 36.984L54.9806 32.4912Z" fill="#367CFF"/>
<path d="M46.9262 46.4856C46.9102 46.4856 46.8946 46.4816 46.8806 46.4738C46.8667 46.466 46.855 46.4547 46.8467 46.4411C46.8384 46.4275 46.8337 46.412 46.8331 46.396C46.8325 46.3801 46.836 46.3643 46.8432 46.3501L47.5622 44.9412C47.5751 44.9223 47.5945 44.9087 47.6166 44.9031C47.6388 44.8974 47.6622 44.9 47.6826 44.9104C47.703 44.9209 47.7188 44.9383 47.7272 44.9596C47.7356 44.9809 47.736 45.0045 47.7282 45.026L47.0092 46.4349C47.0013 46.4501 46.9894 46.4629 46.9748 46.4718C46.9601 46.4808 46.9433 46.4856 46.9262 46.4856Z" fill="#0C0C0C"/>
<path d="M38.179 44.9123L37.9551 48.8579L38.1411 48.8685L38.365 44.9228L38.179 44.9123Z" fill="#0C0C0C"/>
<path d="M14.5444 16.3571C14.5444 16.3571 14.2 20.7489 13.1934 22.332C10.2934 26.8898 9.4085 32.0447 12.2285 34.7758C15.0485 37.5068 33.2307 37.7548 34.6799 31.5649C35.9001 26.3537 33.4179 25.7632 32.8622 21.4462C32.6107 19.4928 31.9044 15.3948 31.9044 15.3948" fill="#0A0A0A"/>
<path d="M30.0511 30.5755C30.0198 30.5713 29.6713 36.3511 22.9571 35.8472C18.3089 35.499 16.6514 30.5673 16.5449 30.5673C17.0459 30.4608 17.89 30.306 18.1126 30.1872C18.8446 29.7938 19.7502 29.3846 19.9861 27.9631C20.1221 27.1439 19.8914 22.9528 19.9624 22.124L27.0981 23.7166C26.9983 25.4672 26.3006 29.5256 28.7463 30.2445C29.1525 30.3625 29.5909 30.4718 30.0511 30.5755Z" fill="#E98862"/>
<path opacity="0.52" d="M27.1972 28.5851C27.0855 28.2249 27.0136 27.8536 26.9826 27.4777C26.9043 26.62 26.92 25.7564 27.0295 24.9021C25.5793 24.7063 24.2131 24.1077 23.086 23.1743C22.9536 23.6637 22.225 25.8016 22.4266 26.2667C22.8085 27.1457 24.5996 28.5851 27.1972 28.5851Z" fill="#0C0C0C"/>
<path d="M26.2518 26.766C23.4358 27.0056 19.8093 25.8384 19.0988 22.0836L18.4569 18.6959C17.7464 14.9411 19.1424 11.5242 22.6775 10.8552C26.2128 10.1861 29.4312 12.7298 30.1417 16.4845L30.4255 17.9844C30.6986 19.425 31.2762 26.3385 26.2518 26.766Z" fill="#E98862"/>
<path d="M29.4188 18.1478C29.6635 18.1478 29.8619 17.9494 29.8619 17.7047C29.8619 17.4599 29.6635 17.2615 29.4188 17.2615C29.174 17.2615 28.9756 17.4599 28.9756 17.7047C28.9756 17.9494 29.174 18.1478 29.4188 18.1478Z" fill="#0C0C0C"/>
<path d="M24.8787 18.7543C25.1235 18.7543 25.3219 18.5559 25.3219 18.3111C25.3219 18.0663 25.1235 17.8679 24.8787 17.8679C24.634 17.8679 24.4355 18.0663 24.4355 18.3111C24.4355 18.5559 24.634 18.7543 24.8787 18.7543Z" fill="#0C0C0C"/>
<path d="M27.37 21.5599C27.3723 21.5597 27.3746 21.5594 27.3769 21.5589C27.52 21.5307 27.6616 21.4947 27.8008 21.4509C28.0087 21.3841 28.2809 21.2734 28.2455 21.0857C28.2051 20.8717 27.1821 18.6749 27.0656 18.4244C27.0606 18.4136 27.0535 18.4039 27.0447 18.3959C27.0359 18.3878 27.0256 18.3816 27.0144 18.3775C27.0032 18.3735 26.9913 18.3716 26.9794 18.3722C26.9674 18.3727 26.9557 18.3756 26.9449 18.3806C26.9341 18.3857 26.9244 18.3928 26.9164 18.4016C26.9083 18.4104 26.9021 18.4207 26.898 18.4319C26.894 18.4431 26.8921 18.455 26.8927 18.4669C26.8932 18.4788 26.8961 18.4905 26.9011 18.5013C27.3374 19.437 28.0398 20.9755 28.0671 21.1195C28.0436 21.1862 27.6986 21.3132 27.343 21.3805C27.3201 21.385 27.2998 21.3981 27.2863 21.4173C27.2728 21.4364 27.2673 21.4599 27.2707 21.483C27.2742 21.5062 27.2865 21.527 27.3049 21.5414C27.3234 21.5557 27.3467 21.5623 27.37 21.5599Z" fill="#0C0C0C"/>
<path d="M26.8465 23.181C27.4231 23.1063 27.9741 22.8971 28.455 22.5704C28.475 22.5572 28.4888 22.5366 28.4937 22.5132C28.4985 22.4897 28.4939 22.4654 28.4808 22.4453C28.4678 22.4253 28.4473 22.4112 28.4239 22.4061C28.4005 22.401 28.3761 22.4054 28.3559 22.4183C27.3152 23.0963 26.2811 23.206 25.3659 22.7354C25.3474 22.7254 25.3284 22.7164 25.309 22.7084C25.2864 22.7004 25.2615 22.7017 25.2399 22.712C25.2182 22.7222 25.2015 22.7406 25.1934 22.7632C25.1852 22.7857 25.1863 22.8105 25.1964 22.8323C25.2065 22.854 25.2248 22.8708 25.2473 22.8792C25.2545 22.8821 25.2664 22.8885 25.283 22.8972C25.7643 23.1452 26.3087 23.244 26.8465 23.181Z" fill="#0C0C0C"/>
<path d="M15.6294 19.8765L18.7985 19.2956C21.1985 18.325 21.9244 14.1695 21.9244 14.1695C21.9244 14.1695 24.8396 17.0108 31.9044 15.3948C31.9044 15.3948 30.4878 5.54236 20.0507 8.40712C16.685 9.33074 14.2698 12.7223 14.5707 17.2549C14.7816 20.4313 15.6294 19.8765 15.6294 19.8765Z" fill="#0A0A0A"/>
<path d="M19.5348 23.186C18.4604 23.3895 17.3721 22.4049 17.1688 21.3305C16.9654 20.2561 17.7242 19.4989 18.7986 19.2954L19.4883 19.9105L20.4589 23.011L19.5348 23.186Z" fill="#E98862"/>
<path d="M27.7132 16.6289C28.0268 16.4265 28.3891 16.3122 28.7621 16.2979C28.9456 16.2898 29.1293 16.3092 29.307 16.3556C29.483 16.4008 29.6526 16.468 29.8119 16.5556C29.8336 16.5671 29.85 16.5865 29.8577 16.6099C29.8653 16.6332 29.8637 16.6586 29.853 16.6807C29.8423 16.7028 29.8235 16.7199 29.8005 16.7285C29.7775 16.737 29.752 16.7362 29.7295 16.7264L29.7226 16.7233C29.5754 16.651 29.4198 16.5975 29.2593 16.5639C29.1006 16.5299 28.9377 16.5202 28.7762 16.535C28.4555 16.5618 28.1477 16.6729 27.8839 16.8571L27.8754 16.8634C27.8447 16.8837 27.8074 16.8913 27.7712 16.8848C27.7351 16.8782 27.7028 16.8578 27.6813 16.828C27.6597 16.7982 27.6506 16.7612 27.6557 16.7248C27.6608 16.6884 27.6798 16.6554 27.7087 16.6326L27.7132 16.6289Z" fill="#0C0C0C"/>
<path d="M24.8866 17.2945C24.5742 17.218 24.2471 17.2255 23.9386 17.3162C23.7826 17.3609 23.6342 17.4288 23.4985 17.5177C23.3609 17.607 23.2351 17.7132 23.1241 17.8339L23.1191 17.8389C23.1017 17.8564 23.0782 17.8664 23.0536 17.8668C23.029 17.8673 23.0052 17.8581 22.9872 17.8413C22.9692 17.8246 22.9584 17.8015 22.9572 17.7769C22.9559 17.7523 22.9642 17.7282 22.9804 17.7096C23.0971 17.5704 23.231 17.4465 23.3788 17.3408C23.5278 17.2335 23.6921 17.149 23.8661 17.0904C24.2189 16.9691 24.5978 16.9448 24.9632 17.0202C25.0001 17.0282 25.0324 17.0505 25.0529 17.0822C25.0734 17.114 25.0805 17.1526 25.0725 17.1895C25.0646 17.2265 25.0422 17.2588 25.0105 17.2793C24.9787 17.2998 24.9402 17.3068 24.9032 17.2989L24.8974 17.2975L24.8866 17.2945Z" fill="#0C0C0C"/>
<path d="M26.9694 24.0336C27.0739 24.0215 27.1772 24.0006 27.2781 23.971C27.2896 23.9677 27.3003 23.9622 27.3096 23.9548C27.3189 23.9473 27.3267 23.9381 27.3325 23.9277C27.3382 23.9173 27.3419 23.9058 27.3432 23.8939C27.3446 23.8821 27.3436 23.8701 27.3403 23.8586C27.337 23.8472 27.3314 23.8365 27.324 23.8271C27.3166 23.8178 27.3074 23.81 27.2969 23.8043C27.2865 23.7985 27.275 23.7948 27.2632 23.7935C27.2513 23.7922 27.2393 23.7932 27.2279 23.7965C26.6203 23.9713 26.2748 23.7397 26.2603 23.7296C26.2405 23.7158 26.2161 23.7103 26.1924 23.7145C26.1686 23.7186 26.1475 23.7321 26.1337 23.7518C26.1198 23.7715 26.1144 23.7959 26.1185 23.8197C26.1227 23.8434 26.1361 23.8645 26.1558 23.8784C26.4009 24.0226 26.6884 24.0774 26.9694 24.0336Z" fill="#0C0C0C"/>
<path d="M18.8052 19.255L18.7739 19.1673C22.7891 17.7259 21.8073 13.7857 21.797 13.7461L21.887 13.7224C21.8975 13.7631 22.9025 17.7847 18.8052 19.255Z" fill="#0C0C0C"/>
<path opacity="0.1" d="M24.5207 21.8367C24.9843 21.7868 25.3305 21.4707 25.2939 21.1307C25.2573 20.7906 24.8518 20.5554 24.3882 20.6052C23.9246 20.6551 23.5785 20.9712 23.6151 21.3113C23.6517 21.6514 24.0571 21.8866 24.5207 21.8367Z" fill="#0C0C0C"/>
<path opacity="0.1" d="M29.4274 20.5357C29.465 20.8752 29.8703 21.1102 30.3338 21.0609C30.4139 21.0523 30.493 21.0353 30.5696 21.0103C30.5957 20.6063 30.6009 20.2174 30.5938 19.8572C30.4657 19.8237 30.3324 19.8143 30.2008 19.8297C29.7371 19.8788 29.3911 20.1943 29.4274 20.5357Z" fill="#0C0C0C"/>
<path d="M38.3931 43.3002C38.1817 45.7847 37.1528 61.2857 36.9496 64.3462H8.86134C8.70307 61.586 8.05686 49.5164 7.45651 44.1188C6.88356 38.9685 5.75925 36.3894 6.5833 34.867C7.92959 32.3779 11.6098 30.9402 14.1189 30.6005C15.6511 30.3931 17.9556 30.2444 17.9556 30.2444C17.9556 30.2444 18.1508 34.1917 22.8034 34.4113C29.137 34.7101 28.714 30.2444 28.7455 30.2444C29.7715 30.2444 35.6334 30.8939 37.0669 31.7439C40.9746 34.0572 38.8421 38.0344 38.3931 43.3002Z" fill="#367CFF"/>
<path d="M55.8574 45.0355L53.264 57.6409C53.2113 57.8968 53.0724 58.127 52.8706 58.293C52.6688 58.4589 52.4162 58.5508 52.1549 58.5531L34.2966 58.7051C34.1262 58.7065 33.9577 58.6697 33.8034 58.5976C33.6491 58.5255 33.5128 58.4198 33.4046 58.2882C33.2964 58.1566 33.219 58.0025 33.1781 57.8371C33.1371 57.6718 33.1336 57.4994 33.1679 57.3325L35.7615 44.7271C35.8142 44.4711 35.9531 44.241 36.1549 44.075C36.3567 43.909 36.6093 43.8172 36.8706 43.8149L54.7289 43.6629C54.8993 43.6615 55.0677 43.6983 55.222 43.7704C55.3763 43.8426 55.5126 43.9483 55.6207 44.0799C55.7289 44.2114 55.8063 44.3655 55.8473 44.5309C55.8882 44.6962 55.8917 44.8686 55.8574 45.0355Z" fill="#0C0C0C"/>
<path d="M39.205 53.9892C39.2146 54.1552 39.1639 54.3191 39.0622 54.4506C38.9604 54.5821 38.8145 54.6724 38.6515 54.7047L38.1018 54.8259C38.1116 54.8291 38.1205 54.8347 38.1276 54.8422C38.1348 54.8497 38.1399 54.8588 38.1427 54.8688C38.1441 54.8805 38.1415 54.8923 38.1353 54.9023C38.2675 54.9394 38.3848 55.0168 38.4709 55.1237C38.5571 55.2305 38.6078 55.3616 38.6161 55.4986C38.6168 55.6583 38.5637 55.8136 38.4653 55.9394C38.3669 56.0652 38.229 56.1542 38.0738 56.1919L33.4315 57.2224C33.1941 57.2758 32.9516 57.3026 32.7084 57.3026C32.1666 57.3025 31.6329 57.1707 31.1534 56.9184C30.6738 56.6661 30.2629 56.301 29.9559 55.8546C29.6303 55.3822 29.5019 54.8015 29.598 54.2359C29.6941 53.6703 30.007 53.1646 30.4703 52.8262L34.4193 49.9395C34.5062 49.8759 34.6072 49.8343 34.7137 49.8184L34.3502 51.5832L34.4471 51.5609L34.4676 51.5571L37.4962 50.9402C37.8334 50.8656 38.2956 50.9887 38.3553 51.3725C38.3872 51.5195 38.3685 51.673 38.3022 51.808C38.2358 51.943 38.1258 52.0516 37.9899 52.1161C37.9918 52.118 37.9955 52.1199 37.9955 52.1236C37.9955 52.1274 37.9937 52.1293 37.9937 52.1329L38.5173 52.0173C38.6131 51.9961 38.7124 51.9964 38.8081 52.0182C38.9038 52.04 38.9935 52.0827 39.0707 52.1433C39.1479 52.2039 39.2106 52.2809 39.2545 52.3687C39.2983 52.4565 39.3222 52.5529 39.3243 52.651C39.3243 52.8077 39.2701 52.9595 39.1709 53.0808C39.0717 53.202 38.9337 53.2852 38.7801 53.3163L38.5546 53.3666C38.5528 53.3741 38.5546 53.3823 38.551 53.3871C38.7153 53.3883 38.8732 53.4507 38.9941 53.562C39.115 53.6732 39.1902 53.8255 39.205 53.9892Z" fill="#E98862"/>
<g opacity="0.25">
<path d="M34.979 52.7448C34.9825 52.7605 34.9919 52.7742 35.0054 52.783C35.0189 52.7917 35.0352 52.7949 35.051 52.7917L37.9486 52.1969C37.9646 52.1936 37.9785 52.1841 37.9874 52.1706C37.9963 52.157 37.9995 52.1404 37.9962 52.1245C37.993 52.1086 37.9835 52.0947 37.9699 52.0858C37.9564 52.0768 37.9398 52.0737 37.9239 52.0769L35.0263 52.6718C35.0105 52.6752 34.9967 52.6847 34.9879 52.6982C34.9791 52.7117 34.976 52.7282 34.9793 52.744L34.979 52.7448Z" fill="#0C0C0C"/>
</g>
<g opacity="0.25">
<path d="M35.2057 54.03C35.2093 54.0456 35.2188 54.0591 35.2323 54.0678C35.2457 54.0764 35.262 54.0794 35.2777 54.0762L38.5114 53.4131C38.5272 53.4096 38.541 53.4001 38.5498 53.3866C38.5586 53.373 38.5617 53.3566 38.5584 53.3407C38.5546 53.3251 38.5451 53.3116 38.5316 53.3028C38.5181 53.2941 38.5018 53.2908 38.4861 53.2938L35.2523 53.9569C35.2366 53.9604 35.2228 53.9699 35.214 53.9834C35.2052 53.997 35.2021 54.0134 35.2054 54.0292L35.2057 54.03Z" fill="#0C0C0C"/>
</g>
<g opacity="0.25">
<path d="M35.4434 55.4234C35.4468 55.4391 35.4563 55.4529 35.4697 55.4617C35.4832 55.4704 35.4996 55.4736 35.5154 55.4704L38.0948 54.9414C38.1027 54.9399 38.1103 54.9368 38.1171 54.9323C38.1238 54.9279 38.1296 54.9221 38.1342 54.9153C38.1387 54.9086 38.1418 54.901 38.1434 54.8931C38.1449 54.8851 38.1449 54.8769 38.1433 54.869C38.1416 54.861 38.1384 54.8535 38.1339 54.8468C38.1293 54.8401 38.1235 54.8344 38.1167 54.83C38.1099 54.8255 38.1022 54.8225 38.0943 54.8211C38.0863 54.8196 38.0781 54.8198 38.0702 54.8215L35.4906 55.3505C35.4748 55.3539 35.4611 55.3634 35.4523 55.3769C35.4435 55.3905 35.4404 55.407 35.4437 55.4228L35.4434 55.4234Z" fill="#0C0C0C"/>
</g>
<path d="M33.1441 59.0595L7.95826 63.6109C7.17234 63.6964 6.3773 63.5987 5.63551 63.3253C4.89372 63.052 4.22536 62.6104 3.68288 62.0354C3.14039 61.4603 2.73853 60.7674 2.50883 60.011C2.27913 59.2545 2.22784 58.4551 2.35897 57.6755L5.88498 36.7178C6.1102 35.3796 6.85778 34.1857 7.96326 33.3988C8.51064 33.0091 9.12941 32.731 9.78424 32.5805C10.4391 32.43 11.1171 32.4099 11.7797 32.5214C12.4423 32.6329 13.0765 32.8738 13.646 33.2304C14.2154 33.587 14.7091 34.0523 15.0988 34.5997C15.4885 35.1471 15.7665 35.7658 15.917 36.4207C16.0676 37.0755 16.0877 37.7536 15.9762 38.4162L13.5726 52.8427L32.0375 50.5238L33.1441 59.0595Z" fill="#367CFF"/>
<path d="M7.95821 63.7038C7.9359 63.7022 7.91491 63.6927 7.899 63.677C7.88309 63.6612 7.87332 63.6404 7.87143 63.6181C7.86954 63.5958 7.87567 63.5736 7.88871 63.5554C7.90174 63.5372 7.92084 63.5243 7.94255 63.519L33.041 58.9834L31.9571 50.6277L13.5836 52.935C13.5693 52.9368 13.5548 52.9353 13.5412 52.9304C13.5276 52.9256 13.5153 52.9176 13.5054 52.9071C13.4953 52.8967 13.4878 52.884 13.4835 52.8701C13.4792 52.8563 13.4782 52.8416 13.4806 52.8273L15.009 43.6068C15.0108 43.5947 15.0151 43.583 15.0216 43.5726C15.028 43.5621 15.0365 43.5531 15.0465 43.5459C15.0565 43.5388 15.0678 43.5337 15.0797 43.5311C15.0917 43.5284 15.1041 43.5281 15.1162 43.5303C15.1283 43.5323 15.1398 43.5366 15.1502 43.5431C15.1606 43.5496 15.1696 43.558 15.1767 43.568C15.1839 43.5779 15.1889 43.5892 15.1917 43.6011C15.1944 43.6131 15.1948 43.6254 15.1928 43.6375L13.6848 52.7348L32.0257 50.4314C32.0501 50.4285 32.0747 50.4353 32.0942 50.4503C32.1136 50.4654 32.1264 50.4875 32.1298 50.5118L33.237 59.0476C33.2399 59.0712 33.2337 59.0951 33.2196 59.1144C33.2055 59.1336 33.1847 59.1468 33.1612 59.1512L7.97496 63.7024C7.96942 63.7034 7.96382 63.7038 7.95821 63.7038Z" fill="#0C0C0C"/>
<path d="M13.5576 52.7509L11.9375 53.0103L11.967 53.1944L13.5871 52.935L13.5576 52.7509Z" fill="#0C0C0C"/>
<path d="M98.9235 14.2279C98.9257 12.3326 98.5488 10.4561 97.8149 8.70865C97.081 6.96124 96.0051 5.37826 94.6503 4.05288C93.2955 2.7275 91.6893 1.6865 89.9262 0.991119C88.1631 0.295743 86.2788 -0.0399532 84.384 0.00378516C76.6919 0.176767 70.4786 6.55924 70.5005 14.2534C70.5042 16.2395 70.9253 18.2026 71.7366 20.0154C72.548 21.8283 73.7314 23.4502 75.21 24.7762C78.3916 27.638 80.2805 31.663 80.2755 35.9423V35.958L89.0983 35.9682V35.9525C89.1032 31.6788 90.9914 27.6556 94.1787 24.8075C95.6709 23.4784 96.8652 21.8486 97.6829 20.0253C98.5007 18.2019 98.9235 16.2262 98.9235 14.2279Z" fill="#0CBC8B"/>
<path d="M88.964 15.6389C88.818 15.451 88.5641 15.3342 88.2098 15.2945C87.6093 15.2273 86.9236 15.5675 86.3346 16.2303L86.2774 16.2929L86.233 16.2218C86.1539 16.0937 86.0638 15.9727 85.9639 15.8601C85.5398 15.3851 84.7755 14.9001 83.5374 15.2823C83.1214 15.4034 82.7387 15.6184 82.4189 15.9108L82.3757 15.9515L82.3327 15.9108C82.2335 15.8206 82.1259 15.7402 82.0113 15.6708C81.3156 15.2467 80.5397 15.3483 80.0117 15.5083C79.8652 15.553 79.7401 15.6497 79.6599 15.7802C79.5797 15.9106 79.5499 16.0659 79.5762 16.2168L83.0346 35.9823C83.0403 36.0155 83.059 36.0451 83.0866 36.0645C83.1141 36.084 83.1482 36.0917 83.1814 36.0859C83.2147 36.0802 83.2442 36.0615 83.2637 36.034C83.2831 36.0064 83.2908 35.9723 83.2851 35.9391L79.8261 16.1743C79.8101 16.0843 79.8277 15.9917 79.8754 15.9138C79.9231 15.836 79.9976 15.7783 80.085 15.7516C80.5637 15.6069 81.2631 15.5129 81.879 15.8887C81.9802 15.9498 82.075 16.0208 82.1622 16.1007L82.2054 16.1401L82.1697 16.1858C81.8751 16.5746 81.7108 17.0465 81.7001 17.5342C81.667 18.362 82.0263 19.1898 82.5011 19.3776C82.5927 19.4152 82.6929 19.4269 82.7907 19.4114C82.8885 19.396 82.9803 19.354 83.0559 19.2901C83.2171 19.158 83.4629 18.8089 83.3048 17.957C83.1639 17.2067 82.9214 16.6107 82.5823 16.1821L82.5456 16.1364L82.5888 16.0957C82.8814 15.8294 83.2316 15.6343 83.6119 15.5255C84.4894 15.2552 85.2372 15.4278 85.773 16.0296C85.8933 16.1652 85.9981 16.3139 86.0853 16.4728L86.1055 16.5083L86.0814 16.5413C86.0345 16.604 85.9887 16.6683 85.9443 16.7344C85.4314 17.4961 85.0226 18.5803 85.3375 19.1619C85.3996 19.2746 85.4928 19.3671 85.6061 19.4282C85.7193 19.4892 85.8478 19.5164 85.9761 19.5063H85.9875C86.2491 19.5025 86.4687 19.3286 86.6046 19.0188C86.8707 18.4132 86.7924 17.3861 86.4205 16.5748L86.4039 16.5393L86.4294 16.5088C86.9435 15.8867 87.5276 15.5401 88.0506 15.5401C88.0951 15.5401 88.1383 15.5426 88.1815 15.5464C88.8493 15.6226 88.839 15.969 88.8366 16.0085L86.0129 35.9474C86.0105 35.9639 86.0115 35.9807 86.0156 35.9969C86.0198 36.013 86.0271 36.0282 86.0371 36.0415C86.0471 36.0548 86.0597 36.066 86.0741 36.0745C86.0885 36.0829 86.1044 36.0885 86.1209 36.0908C86.154 36.0943 86.1872 36.0852 86.2139 36.0652C86.2405 36.0451 86.2585 36.0157 86.2643 35.9829L89.0866 16.0473C89.1003 15.9004 89.0563 15.754 88.964 15.6389ZM83.0546 18.0027C83.1943 18.753 82.9898 19.0158 82.8946 19.0933C82.8421 19.1387 82.775 19.1639 82.7055 19.1644C82.6677 19.1639 82.6302 19.1566 82.595 19.1428C82.2675 19.0119 81.9219 18.3239 81.9532 17.5443C81.9662 17.1348 82.0957 16.7375 82.3265 16.399L82.376 16.328L82.4294 16.3978C82.7551 16.8793 82.9688 17.4277 83.0546 18.0027ZM86.3721 18.9168C86.2757 19.1359 86.145 19.2494 85.9837 19.2519H85.9596C85.8797 19.2607 85.799 19.2453 85.728 19.2077C85.6569 19.1702 85.5987 19.1122 85.5609 19.0412C85.3417 18.635 85.5964 17.7043 86.1558 16.8765L86.2243 16.7749L86.2751 16.879C86.5462 17.5886 86.5867 18.4266 86.3721 18.9166V18.9168Z" fill="white"/>
<path d="M80.2812 35.9453L89.1041 35.9541L89.1036 36.4698C89.1024 37.6398 88.6365 38.7614 87.8084 39.5878C86.9803 40.4143 85.8577 40.878 84.6877 40.8768C83.5178 40.8756 82.3962 40.4097 81.5697 39.5816C80.7432 38.7535 80.2796 37.631 80.2807 36.461L80.2812 35.9453Z" fill="#262626"/>
</svg>
