<svg width="254" height="32" viewBox="0 0 254 32" fill="none" xmlns="http://www.w3.org/2000/svg">
<path d="M7.904 25.224C6.47467 25.224 5.09867 25.0427 3.776 24.68C2.47467 24.296 1.44 23.8373 0.672 23.304L2.208 20.264C2.976 20.7547 3.89333 21.16 4.96 21.48C6.02667 21.8 7.09333 21.96 8.16 21.96C9.41867 21.96 10.3253 21.7893 10.88 21.448C11.456 21.1067 11.744 20.648 11.744 20.072C11.744 19.6027 11.552 19.2507 11.168 19.016C10.784 18.76 10.2827 18.568 9.664 18.44C9.04533 18.312 8.352 18.1947 7.584 18.088C6.83733 17.9813 6.08 17.8427 5.312 17.672C4.56533 17.48 3.88267 17.2133 3.264 16.872C2.64533 16.5093 2.144 16.0293 1.76 15.432C1.376 14.8347 1.184 14.0453 1.184 13.064C1.184 11.976 1.49333 11.0373 2.112 10.248C2.73067 9.43733 3.59467 8.81867 4.704 8.392C5.83467 7.944 7.168 7.72 8.704 7.72C9.856 7.72 11.0187 7.848 12.192 8.104C13.3653 8.36 14.336 8.72267 15.104 9.192L13.568 12.232C12.7573 11.7413 11.936 11.4107 11.104 11.24C10.2933 11.048 9.48267 10.952 8.672 10.952C7.456 10.952 6.54933 11.1333 5.952 11.496C5.376 11.8587 5.088 12.3173 5.088 12.872C5.088 13.384 5.28 13.768 5.664 14.024C6.048 14.28 6.54933 14.4827 7.168 14.632C7.78667 14.7813 8.46933 14.9093 9.216 15.016C9.984 15.1013 10.7413 15.24 11.488 15.432C12.2347 15.624 12.9173 15.8907 13.536 16.232C14.176 16.552 14.688 17.0107 15.072 17.608C15.456 18.2053 15.648 18.984 15.648 19.944C15.648 21.0107 15.328 21.9387 14.688 22.728C14.0693 23.5173 13.184 24.136 12.032 24.584C10.88 25.0107 9.504 25.224 7.904 25.224ZM26.3248 25.224C24.8741 25.224 23.5941 24.9573 22.4848 24.424C21.3754 23.8693 20.5114 23.0373 19.8928 21.928C19.2741 20.7973 18.9648 19.3787 18.9648 17.672V7.912H22.9648V17.128C22.9648 18.664 23.3061 19.816 23.9888 20.584C24.6928 21.3307 25.6848 21.704 26.9648 21.704C27.9034 21.704 28.7141 21.512 29.3968 21.128C30.1008 20.744 30.6448 20.168 31.0288 19.4C31.4341 18.632 31.6368 17.6827 31.6368 16.552V7.912H35.6368V25H31.8288V20.392L32.5008 21.8C31.9248 22.9093 31.0821 23.7627 29.9728 24.36C28.8634 24.936 27.6474 25.224 26.3248 25.224ZM50.346 25.224C48.9593 25.224 47.69 24.904 46.538 24.264C45.4073 23.624 44.5007 22.664 43.818 21.384C43.1567 20.0827 42.826 18.44 42.826 16.456C42.826 14.4507 43.146 12.808 43.786 11.528C44.4473 10.248 45.3433 9.29867 46.474 8.68C47.6047 8.04 48.8953 7.72 50.346 7.72C52.0313 7.72 53.514 8.08267 54.794 8.808C56.0953 9.53333 57.1193 10.5467 57.866 11.848C58.634 13.1493 59.018 14.6853 59.018 16.456C59.018 18.2267 58.634 19.7733 57.866 21.096C57.1193 22.3973 56.0953 23.4107 54.794 24.136C53.514 24.8613 52.0313 25.224 50.346 25.224ZM40.874 31.208V7.912H44.682V11.944L44.554 16.488L44.874 21.032V31.208H40.874ZM49.898 21.8C50.858 21.8 51.7113 21.5867 52.458 21.16C53.226 20.7333 53.834 20.1147 54.282 19.304C54.73 18.4933 54.954 17.544 54.954 16.456C54.954 15.3467 54.73 14.3973 54.282 13.608C53.834 12.7973 53.226 12.1787 52.458 11.752C51.7113 11.3253 50.858 11.112 49.898 11.112C48.938 11.112 48.074 11.3253 47.306 11.752C46.538 12.1787 45.93 12.7973 45.482 13.608C45.034 14.3973 44.81 15.3467 44.81 16.456C44.81 17.544 45.034 18.4933 45.482 19.304C45.93 20.1147 46.538 20.7333 47.306 21.16C48.074 21.5867 48.938 21.8 49.898 21.8ZM70.8435 25.224C68.9448 25.224 67.2808 24.8507 65.8515 24.104C64.4435 23.336 63.3448 22.2907 62.5555 20.968C61.7875 19.6453 61.4035 18.1413 61.4035 16.456C61.4035 14.7493 61.7768 13.2453 62.5235 11.944C63.2915 10.6213 64.3368 9.58667 65.6595 8.84C67.0035 8.09333 68.5288 7.72 70.2355 7.72C71.8995 7.72 73.3822 8.08267 74.6835 8.808C75.9848 9.53333 77.0088 10.5573 77.7555 11.88C78.5022 13.2027 78.8755 14.76 78.8755 16.552C78.8755 16.7227 78.8648 16.9147 78.8435 17.128C78.8435 17.3413 78.8328 17.544 78.8115 17.736H64.5715V15.08H76.6995L75.1315 15.912C75.1528 14.9307 74.9502 14.0667 74.5235 13.32C74.0968 12.5733 73.5102 11.9867 72.7635 11.56C72.0382 11.1333 71.1955 10.92 70.2355 10.92C69.2542 10.92 68.3902 11.1333 67.6435 11.56C66.9182 11.9867 66.3422 12.584 65.9155 13.352C65.5102 14.0987 65.3075 14.984 65.3075 16.008V16.648C65.3075 17.672 65.5422 18.5787 66.0115 19.368C66.4808 20.1573 67.1422 20.7653 67.9955 21.192C68.8488 21.6187 69.8302 21.832 70.9395 21.832C71.8995 21.832 72.7635 21.6827 73.5315 21.384C74.2995 21.0853 74.9822 20.616 75.5795 19.976L77.7235 22.44C76.9555 23.336 75.9848 24.0293 74.8115 24.52C73.6595 24.9893 72.3368 25.224 70.8435 25.224ZM82.7178 25V7.912H86.5258V12.616L86.0778 11.24C86.5898 10.088 87.3898 9.21333 88.4778 8.616C89.5871 8.01867 90.9631 7.72 92.6058 7.72V11.528C92.4351 11.4853 92.2751 11.464 92.1258 11.464C91.9764 11.4427 91.8271 11.432 91.6778 11.432C90.1631 11.432 88.9578 11.88 88.0618 12.776C87.1658 13.6507 86.7178 14.9627 86.7178 16.712V25H82.7178ZM101.168 25L93.84 7.912H98L104.304 22.984H102.256L108.784 7.912H112.624L105.296 25H101.168ZM115.124 25V7.912H119.124V25H115.124ZM117.14 5.096C116.393 5.096 115.775 4.86133 115.284 4.392C114.815 3.92267 114.58 3.35733 114.58 2.696C114.58 2.01333 114.815 1.448 115.284 0.999998C115.775 0.530666 116.393 0.296 117.14 0.296C117.887 0.296 118.495 0.519999 118.964 0.967999C119.455 1.39467 119.7 1.93867 119.7 2.6C119.7 3.304 119.465 3.90133 118.996 4.392C118.527 4.86133 117.908 5.096 117.14 5.096ZM122.966 25V22.472L133.494 9.736L134.23 11.112H123.158V7.912H137.43V10.44L126.902 23.176L126.102 21.8H137.718V25H122.966ZM149.187 25.224C147.289 25.224 145.625 24.8507 144.195 24.104C142.787 23.336 141.689 22.2907 140.899 20.968C140.131 19.6453 139.747 18.1413 139.747 16.456C139.747 14.7493 140.121 13.2453 140.867 11.944C141.635 10.6213 142.681 9.58667 144.003 8.84C145.347 8.09333 146.873 7.72 148.579 7.72C150.243 7.72 151.726 8.08267 153.027 8.808C154.329 9.53333 155.353 10.5573 156.099 11.88C156.846 13.2027 157.219 14.76 157.219 16.552C157.219 16.7227 157.209 16.9147 157.187 17.128C157.187 17.3413 157.177 17.544 157.155 17.736H142.915V15.08H155.043L153.475 15.912C153.497 14.9307 153.294 14.0667 152.867 13.32C152.441 12.5733 151.854 11.9867 151.107 11.56C150.382 11.1333 149.539 10.92 148.579 10.92C147.598 10.92 146.734 11.1333 145.987 11.56C145.262 11.9867 144.686 12.584 144.259 13.352C143.854 14.0987 143.651 14.984 143.651 16.008V16.648C143.651 17.672 143.886 18.5787 144.355 19.368C144.825 20.1573 145.486 20.7653 146.339 21.192C147.193 21.6187 148.174 21.832 149.283 21.832C150.243 21.832 151.107 21.6827 151.875 21.384C152.643 21.0853 153.326 20.616 153.923 19.976L156.067 22.44C155.299 23.336 154.329 24.0293 153.155 24.52C152.003 24.9893 150.681 25.224 149.187 25.224Z" fill="black"/>
<path d="M170.758 7.72C172.123 7.72 173.339 7.98667 174.406 8.52C175.494 9.05333 176.347 9.87467 176.966 10.984C177.584 12.072 177.894 13.48 177.894 15.208V25H173.894V15.72C173.894 14.2053 173.531 13.0747 172.806 12.328C172.102 11.5813 171.11 11.208 169.83 11.208C168.891 11.208 168.059 11.4 167.334 11.784C166.608 12.168 166.043 12.744 165.638 13.512C165.254 14.2587 165.062 15.208 165.062 16.36V25H161.062V1.256H165.062V12.52L164.198 11.112C164.795 10.024 165.659 9.192 166.79 8.616C167.942 8.01867 169.264 7.72 170.758 7.72ZM190.679 25.224C188.93 25.224 187.372 24.8507 186.007 24.104C184.642 23.336 183.564 22.2907 182.775 20.968C181.986 19.6453 181.591 18.1413 181.591 16.456C181.591 14.7493 181.986 13.2453 182.775 11.944C183.564 10.6213 184.642 9.58667 186.007 8.84C187.372 8.09333 188.93 7.72 190.679 7.72C192.45 7.72 194.018 8.09333 195.383 8.84C196.77 9.58667 197.847 10.6107 198.615 11.912C199.404 13.2133 199.799 14.728 199.799 16.456C199.799 18.1413 199.404 19.6453 198.615 20.968C197.847 22.2907 196.77 23.336 195.383 24.104C194.018 24.8507 192.45 25.224 190.679 25.224ZM190.679 21.8C191.66 21.8 192.535 21.5867 193.303 21.16C194.071 20.7333 194.668 20.1147 195.095 19.304C195.543 18.4933 195.767 17.544 195.767 16.456C195.767 15.3467 195.543 14.3973 195.095 13.608C194.668 12.7973 194.071 12.1787 193.303 11.752C192.535 11.3253 191.671 11.112 190.711 11.112C189.73 11.112 188.855 11.3253 188.087 11.752C187.34 12.1787 186.743 12.7973 186.295 13.608C185.847 14.3973 185.623 15.3467 185.623 16.456C185.623 17.544 185.847 18.4933 186.295 19.304C186.743 20.1147 187.34 20.7333 188.087 21.16C188.855 21.5867 189.719 21.8 190.679 21.8ZM225.192 7.72C226.557 7.72 227.763 7.98667 228.808 8.52C229.875 9.05333 230.707 9.87467 231.304 10.984C231.901 12.072 232.2 13.48 232.2 15.208V25H228.2V15.72C228.2 14.2053 227.869 13.0747 227.208 12.328C226.547 11.5813 225.597 11.208 224.36 11.208C223.485 11.208 222.707 11.4 222.024 11.784C221.363 12.168 220.84 12.7333 220.456 13.48C220.093 14.2267 219.912 15.176 219.912 16.328V25H215.912V15.72C215.912 14.2053 215.581 13.0747 214.92 12.328C214.259 11.5813 213.309 11.208 212.072 11.208C211.197 11.208 210.419 11.4 209.736 11.784C209.075 12.168 208.552 12.7333 208.168 13.48C207.805 14.2267 207.624 15.176 207.624 16.328V25H203.624V7.912H207.432V12.456L206.76 11.112C207.336 10.0027 208.168 9.16 209.256 8.584C210.365 8.008 211.624 7.72 213.032 7.72C214.632 7.72 216.019 8.11467 217.192 8.904C218.387 9.69333 219.176 10.888 219.56 12.488L217.992 11.944C218.547 10.664 219.464 9.64 220.744 8.872C222.024 8.104 223.507 7.72 225.192 7.72ZM245.375 25.224C243.476 25.224 241.812 24.8507 240.383 24.104C238.975 23.336 237.876 22.2907 237.087 20.968C236.319 19.6453 235.935 18.1413 235.935 16.456C235.935 14.7493 236.308 13.2453 237.055 11.944C237.823 10.6213 238.868 9.58667 240.191 8.84C241.535 8.09333 243.06 7.72 244.767 7.72C246.431 7.72 247.913 8.08267 249.215 8.808C250.516 9.53333 251.54 10.5573 252.287 11.88C253.033 13.2027 253.407 14.76 253.407 16.552C253.407 16.7227 253.396 16.9147 253.375 17.128C253.375 17.3413 253.364 17.544 253.343 17.736H239.103V15.08H251.231L249.663 15.912C249.684 14.9307 249.481 14.0667 249.055 13.32C248.628 12.5733 248.041 11.9867 247.295 11.56C246.569 11.1333 245.727 10.92 244.767 10.92C243.785 10.92 242.921 11.1333 242.175 11.56C241.449 11.9867 240.873 12.584 240.447 13.352C240.041 14.0987 239.839 14.984 239.839 16.008V16.648C239.839 17.672 240.073 18.5787 240.543 19.368C241.012 20.1573 241.673 20.7653 242.527 21.192C243.38 21.6187 244.361 21.832 245.471 21.832C246.431 21.832 247.295 21.6827 248.063 21.384C248.831 21.0853 249.513 20.616 250.111 19.976L252.255 22.44C251.487 23.336 250.516 24.0293 249.343 24.52C248.191 24.9893 246.868 25.224 245.375 25.224Z" fill="#B27E55"/>
</svg>
