<svg width="18" height="18" viewBox="0 0 18 18" fill="none" xmlns="http://www.w3.org/2000/svg">
<path d="M5.22 9.28C4.927 8.987 4.927 8.512 5.22 8.219C5.513 7.926 5.988 7.926 6.281 8.219L8.001 9.939V0.75C8.001 0.336 8.337 0 8.751 0C9.165 0 9.501 0.336 9.501 0.75V9.939L11.221 8.219C11.514 7.926 11.989 7.926 12.282 8.219C12.575 8.512 12.575 8.987 12.282 9.28L9.282 12.28C9.136 12.426 8.944 12.5 8.752 12.5C8.56 12.5 8.368 12.427 8.222 12.28L5.222 9.28H5.22ZM16.75 11C16.336 11 16 11.336 16 11.75V14.75C16 15.439 15.439 16 14.75 16H2.75C2.061 16 1.5 15.439 1.5 14.75V11.75C1.5 11.336 1.164 11 0.75 11C0.336 11 0 11.336 0 11.75V14.75C0 16.267 1.233 17.5 2.75 17.5H14.75C16.267 17.5 17.5 16.267 17.5 14.75V11.75C17.5 11.336 17.164 11 16.75 11Z" fill="black"/>
</svg>
