<svg width="24" height="17" viewBox="0 0 24 17" fill="none" xmlns="http://www.w3.org/2000/svg">
<path d="M2.57135 0C1.14394 0 0 1.19472 0 2.61201V14.3791C0 15.7964 1.14399 17 2.57135 17H21.4287C22.8561 17 24 15.7964 24 14.3791V2.61201C24 1.19472 22.856 0 21.4287 0H2.57135ZM2.69631 1.70012H21.3128L12.5091 9.98772C12.1889 10.2893 11.8303 10.2897 11.509 9.98772L2.69631 1.70012ZM1.71416 3.11681L7.55349 8.60645L1.71416 14.3794V3.11681ZM22.2858 3.11681V14.3794L16.4643 8.59735L22.2858 3.11681ZM15.2321 9.76662L20.7944 15.3008H3.21417L8.79483 9.77572L10.3307 11.2189C11.2616 12.0938 12.7572 12.0952 13.6879 11.2189L15.2321 9.76662Z" fill="white"/>
</svg>
