<svg width="22" height="22" viewBox="0 0 22 22" fill="none" xmlns="http://www.w3.org/2000/svg">
<path d="M19.4158 13.8949H14.711C13.6839 13.8949 12.7894 14.5069 12.3917 15.3671C9.84054 14.2257 7.75319 12.1415 6.6099 9.59395C7.48793 9.18042 8.10084 8.30372 8.10084 7.26162V2.58046C8.10084 1.1579 6.9412 0 5.5165 0H2.53462C1.77256 0 1.06023 0.347365 0.563236 0.92631C0.198778 1.37293 0 1.95188 0 2.53081V4.96235C0 6.15332 0.132529 7.36083 0.381022 8.53526C1.77255 15.0857 6.92469 20.2297 13.485 21.6195C14.6612 21.8677 15.8705 22 17.0799 22H19.4654C20.0452 22 20.6085 21.8015 21.0557 21.4376C21.6521 20.9579 22 20.2301 22 19.4692V16.4918C22 15.0692 20.8404 13.8948 19.4157 13.8948L19.4158 13.8949ZM17.0468 20.3461C15.9701 20.3461 14.8767 20.2303 13.7999 19.9987C7.88582 18.725 3.23089 14.0935 1.97173 8.1883C1.7398 7.12966 1.62384 6.03795 1.62384 4.96277V2.53123C1.62384 2.15078 1.9883 1.65452 2.50187 1.65452H5.48375C5.99731 1.65452 6.41146 2.06805 6.41146 2.58083V7.27857C6.41146 7.77482 5.9973 8.18835 5.50031 8.18835H5.48375C4.5726 8.18835 4.52292 8.86654 4.67201 9.29659C4.67201 9.31314 4.68858 9.34622 4.68858 9.34622C5.99731 13.0349 8.97919 15.996 12.6737 17.3027C12.6902 17.3027 12.7234 17.3192 12.7399 17.3192C12.7565 17.3192 12.7731 17.3357 12.7896 17.3357C12.8393 17.3523 12.889 17.3523 12.9387 17.3523C12.9884 17.3523 13.0381 17.3523 13.0878 17.3357C13.1044 17.3357 13.1209 17.3357 13.1375 17.3192C13.1706 17.3192 13.2038 17.3027 13.2369 17.2861C13.2535 17.2861 13.27 17.2696 13.2866 17.2696L13.386 17.2199C13.4026 17.2199 13.4026 17.2034 13.4191 17.2034C13.4523 17.1703 13.502 17.1538 13.5351 17.1042C13.5517 17.0876 13.5517 17.0876 13.5517 17.0711C13.5682 17.038 13.6014 17.0215 13.6179 16.9884C13.6345 16.9718 13.6345 16.9553 13.6511 16.9387C13.6676 16.9057 13.6842 16.8891 13.7008 16.856C13.7173 16.8395 13.7173 16.823 13.7173 16.8064C13.7173 16.7899 13.7173 16.7899 13.7339 16.7899C13.7339 16.7733 13.7339 16.7568 13.7505 16.7403C13.7505 16.7072 13.767 16.6906 13.767 16.6575C13.767 16.6245 13.767 16.6079 13.7836 16.5748V16.4756C13.7836 15.9794 14.1977 15.5658 14.6947 15.5658H19.3995C19.9131 15.5658 20.3438 15.9793 20.3438 16.5087V19.4861C20.3438 19.7507 20.2278 19.9988 20.0125 20.1642C19.8965 20.247 19.7143 20.3627 19.4658 20.3627H17.0472L17.0468 20.3461Z" fill="white"/>
</svg>
